<svg version="1.1" id="a5ddbfc6-8d94-48d1-89b7-69d836321f64" xmlns="http://www.w3.org/2000/svg" xmlns:xlink="http://www.w3.org/1999/xlink" x="0px" y="0px" viewBox="0 0 125.9 23.1" style="enable-background:new 0 0 125.9 23.1;" xml:space="preserve">
<style type="text/css">
	.st0{fill:#383838;}
</style>
<path id="ffd34a3e-4a24-444a-8795-16735e41bce7" class="st0" d="M47.9,2.3H43v18.9h4.7V10.1l8.2,11.1h4V2.3h-4.6v10.5L47.9,2.3z   M77.7,17h-9.9v-3.2h7.4V9.6h-7.4V6.5h9.6V2.3H62.8v18.9h14.9V17z M94.5,2.3h-4.6l-3.1,11.9h-0.2l-3-11.9h-5.1l5,18.9h5.3L92,9.3  h0.1l3.1,11.9h5.5l4.9-18.9h-4.9l-3,11.9h-0.1L94.5,2.3z M106.2,14.6c0,4.5,3.7,7,8.8,7s7.9-2,7.9-6s-1.8-5.2-5.8-5.9l-3.5-0.6  c-1.2-0.2-1.9-0.5-1.9-1.4s0.9-1.7,2.6-1.7s3.4,0.9,3.5,2.8h4.7c-0.1-4.2-2.9-6.7-8.1-6.7s-7.7,2.3-7.7,6.1s2.1,5.1,5.2,5.6l3.5,0.6  c1.4,0.3,2.5,0.5,2.5,1.6s-1.1,1.7-2.9,1.7s-3.9-0.8-4.1-3.2L106.2,14.6z M12.7,9.1l4.8,11.1l-10-6.9c-1.7-1-2.2-3.1-1.3-4.8  c0,0,0-0.1,0.1-0.1c0.1-0.3,0.3-0.6,0.6-0.8c1.3-1.3,3.5-1.3,4.8,0c0.1,0.1,0.1,0.1,0.2,0.2C12.3,8.2,12.6,8.6,12.7,9.1z M19.4,6.6  L17.6,19l-5-11.8C12,5.3,13,3.3,14.9,2.7c1.7-0.5,3.4,0.2,4.3,1.7C19.5,5.1,19.5,5.9,19.4,6.6z M27,7.2L22.1,19L20.5,8.3  c-0.2-1.6,0.8-1.6,1.2-2s-0.6-0.2-0.6-0.2h-0.9c-0.2-2,1.2-3.7,3.2-3.9H24c2,0.2,3.5,2,3.3,4C27.3,6.6,27.2,6.9,27,7.2z M32.1,13.4  l-10,6.9l4.7-11c0.6-1.9,2.6-3,4.5-2.4c0.6,0.2,1.1,0.5,1.5,0.9c1.3,1.5,1.3,3.7-0.1,5.1C32.7,12.9,32.1,13.4,32.1,13.4z M33.2,21.4  H21.6l9.4-6.5c1.6-1.1,3.8-0.7,4.9,0.9c0,0,0,0,0,0c0.2,0.3,0.4,0.6,0.5,1c0.5,1.8-0.4,3.8-2.2,4.5l-1,0.2L33.2,21.4z M3.2,16.7  c0.6-1.9,2.5-2.9,4.4-2.3c0,0,0.1,0,0.1,0l1,0.5l9.4,6.6H6.7c-2,0-3.6-1.6-3.7-3.6C3,17.5,3.1,17.1,3.2,16.7z"/>
</svg>