<svg version="1.1" id="Layer_1" xmlns="http://www.w3.org/2000/svg" xmlns:xlink="http://www.w3.org/1999/xlink" x="0px" y="0px" viewBox="0 0 387.4 71" enable-background="new 0 0 387.4 71" xml:space="preserve">
<g>
	<path fill="#000000" d="M29.4,54.7L29,53.8l-0.6-1.2c-0.5-0.9-1.2-1.4-2-1.5c1.9-3.4,3.3-7.4,3.3-12.1V24.2c0-0.1-0.1-0.2-0.2-0.2   H14.9h0H0.2c-0.1,0-0.2,0.1-0.2,0.2V39c0,4.7,1.4,8.8,3.3,12.1c-0.9,0.1-1.6,0.6-2,1.5l-0.6,1.2l-0.4,0.9c-0.4,0.8-0.8,2.4,0.8,4.4   c1.3,1.6,4,3.3,7.2,4.6l0.1,0.1C8.8,63.9,9,64,9.3,64.1c-0.3,0.3-0.6,0.6-0.9,0.8l-0.3,0.2C8,65.2,8,65.2,7.9,65.3c0,0,0,0,0,0   c0,0,0,0-0.1,0.1c-0.3,0.3-0.4,0.6-0.4,1.2v2.8c0,1.2,1.6,1.6,3.1,1.6h8.7c1.5,0,3.1-0.4,3.1-1.6v-2.8c0-0.6-0.1-0.9-0.4-1.2   c0,0,0,0-0.1-0.1c0,0,0,0,0,0c-0.1-0.1-0.1-0.1-0.2-0.2l-0.3-0.2c-0.3-0.2-0.7-0.5-0.9-0.8c0.3-0.1,0.5-0.2,0.8-0.3l0.2-0.1   c3.2-1.3,5.9-3,7.2-4.6C30.2,57.1,29.8,55.5,29.4,54.7z M27.6,52.2c0.4,0.6,0.4,1.4,0,2.3c-0.1,0.1-0.1,0.3-0.2,0.4l-1-1.5   c0-0.1-0.1-0.1-0.2-0.1c-0.1,0-0.1,0.1-0.1,0.1c-0.1,0.3-0.3,0.5-0.6,0.6c-0.3,0.1-0.7,0.1-1,0c0.6-0.9,1.3-1.8,1.8-2.8   c0,0,0.1,0,0.2,0c0,0,0,0,0,0C26.9,51.5,27.3,51.8,27.6,52.2z M18.3,66.8l0.2,0.2h-7.1l0.2-0.2c0.4-0.4,0.8-0.7,0.8-1.6v-2   c0-2-1.7-2.7-3.7-3.6c-0.7-0.3-1.4-0.6-2.1-1c-0.6-0.4-1.5-1-2.4-1.6l1.5-2.2c4.1,5.3,9,8.1,9.1,8.2c0.1,0,0.1,0,0.2,0   c0.1,0,5-2.9,9.1-8.2l1.6,2.3c-0.8,0.7-1.7,1.3-2.4,1.6c-0.7,0.4-1.4,0.7-2.1,1c-2,0.9-3.7,1.7-3.7,3.6v2   C17.5,66.1,17.8,66.5,18.3,66.8z M3.9,56.7c-0.5-0.4-0.9-0.9-1.3-1.4c0.2-0.3,0.8-1.1,1-1.4c0.1,0.2,0.4,0.5,0.7,0.6   c0.3,0.1,0.7,0.2,1,0.1L3.9,56.7z M8.5,51l0-0.2c-0.2-0.5-0.6-0.4-0.7-0.3l-0.1,0c0,0-0.3,0-0.4-0.3L7.5,50c0.1,0,0.1-0.1,0-0.2   c0-0.1-0.1-0.1-0.2,0l-0.2,0.1c0-0.1,0-0.1,0-0.2c0-0.1,0.1-0.2,0.2-0.2c0,0,0.1,0,0.1-0.1c0,0,0.1-0.4,1-0.8l0.5-0.3   c0.7-0.4,1.2-0.7,1.6-0.8l1.3-0.2l0.4-0.2c0.4-0.2,1-0.5,1.7-0.7c0.1,0,3.8-1.6,6.4,1.6c0.7,0.9,1,2,0.9,3.2   c-0.2,1.5-1.2,3.1-2,3.6c-0.1,0.1-0.2,0.2-0.4,0.5c-0.3,0.5-0.7,1.2-1.3,1.8l-0.2,0.2c-0.9,0.9-1.8,2-3.5,1.8   c-0.2,0-0.3-0.1-0.3-0.3c-0.1-0.5,0.4-1.6,1.4-2.5c0.8-0.7,1.6-1.2,2-1.5l0.6-0.4c0,0,0.1-0.1,0.1-0.1c0,0,0,0,0,0   c0.1-0.2,0.2-0.5,0.2-0.5c0,0,0-0.1,0-0.1c0,0-0.1,0-0.1,0c0,0-0.7,0-1.3-0.3c-0.4-0.2-0.7-0.6-0.9-1.1c-0.3-0.7,0.1-1.2,0.5-1.7   c0.3-0.4,0.6-0.7,0.5-1.1c0-0.1-0.1-0.1-0.1-0.1c-0.1,0-0.1,0.1-0.1,0.1c0,0,0,0,0,0c0,0,0,0.1,0,0.1c0,0.3-0.2,0.6-0.5,0.9   c-0.3,0.4-0.7,0.8-0.7,1.4c0,0.2,0,0.4,0.1,0.5c0.1,0.3,0.3,0.6,0.5,0.8c-0.4-0.1-1-0.3-1.6-0.7c0,0,0,0-0.1,0c0.1-0.5,0-1.2,0-1.5   c0-0.1-0.1-0.1-0.1-0.1c-0.1,0-0.1,0.1-0.1,0.1c0.1,0.7,0.1,1.6-0.1,1.7c0,0-0.3,0.2-0.3,0.2L13,53.5L12.4,54l-0.2,0.1   c-0.1,0.1-0.6,0.1-0.8,0.1l-0.2,0c0,0-0.2,0-0.4,0C11,54.1,11,54,10.9,54c-0.1-0.1-0.3,0.2-0.4,0.3c-0.1,0-0.2,0-0.2,0   c0.1-0.2,0.3-0.4,0.4-0.5l0.2,0c0.2,0,0.4,0,0.7-0.1c0.4-0.2,0.4-0.5,0.4-0.6c0-0.1-0.2-0.9-0.3-1.1c-0.1-0.2-0.8-0.7-1.2-0.8   c-0.3-0.1-0.9,0-1.3,0.1l-0.2,0c0,0-0.1,0-0.1,0c-0.1,0-0.5,0-0.6-0.1C8.3,51.2,8.4,51.1,8.5,51z M3.1,43.2c0,0,3.8,0,4,0   c0.1,0.1,0.4,0.3,0.8,0.4l0.2,0c0.4,0,0.7-0.3,0.8-0.4c0.1,0,4,0,4,0c0.1,0,0.2-0.1,0.2-0.2v-5c0.1,0,0.3,0,0.3,0   c0,0.3,0,5.3,0,5.6c-0.3,0-4.4,0-4.4,0c0,0-0.1,0-0.1,0.1c0,0-0.2,0.2-0.6,0.3c-0.1,0-0.4,0-0.5,0c-0.4-0.1-0.6-0.3-0.6-0.3   c0,0-0.1-0.1-0.1-0.1c0,0-4.1,0-4.4,0c0-0.3,0-5.3,0-5.6c0.1,0,0.2,0,0.4,0v5C2.9,43.1,3,43.2,3.1,43.2z M3.8,42.7h0.9   c0.3,0,0.6-0.1,0.9-0.3c0.3-0.1,0.7-0.3,1.1-0.3c0.6,0,1,0.5,1,0.5c0,0,0.1,0.1,0.1,0.1l0.2,0h0h0l0.2,0c0.1,0,0.1,0,0.1-0.1   c0,0,0.4-0.5,1-0.5c0.4,0,0.8,0.2,1.1,0.3c0.3,0.1,0.6,0.3,0.9,0.3h0.9c0.1,0,0.2-0.1,0.2-0.2v-4.8c0.1,0.1,0.3,0.2,0.4,0.2   c0,0.2,0,4.6,0,4.9c-0.3,0-3.8,0-3.8,0c0,0-0.1,0-0.1,0.1c0,0-0.3,0.3-0.6,0.3l-0.2,0c-0.4,0-0.6-0.3-0.7-0.3c0,0-0.1-0.1-0.1-0.1   c0,0-3.5,0-3.9,0c0-0.3,0-4.7,0-4.9c0.1,0,0.2-0.2,0.4-0.2v4.8C3.6,42.6,3.7,42.7,3.8,42.7z M4,42.3c0-0.3,0-4.5,0-4.8   c0.2,0,0.7,0,0.7,0c0.3,0,0.5-0.1,0.7-0.3c0.3-0.2,0.6-0.4,1.2-0.4c1,0,1.2,0.6,1.2,0.6c0,0,0,4.4,0,4.9c-0.2-0.2-0.6-0.5-1.1-0.5   c-0.5,0-0.9,0.2-1.2,0.3c-0.3,0.1-0.5,0.2-0.8,0.2C4.7,42.3,4.2,42.3,4,42.3z M8.1,42.2c0-0.4,0-4.9,0-4.9c0,0,0.2-0.6,1.2-0.6   c0.6,0,0.9,0.2,1.2,0.4c0.2,0.2,0.4,0.3,0.7,0.3c0,0,0.5,0,0.7,0c0,0.3,0,4.5,0,4.8c-0.2,0-0.7,0-0.7,0c-0.2,0-0.5-0.1-0.8-0.2   c-0.4-0.2-0.8-0.3-1.2-0.3C8.7,41.8,8.3,42.1,8.1,42.2z M15,54.3c0,0-0.3,0.1-0.3,0.1c-0.1,0-0.3,0.1-0.4,0.1c0,0,0,0,0,0   c0-0.1,0.1-0.2,0.3-0.3c0.3-0.2,0.6-0.3,0.5-0.3c-0.1-0.1-0.4,0-0.6,0.1c-0.3,0.1-0.4,0.3-0.5,0.4c-0.1,0-0.2-0.1-0.2-0.1   c0.1-0.3,0.4-0.5,0.6-0.6c0.4-0.2,0.5-0.1,0.5-0.1c0.1,0,1.2,0.2,1.4,0.2c0,0,0,0,0,0c0,0,0.1,0.1,0.1,0.1c0.5,0.2,1,0.3,1.2,0.3   c0,0.1-0.1,0.2-0.1,0.3C17.1,54.3,15.2,54.3,15,54.3z M9.8,53.4c-0.1,0-0.1,0.1-0.2,0.1c0-0.1-0.1-0.2-0.1-0.4c0-0.1,0-0.3,0.1-0.4   c0.1-0.4,0.6-0.4,0.9-0.5l0.3-0.1c0.2-0.1,0.2-0.1,0.3-0.2c0.1,0.1,0.3,0.2,0.3,0.3c0.1,0.1,0.2,0.5,0.3,0.7c0,0,0,0,0,0   c-0.2,0.2-0.7,0-0.9-0.1l-0.2-0.1c-0.2,0-0.3,0.2-0.4,0.4c0,0-0.1,0.1-0.2,0.2c0,0-0.1-0.1-0.1-0.2c0-0.2,0-0.4,0-0.4   C9.9,52.6,9.7,53,9.8,53.4z M16.9,43.1c0,0,3.8,0,4,0c0.1,0.1,0.4,0.3,0.8,0.4l0.2,0c0.4,0,0.7-0.3,0.8-0.4c0.1,0,4,0,4,0   c0.1,0,0.2-0.1,0.2-0.2v-5c0.1,0,0.2,0,0.3,0c0,0.3,0,5.3,0,5.6c-0.3,0-4.5,0-4.5,0c0,0-0.1,0-0.1,0.1c0,0-0.2,0.2-0.6,0.3   c-0.1,0-0.4,0-0.5,0c-0.4-0.1-0.6-0.3-0.6-0.3c0,0-0.1-0.1-0.1-0.1c0,0-4.1,0-4.5,0c0-0.3,0-5.3,0-5.6c0.1,0,0.2,0,0.4,0v5   C16.7,43.1,16.8,43.1,16.9,43.1z M17.6,42.7h0.9c0.3,0,0.6-0.1,0.9-0.3c0.3-0.1,0.7-0.3,1.1-0.3c0.6,0,1,0.5,1,0.5   c0,0,0.1,0.1,0.1,0.1l0.2,0h0l0.2,0c0,0,0.1,0,0.1-0.1c0,0,0.4-0.5,1-0.5c0.4,0,0.8,0.2,1.1,0.3c0.3,0.1,0.6,0.3,0.9,0.3h0.9   c0.1,0,0.2-0.1,0.2-0.2v-4.8c0.1,0.1,0.3,0.2,0.4,0.2c0,0.2,0,4.6,0,4.9c-0.3,0-3.8,0-3.8,0c0,0-0.1,0-0.1,0.1c0,0-0.3,0.3-0.6,0.3   l-0.2,0c-0.4,0-0.6-0.3-0.7-0.3c0,0-0.1-0.1-0.1-0.1c0,0-3.5,0-3.9,0c0-0.3,0-4.7,0-4.9c0.1,0,0.2-0.1,0.4-0.2v4.8   C17.5,42.6,17.5,42.7,17.6,42.7z M17.8,42.3c0-0.3,0-4.5,0-4.8c0.2,0,0.7,0,0.7,0c0.3,0,0.5-0.1,0.7-0.3c0.3-0.2,0.6-0.4,1.2-0.4   c1,0,1.2,0.6,1.2,0.6c0,0,0,4.4,0,4.9c-0.2-0.2-0.6-0.5-1.1-0.5c-0.5,0-0.9,0.2-1.2,0.3c-0.3,0.1-0.5,0.2-0.8,0.2   C18.5,42.3,18,42.3,17.8,42.3z M21.9,42.2c0-0.4,0-4.9,0-4.9c0,0,0.2-0.6,1.2-0.6c0.6,0,0.9,0.2,1.2,0.4c0.2,0.2,0.4,0.3,0.7,0.3   c0,0,0.5,0,0.7,0c0,0.3,0,4.5,0,4.8c-0.2,0-0.7,0-0.7,0c-0.2,0-0.5-0.1-0.8-0.2c-0.4-0.2-0.8-0.3-1.2-0.3   C22.5,41.8,22.1,42,21.9,42.2z M24.5,54.6c0.3,0.1,0.7,0,1-0.1c0.3-0.1,0.5-0.3,0.7-0.6c0.2,0.3,0.8,1.1,1,1.4   c-0.3,0.5-0.8,0.9-1.3,1.4L24.5,54.6z M0.4,24.3c0.3,0,28.7,0,29,0c0,0.2,0,6.8,0,11h-29C0.4,31.1,0.4,24.6,0.4,24.3z M2.2,52.2   c0.3-0.4,0.7-0.7,1.2-0.8c0,0,0,0,0,0c0.1,0,0.1,0,0.2,0c0.6,1,1.2,1.9,1.8,2.8c-0.3,0.1-0.6,0.1-1,0c-0.3-0.1-0.6-0.4-0.6-0.6   c0-0.1-0.1-0.1-0.1-0.1c-0.1,0-0.1,0-0.2,0.1l-1,1.5c-0.1-0.1-0.2-0.3-0.2-0.4C1.8,53.7,1.9,52.9,2.2,52.2z M8.6,63.5l-0.1-0.1   c-3.2-1.3-5.8-2.9-7.1-4.5c-1.4-1.7-1.2-3.1-0.8-4L1.1,54l0.6-1.2c0,0,0,0,0,0c-0.1,0.5-0.1,1.1,0.2,1.9c0.6,1.5,2.8,3.2,4.5,4.1   c0.7,0.4,1.4,0.7,2.1,1.1c1.9,0.9,3.5,1.6,3.5,3.3v2c0,0.2,0,0.4-0.1,0.5c0-0.2-0.2-0.4-0.3-0.6C10.9,64.4,9.9,64,8.6,63.5z    M8,65.7C8,65.6,8.1,65.6,8,65.7C8.1,65.6,8.1,65.6,8,65.7c0.1-0.1,0.2-0.2,0.3-0.3l0.3-0.2c0.3-0.3,0.8-0.6,1-0.9   c0.7,0.3,1.3,0.6,1.7,1.1c0.3,0.3,0.3,0.9,0.1,1.1c0,0-0.1,0.1-0.2,0.2L10.9,67h-0.3c-1.4,0-2.4-0.5-2.6-1C8,65.9,8,65.8,8,65.7z    M22,66.3c0,0.1,0,0.2,0,0.3v2.8c0,0.9-1.5,1.2-2.8,1.2h-8.7c-1.3,0-2.8-0.3-2.8-1.2v-2.8c0-0.1,0-0.2,0-0.3c0.3,0.5,1.3,1,2.8,1   h8.6C20.7,67.4,21.7,66.9,22,66.3z M21.2,65.2l0.3,0.2c0.1,0.1,0.2,0.1,0.2,0.2c0,0,0,0,0,0c0,0,0,0,0,0c0.1,0.1,0.1,0.3,0,0.4   c-0.2,0.5-1.1,1-2.6,1c0,0,0,0,0,0h-0.3l-0.4-0.4c-0.1-0.1-0.1-0.1-0.2-0.1c0,0,0,0,0,0c-0.2-0.2-0.2-0.7,0.1-1.1   c0.4-0.5,1-0.8,1.7-1.1C20.5,64.5,20.9,64.9,21.2,65.2z M28.4,58.9c-1.2,1.6-3.9,3.2-7,4.5l-0.1,0.1c-1.3,0.5-2.3,0.9-3,1.7   c-0.2,0.2-0.3,0.4-0.3,0.6c0-0.1-0.1-0.3-0.1-0.5v-2c0-1.8,1.5-2.5,3.5-3.3c0.7-0.3,1.4-0.6,2.1-1.1c1.7-0.9,3.8-2.6,4.5-4.1   c0.3-0.8,0.3-1.5,0.2-1.9c0,0,0,0,0,0l0.6,1.2l0.4,0.9C29.6,55.8,29.8,57.2,28.4,58.9z"/>
	<path fill="#000000" d="M23.5,61.2c0,0.1,0.1,0.3,0,0.3c0,0.1-0.5,0.3-0.6,0.3c-0.1-0.2-0.2-0.4-0.3-0.6c0.1-0.1,0.4-0.2,0.5-0.2   c0,0.1,0.1,0.1,0.1,0.2c0.1,0,0.1-0.1,0.2-0.1c-0.1-0.2-0.2-0.4-0.3-0.6c-0.1,0-0.1,0.1-0.2,0.1c0,0.1,0,0.1,0.1,0.2   c0,0.1-0.4,0.2-0.5,0.3c-0.1-0.2-0.2-0.5-0.3-0.7c0.2-0.1,0.4-0.2,0.6-0.3c0.1,0,0.2,0.2,0.2,0.3c0.1,0,0.1-0.1,0.2-0.1   c0,0-0.2-0.4-0.2-0.5c-0.4,0.2-0.9,0.5-1.3,0.6c-0.1,0.7-0.1,1.4-0.2,2.2c-0.1,0-0.1,0.1-0.2,0.1c0,0.1,0.1,0.1,0.1,0.2   c0.2-0.1,0.4-0.2,0.7-0.3c0-0.1-0.1-0.1-0.1-0.2c-0.1,0-0.1,0.1-0.2,0.1c0-0.2,0-0.5,0-0.8c0.2-0.1,0.4-0.2,0.5-0.3   c0.1,0.2,0.2,0.4,0.3,0.6c-0.1,0-0.1,0.1-0.2,0.1c0,0.1,0.1,0.1,0.1,0.2c0.4-0.2,0.9-0.5,1.4-0.7c-0.1-0.2-0.1-0.3-0.2-0.5   C23.6,61.1,23.5,61.2,23.5,61.2z M21.8,61.4C21.8,61.4,21.8,61.4,21.8,61.4c0-0.3,0-0.6,0.1-0.9c0,0,0,0,0,0   c0.1,0.3,0.2,0.5,0.3,0.7C22.1,61.3,21.9,61.3,21.8,61.4z"/>
	<path fill="#000000" d="M8,60.9c0.1,0,0.1,0.1,0.2,0.1c0.1-0.1,0.1-0.2,0.2-0.3c0.1,0,0.3,0.1,0.4,0.1c-0.2,0.5-0.5,1-0.7,1.5   c-0.1,0-0.2-0.1-0.2-0.1c0,0.1-0.1,0.1-0.1,0.2c0.3,0.1,0.6,0.2,0.8,0.4c0-0.1,0.1-0.1,0.1-0.2c-0.1,0-0.2-0.1-0.2-0.1   c0.2-0.5,0.5-1,0.7-1.5c0.1,0.1,0.3,0.1,0.3,0.2c0,0.1-0.1,0.2-0.1,0.3c0,0,0.2,0.1,0.2,0.1c0.1-0.2,0.2-0.3,0.3-0.5   c-0.5-0.3-1.1-0.5-1.6-0.8C8.2,60.6,8.1,60.8,8,60.9z"/>
	<path fill="#000000" d="M26,57.7c-0.1,0.1-0.1,0.1-0.2,0.2c-0.2,0.2-0.3,0.5-0.3,0.7c0,0.1,0,0.2,0,0.3c0,0.1,0.1,0.3,0.2,0.5   c0.3,0.4,0.6,0.5,1.1,0.3c0.8-0.3,0.8-1.5,0.3-2C26.8,57.4,26.5,57.4,26,57.7z M26.9,59.4c-0.4,0.4-0.9-0.2-1-0.7   c-0.1-0.3-0.1-0.5,0.1-0.7c0,0,0.1-0.1,0.1-0.1c0.1-0.1,0.2-0.1,0.3-0.1C26.9,57.8,27.4,59,26.9,59.4z"/>
	<path fill="#000000" d="M25,58.7c0,0,0.1-0.1,0.1-0.1c0-0.1-0.1-0.1-0.1-0.2c-0.2,0.1-0.4,0.3-0.6,0.4c0,0.1,0.1,0.1,0.1,0.2   c0.1,0,0.1-0.1,0.2-0.1c0.1,0.3,0.1,1.2,0.2,1.4c0,0.1,0,0.2,0,0.2c0,0,0,0,0,0c0,0-0.2-0.2-0.3-0.3l-0.5-0.6   c-0.1-0.1-0.2-0.2-0.2-0.3c0.1-0.1,0.2-0.1,0.2-0.1c0-0.1,0-0.1-0.1-0.2c-0.3,0.2-0.5,0.3-0.8,0.4c0,0.1,0,0.1,0.1,0.2   c0.1,0,0.1-0.1,0.2-0.1c0.1,0.1,0.2,0.2,0.3,0.3c0.2,0.2,0.5,0.5,0.7,0.7c0.1,0.1,0.2,0.2,0.3,0.3c0.1-0.1,0.2-0.1,0.3-0.2   c0-0.5-0.1-1-0.1-1.5C25,59.2,25,58.9,25,58.7z"/>
	<path fill="#000000" d="M8.1,60.3c-0.2-0.1-0.4-0.2-0.7-0.3c0,0.1-0.1,0.1-0.1,0.2c0.1,0,0.1,0.1,0.2,0.1c-0.2,0.5-0.6,1.7-1.1,1.3   c-0.4-0.2-0.2-0.5,0-1c0.1-0.2,0.2-0.5,0.4-0.8C6.8,59.9,6.9,60,7,60C7,59.9,7,59.9,7,59.8c-0.2-0.1-0.5-0.3-0.7-0.4   c0,0.1-0.1,0.1-0.1,0.2c0.1,0,0.1,0.1,0.2,0.1c0,0.1-0.2,0.4-0.2,0.5c-0.2,0.5-0.5,0.9-0.3,1.3c0.1,0.1,0.1,0.2,0.2,0.2   c0.1,0.1,0.3,0.2,0.4,0.2c0.6,0.1,0.9-0.8,1.2-1.5c0.1,0,0.1,0,0.2,0.1C8,60.4,8,60.4,8.1,60.3z"/>
	<path fill="#000000" d="M2.9,57.3c0,0,0.1,0.1,0.1,0.1c0-0.1,0.1-0.1,0.1-0.2C3,57,2.8,56.9,2.6,56.7c0,0.1-0.1,0.1-0.1,0.2   C2.6,57,2.7,57,2.7,57.1C2.6,57.3,1.9,58,1.9,58c0,0,0,0,0,0c0,0,0.2-1.5,0.3-1.6c0.1,0.1,0.1,0.1,0.2,0.2c0-0.1,0.1-0.1,0.1-0.2   c-0.2-0.2-0.4-0.5-0.5-0.7c0,0.1-0.1,0.1-0.1,0.2c0,0.1,0.1,0.1,0.1,0.2c-0.1,0.2-0.3,2-0.3,2.2c0.1,0.1,0.1,0.2,0.2,0.2   C2,58.2,2.8,57.4,2.9,57.3z"/>
	<path fill="#000000" d="M10.7,68c-0.1,0-0.2,0-0.3,0c-0.2,0.6-0.5,1.2-0.7,1.9c0,0-0.1,0-0.2,0v0.2h0.7v-0.2c-0.1,0-0.2,0-0.2,0   c0-0.1,0.1-0.2,0.1-0.4c0.2,0,0.5,0,0.7,0c0.1,0.1,0.1,0.3,0.1,0.4c-0.1,0-0.2,0-0.2,0v0.2h0.8v-0.2c-0.1,0-0.1,0-0.2,0   C11.2,69.2,10.9,68.6,10.7,68z M10.2,69.3c0.1-0.3,0.2-0.6,0.3-0.8c0,0,0,0,0,0l0.3,0.8H10.2z"/>
	<path fill="#000000" d="M3.6,59.3c0.1-0.2,0.2-0.3,0.3-0.5c0,0-0.1-0.1-0.1-0.1c0,0-0.1,0.1-0.1,0.1c0,0-0.3-0.2-0.3-0.2   c0.1-0.2,0.2-0.4,0.3-0.6C3.8,58,4,58.2,4.1,58.3c0,0.1-0.1,0.2-0.1,0.3c0,0.1,0.1,0.1,0.2,0.1c0.1-0.2,0.2-0.4,0.2-0.5   c-0.4-0.3-0.7-0.6-1.1-0.8c0,0.1-0.1,0.1-0.1,0.2c0,0,0.1,0.1,0.2,0.1c-0.3,0.5-0.5,0.9-0.7,1.5c-0.1,0-0.1-0.1-0.2-0.1   c0,0.1-0.1,0.1-0.1,0.2c0.3,0.3,0.7,0.6,1.1,0.9c0.1-0.1,0.2-0.3,0.3-0.5c0,0,0,0,0,0c-0.1-0.1-0.1-0.1-0.2-0.2   c0,0.1-0.2,0.3-0.2,0.3c-0.1,0-0.4-0.3-0.4-0.4c0-0.1,0.2-0.5,0.3-0.6c0.1,0.1,0.2,0.2,0.3,0.3c0,0.1,0,0.1-0.1,0.2   C3.5,59.2,3.6,59.3,3.6,59.3z"/>
	<path fill="#000000" d="M5.5,59.2c0-0.1,0.1-0.1,0.1-0.2c-0.2-0.1-0.5-0.3-0.7-0.5c0,0.1-0.1,0.1-0.1,0.2c0.1,0,0.1,0.1,0.2,0.1   c-0.2,0.5-0.5,1-0.7,1.5c-0.1,0-0.1-0.1-0.2-0.1C4,60.3,4,60.4,4,60.5c0.4,0.3,0.8,0.5,1.2,0.7c0.1-0.2,0.2-0.3,0.3-0.4   c0,0,0,0,0,0c-0.1-0.1-0.1-0.1-0.2-0.2c-0.1,0.1-0.2,0.2-0.3,0.3c-0.1,0-0.3-0.2-0.5-0.3c0-0.1,0.5-1.1,0.7-1.5   C5.3,59.1,5.4,59.2,5.5,59.2z"/>
	<path fill="#000000" d="M17.1,67.9c-0.1,0-0.2,0-0.3,0.1c-0.3,0.1-0.4,0.3-0.6,0.5c-0.1,0.1-0.1,0.2-0.1,0.3c0,0.1,0,0.3,0,0.5   c0.1,0.5,0.3,0.8,0.9,0.8c0.8,0.1,1.4-0.8,1.1-1.6C17.9,68.2,17.6,67.9,17.1,67.9z M17.2,69.9c-0.5,0.1-0.8-0.6-0.6-1.1   c0-0.2,0.2-0.5,0.4-0.6c0.1,0,0.1,0,0.2,0c0.1,0,0.2,0,0.3,0.1C17.8,68.5,17.8,69.8,17.2,69.9z"/>
	<path fill="#000000" d="M15.2,68.9L15.2,68.9L15.2,68.9c0.4-0.2,0.5-0.6,0.1-0.9C15,67.9,14.4,68,14,68v0.2c0.1,0,0.1,0,0.2,0v1.7   c-0.1,0-0.1,0-0.2,0c0,0.1,0,0.1,0,0.2c0.5,0,1.1,0.1,1.4-0.1c0.2-0.1,0.4-0.5,0.2-0.7C15.5,69,15.4,69,15.2,68.9z M14.6,68.2   c0.2,0,0.4,0,0.5,0.1c0,0.1,0.1,0.2,0.1,0.2c0,0.3-0.3,0.3-0.6,0.3C14.6,68.7,14.6,68.4,14.6,68.2z M14.9,69.9c-0.1,0-0.2,0-0.3,0   c0,0,0-0.1,0-0.2c0-0.1,0-0.5,0-0.6c0.4,0,0.8,0.1,0.7,0.5C15.2,69.8,15.1,69.8,14.9,69.9z"/>
	<path fill="#000000" d="M13.4,69.7c-0.1-0.2-0.2-0.5-0.4-0.6c0,0,0,0,0,0c0.4-0.1,0.6-0.7,0.2-0.9C13,67.9,12.4,68,11.9,68   c0,0.1,0,0.1,0,0.2v0c0.1,0,0.1,0,0.2,0v1.6c-0.1,0-0.1,0-0.2,0c0,0.1,0,0.1,0,0.2v0h0.8c0-0.1,0-0.1,0-0.2c-0.1,0-0.2,0-0.2,0   c0-0.2,0-0.4,0-0.6c0.1,0,0.2,0,0.3,0c0.2,0.1,0.3,0.7,0.5,0.8c0,0,0.4,0,0.5,0l0-0.2c-0.1,0-0.1,0-0.2,0   C13.5,69.8,13.4,69.7,13.4,69.7z M12.5,69c0-0.3,0-0.6,0-0.8c0.1,0,0.2,0,0.3,0c0.2,0.1,0.4,0.4,0.2,0.7C12.9,69,12.7,69,12.5,69z"/>
	<path fill="#000000" d="M18.6,68c0,0.1,0,0.1,0,0.2v0c0.1,0,0.1,0,0.2,0v1.6c-0.1,0-0.1,0-0.2,0c0,0.1,0,0.1,0,0.2v0h0.8   c0-0.1,0-0.1,0-0.2c-0.1,0-0.2,0-0.2,0c0-0.2,0-0.4,0-0.6c0.1,0,0.2,0,0.3,0c0.2,0.1,0.3,0.7,0.5,0.8c0,0,0.4,0,0.5,0l0-0.2   c-0.1,0-0.1,0-0.2,0c-0.1,0-0.1-0.1-0.1-0.2c-0.1-0.2-0.2-0.5-0.4-0.6c0,0,0,0,0,0c0.4-0.1,0.6-0.7,0.2-0.9   C19.6,67.9,19,68,18.6,68z M19.1,68.2c0.1,0,0.2,0,0.3,0c0.2,0.1,0.4,0.4,0.2,0.7C19.5,69,19.3,69,19.1,69   C19.1,68.7,19.1,68.5,19.1,68.2z"/>
	<path fill="#000000" d="M10,48.3c0,0,0.1,0,0.2,0c0.1,0,0.1,0.1,0.1,0.1c0,0,0,0.2,0.1,0.2c0.1,0,0.3-0.4,0-0.6   C10.2,48,10.1,48,10,48c-0.2,0.1-0.3,0.3-0.2,0.4C9.9,48.5,10,48.3,10,48.3z"/>
	<path fill="#000000" d="M8.6,49.7c0.1-0.2,0.8-0.5,0.8-0.6c0-0.1-1,0.2-1.1,0.5c-0.2,0.3,0.3,0.8,0.4,0.7   C8.9,50.2,8.5,49.9,8.6,49.7z"/>
	<path fill="#000000" d="M16.4,56c0,0.2,0.3,0.2,0.7,0.2c0.2,0,0.7,0,0.6-0.2c0-0.1-0.4-0.1-0.6-0.1C16.7,55.9,16.4,55.9,16.4,56z"/>
	<path fill="#000000" d="M15.4,56.8c0,0.2,0.4,0.2,0.8,0.2c0.3,0,0.8,0,0.8-0.2c0-0.1-0.5-0.1-0.8-0.1   C15.8,56.7,15.4,56.6,15.4,56.8z"/>
	<path fill="#000000" d="M14.7,57.6c0,0.1,0.4,0.2,0.8,0.2c0.3,0,0.7,0,0.7-0.2c0-0.1-0.5-0.1-0.7-0.1   C15.1,57.5,14.8,57.4,14.7,57.6z"/>
	<path fill="#000000" d="M14.3,58.4c0,0.1,0.3,0.2,0.6,0.2c0.2,0,0.6,0,0.5-0.2c0-0.1-0.3-0.1-0.5-0.1   C14.5,58.3,14.3,58.3,14.3,58.4z"/>
	<path fill="#000000" d="M8.5,49.2L8.5,49.2c0.2-0.1,0.2-0.2,0.2-0.2c0-0.1-0.1-0.1-0.2-0.1l-0.1,0c-0.1,0-0.1,0.1-0.1,0.2   C8.3,49.1,8.4,49.2,8.5,49.2z"/>
	<path fill="#000000" d="M12.9,48l0.9-0.5c0,0,0.1-0.1,0-0.2c0,0-0.1-0.1-0.1,0l-0.9,0.3c-0.1,0-0.1,0.2-0.1,0.2   C12.7,48,12.8,48,12.9,48z"/>
	<path fill="#000000" d="M13.1,48.2c-0.1,0-0.1,0.1-0.1,0.2c0,0.1,0.1,0.2,0.2,0.2l0.7-0.3c0.1,0,0.1-0.1,0.1-0.1   c0,0-0.1-0.1-0.1-0.1L13.1,48.2z"/>
	<path fill="#000000" d="M13.8,49l-0.6,0c-0.1,0-0.1,0.1-0.1,0.2c0,0.1,0.1,0.2,0.2,0.2l0.6-0.1c0.1,0,0.1-0.1,0.1-0.1   C13.9,49,13.9,49,13.8,49z"/>
	<path fill="#000000" d="M13.7,49.8l-0.4-0.1c-0.1,0-0.1,0.1-0.1,0.2c0,0.1,0,0.2,0.1,0.2l0.4,0C13.8,50,13.8,50,13.7,49.8   C13.8,49.9,13.8,49.8,13.7,49.8z"/>
	<path fill="#000000" d="M17.6,47.2c0,0,0.5,0.1,0.9,0.3c0.1,0,0.2,0,0.2-0.1c0-0.1,0-0.2-0.1-0.2c-0.4-0.2-0.9-0.4-0.9-0.4   c-0.1,0-0.2,0-0.2,0.1C17.4,47.1,17.5,47.2,17.6,47.2z"/>
	<path fill="#000000" d="M17.8,47.6c-0.1,0-0.2,0-0.2,0.1c0,0.1,0,0.2,0.1,0.2c0,0,0.4,0.1,0.7,0.2c0.1,0,0.1,0,0.2-0.1   c0-0.1,0-0.1-0.1-0.2C18.2,47.7,17.9,47.7,17.8,47.6z"/>
	<path fill="#000000" d="M17.9,48.4c-0.1,0-0.1,0-0.1,0.1c0,0.1,0,0.1,0.1,0.2c0,0,0.3,0.1,0.5,0.2c0.1,0,0.1,0,0.2,0   c0-0.1,0-0.1-0.1-0.2C18,48.4,17.9,48.4,17.9,48.4z"/>
	<path fill="#000000" d="M17.8,49.1c0,0-0.1,0-0.1,0.1c0,0.1,0,0.1,0.1,0.1c0,0,0.2,0,0.3,0.1c0.1,0,0.1,0,0.1,0c0,0,0-0.1,0-0.1   C18.1,49.1,17.9,49.1,17.8,49.1z"/>
	<path fill="#000000" d="M19.9,48.8c0.1,0,0.1,0.1,0.2,0c0.1-0.1,0.1-0.1,0-0.2c-0.3-0.3-0.5-0.5-0.5-0.5c-0.1,0-0.2,0-0.2,0.1   c0,0.1,0,0.2,0.1,0.2C19.4,48.5,19.6,48.5,19.9,48.8z"/>
	<path fill="#000000" d="M19.6,49.5c0.1,0,0.1,0,0.2,0c0,0,0-0.1,0-0.2c-0.3-0.3-0.4-0.3-0.4-0.3c-0.1,0-0.2,0-0.2,0.1   c0,0.1,0,0.2,0.1,0.2C19.3,49.2,19.4,49.3,19.6,49.5z"/>
	<path fill="#000000" d="M19.3,50c0,0,0.1,0,0.2,0c0,0,0-0.1,0-0.2c0,0-0.2-0.2-0.3-0.2c-0.1,0-0.1,0-0.2,0c0,0.1,0,0.1,0,0.2   C19.1,49.8,19.2,49.9,19.3,50z"/>
	<path fill="#000000" d="M18.9,50.4c0,0,0.1,0,0.1,0c0,0,0-0.1,0-0.1c-0.1-0.1-0.1-0.1-0.1-0.1c0,0-0.1,0-0.2,0c0,0.1,0,0.1,0,0.2   C18.8,50.3,18.8,50.3,18.9,50.4z"/>
	<path fill="#000000" d="M20.5,50.3c0,0.1,0.1,0.1,0.2,0c0.1,0,0.1-0.1,0-0.2c0-0.1-0.1-0.2-0.2-0.2c-0.1,0-0.1,0-0.2,0   c0,0,0,0.1,0,0.2C20.4,50.1,20.5,50.1,20.5,50.3z"/>
	<path fill="#000000" d="M20.1,50.4c0,0,0,0.1,0,0.2c0,0,0.1,0.1,0.1,0.1c0,0,0.1,0.1,0.1,0c0.1,0,0.1-0.1,0-0.1c0,0,0-0.1-0.1-0.1   C20.2,50.3,20.1,50.3,20.1,50.4z"/>
	<path fill="#000000" d="M18.5,38.4c0.1,0,0.4,0,0.8-0.2l0.3-0.1l0.5-0.2c0.3-0.1,0.6,0,0.7,0c0,0-0.1,0-0.1-0.1c0,0,0-0.1,0.1-0.1   c0,0-0.4-0.1-0.8,0l-0.6,0.2L19.2,38c-0.4,0.2-0.6,0.2-0.7,0.2C18.5,38.2,18.5,38.3,18.5,38.4C18.5,38.3,18.5,38.4,18.5,38.4z"/>
	<path fill="#000000" d="M19.3,39.2l0.3-0.1l0.5-0.2c0.3-0.1,0.6,0,0.7,0c0,0,0.1,0,0.1-0.1c0,0,0-0.1-0.1-0.1c0,0-0.4-0.1-0.8,0   l-0.6,0.2L19.2,39c-0.4,0.2-0.6,0.2-0.7,0.2c0,0-0.1,0-0.1,0.1c0,0,0,0.1,0.1,0.1C18.6,39.4,18.9,39.4,19.3,39.2z"/>
	<path fill="#000000" d="M19.3,40.2l0.3-0.1l0.5-0.2c0.3-0.1,0.6,0,0.7,0c0,0,0.1,0,0.1-0.1c0,0,0-0.1-0.1-0.1c0,0-0.4-0.1-0.8,0   l-0.6,0.2l-0.3,0.1c-0.4,0.2-0.6,0.2-0.7,0.2c0,0-0.1,0-0.1,0.1c0,0,0,0.1,0.1,0.1C18.6,40.4,18.9,40.4,19.3,40.2z"/>
	<path fill="#000000" d="M19.3,41.2l0.3-0.1l0.5-0.2c0.3-0.1,0.6,0,0.7,0c0,0-0.1,0-0.1-0.1c0,0,0-0.1,0.1-0.1c0,0-0.4-0.1-0.8,0   l-0.6,0.2l-0.3,0.1c-0.4,0.2-0.6,0.2-0.7,0.2c0,0-0.1,0-0.1,0.1c0,0,0,0.1,0.1,0.1C18.6,41.4,18.9,41.4,19.3,41.2z"/>
	<path fill="#000000" d="M23.4,37.8l0.5,0.2l0.3,0.1c0.4,0.2,0.7,0.2,0.8,0.2c0,0,0.1,0,0.1-0.1c0,0,0-0.1-0.1-0.1   c-0.1,0-0.4,0-0.7-0.2L24,37.9l-0.6-0.2c-0.4-0.1-0.8,0-0.8,0c0,0-0.1,0.1-0.1,0.1c0,0,0,0.1,0.1,0.1   C22.7,37.8,23.1,37.7,23.4,37.8z"/>
	<path fill="#000000" d="M22.6,38.8c0.1,0,0.4-0.1,0.7,0l0.5,0.2l0.3,0.1c0.4,0.2,0.7,0.2,0.8,0.2c0,0,0.1,0,0.1-0.1   c0,0,0-0.1-0.1-0.1c-0.1,0-0.4,0-0.7-0.2L24,38.9l-0.6-0.2c-0.4-0.1-0.8,0-0.8,0C22.6,38.7,22.5,38.7,22.6,38.8   C22.6,38.8,22.6,38.8,22.6,38.8z"/>
	<path fill="#000000" d="M23.4,39.9l0.5,0.2l0.3,0.1c0.4,0.2,0.7,0.2,0.8,0.2c0,0,0.1,0,0.1-0.1c0,0,0-0.1-0.1-0.1   c-0.1,0-0.4,0-0.7-0.2L24,39.9l-0.6-0.2c-0.3-0.1-0.7,0-0.8,0c0,0-0.1,0.1-0.1,0.1c0,0,0,0.1,0.1,0.1   C22.7,39.8,23.1,39.8,23.4,39.9z"/>
	<path fill="#000000" d="M23.9,41.1l0.3,0.1c0.4,0.2,0.7,0.2,0.8,0.2c0,0,0.1,0,0.1-0.1c0,0,0-0.1-0.1-0.1c-0.1,0-0.4,0-0.7-0.2   L24,40.9l-0.6-0.2c-0.3-0.1-0.7-0.1-0.8,0c0,0-0.1,0-0.1,0.1c0,0,0,0.1,0.1,0.1c0.1,0,0.4-0.1,0.7,0L23.9,41.1z"/>
	<path fill="#000000" d="M4.7,38.4c0.1,0,0.4,0,0.8-0.2L5.8,38l0.5-0.2c0.3-0.1,0.6,0,0.7,0c0,0-0.1,0-0.1-0.1c0,0,0-0.1,0.1-0.1   c0,0-0.4-0.1-0.8,0l-0.6,0.2L5.4,38c-0.4,0.2-0.6,0.2-0.7,0.2C4.7,38.2,4.6,38.3,4.7,38.4C4.7,38.3,4.7,38.4,4.7,38.4z"/>
	<path fill="#000000" d="M5.5,39.2L5.8,39l0.5-0.2c0.3-0.1,0.6,0,0.7,0c0,0,0.1,0,0.1-0.1c0,0,0-0.1-0.1-0.1c0,0-0.4-0.1-0.8,0   l-0.6,0.2L5.4,39c-0.4,0.2-0.6,0.2-0.7,0.2c0,0-0.1,0-0.1,0.1c0,0,0,0.1,0.1,0.1C4.8,39.4,5.1,39.4,5.5,39.2z"/>
	<path fill="#000000" d="M5.5,40.2l0.3-0.1l0.5-0.2c0.3-0.1,0.6,0,0.7,0c0,0,0.1,0,0.1-0.1c0,0,0-0.1-0.1-0.1c0,0-0.4-0.1-0.8,0   l-0.6,0.2l-0.3,0.1c-0.4,0.2-0.6,0.2-0.7,0.2c0,0-0.1,0-0.1,0.1c0,0,0,0.1,0.1,0.1C4.8,40.4,5.1,40.4,5.5,40.2z"/>
	<path fill="#000000" d="M5.5,41.2l0.3-0.1l0.5-0.2c0.3-0.1,0.6,0,0.7,0c0,0-0.1,0-0.1-0.1c0,0,0-0.1,0.1-0.1c0,0-0.4-0.1-0.8,0   l-0.6,0.2l-0.3,0.1c-0.3,0.2-0.6,0.2-0.7,0.2c0,0-0.1,0-0.1,0.1c0,0,0,0.1,0.1,0.1C4.8,41.4,5.1,41.4,5.5,41.2z"/>
	<path fill="#000000" d="M8.8,37.8c0.1,0,0.4-0.1,0.7,0l0.5,0.2l0.3,0.1c0.4,0.2,0.7,0.2,0.8,0.2c0,0,0.1,0,0.1-0.1   c0,0,0-0.1-0.1-0.1c-0.1,0-0.4,0-0.7-0.2l-0.3-0.1l-0.6-0.2c-0.4-0.1-0.8,0-0.8,0C8.9,37.6,8.9,37.7,8.8,37.8   C8.9,37.8,8.9,37.8,8.8,37.8z"/>
	<path fill="#000000" d="M8.8,38.8c0.1,0,0.4-0.1,0.7,0l0.5,0.2l0.3,0.1c0.4,0.2,0.7,0.2,0.8,0.2c0,0,0.1,0,0.1-0.1   c0,0,0-0.1-0.1-0.1c-0.1,0-0.4,0-0.7-0.2l-0.3-0.1l-0.6-0.2c-0.4-0.1-0.8,0-0.8,0C8.8,38.7,8.7,38.7,8.8,38.8   C8.8,38.8,8.8,38.8,8.8,38.8z"/>
	<path fill="#000000" d="M9.6,39.9l0.5,0.2l0.3,0.1c0.4,0.2,0.7,0.2,0.8,0.2c0,0,0.1,0,0.1-0.1c0,0,0-0.1-0.1-0.1   c-0.1,0-0.4,0-0.7-0.2l-0.3-0.1l-0.6-0.2c-0.4-0.1-0.8,0-0.8,0c0,0-0.1,0.1-0.1,0.1c0,0,0,0.1,0.1,0.1C8.9,39.8,9.3,39.8,9.6,39.9z   "/>
	<path fill="#000000" d="M10.1,41.1l0.3,0.1c0.4,0.2,0.7,0.2,0.8,0.2c0,0,0.1,0,0.1-0.1c0,0,0-0.1-0.1-0.1c-0.1,0-0.4,0-0.7-0.2   l-0.3-0.1l-0.6-0.2c-0.4-0.1-0.8,0-0.8,0c0,0,0.1,0,0.1,0.1c0,0,0,0.1-0.1,0.1c0.1,0,0.4-0.1,0.7,0L10.1,41.1z"/>
	<path fill="#000000" d="M14.8,32.1c-2.2,0-4.5,0.5-4.5,1.5c0,0.4,0.5,0.8,1.2,1c0.1,0,0.3,0.1,0.3,0c0,0-0.3-0.1-0.3-0.1   c-0.7-0.3-0.9-0.7-0.9-1c0-0.5,1.8-1.1,4.1-1.1c2.4,0,4.1,0.6,4.1,1.1c0,0.3-0.2,0.7-0.9,1c0,0-0.3,0.1-0.3,0.1c0,0,0.3,0,0.3,0   c0.7-0.2,1.2-0.6,1.2-1C19.3,32.6,17,32.1,14.8,32.1z"/>
	<path fill="#000000" d="M20,30.4c-0.2,0.3-0.6,1-0.7,1.2c0,0,0,0,0,0s0,0,0,0c-0.2-0.1-0.4-0.2-0.7-0.3c-0.9-0.4-2.3-0.6-3.7-0.6h0   c-1.4,0-2.8,0.2-3.7,0.6c-0.3,0.1-0.5,0.2-0.7,0.3c0,0,0,0,0,0s0,0,0,0c0-0.2-0.5-1-0.7-1.2c-0.1-0.1-0.1,0-0.1,0.1   c0.3,0.6,0.4,1.2,0.5,1.4c0,0.1,0,0.2,0.1,0.2c0,0,0.1,0,0.2,0c0.2-0.1,0.5-0.3,0.9-0.4c0.9-0.3,2.2-0.5,3.6-0.5h0   c1.4,0,2.7,0.2,3.6,0.5c0.4,0.2,0.7,0.3,0.9,0.4c0.1,0,0.1,0,0.2,0c0.1,0,0.1-0.1,0.1-0.2C19.7,31.7,19.8,31.2,20,30.4   C20.1,30.4,20.1,30.4,20,30.4z"/>
	<path fill="#000000" d="M15.2,31.6c0-0.2-0.1-0.3-0.3-0.3c-0.2,0-0.3,0.1-0.3,0.3c0,0.2,0.1,0.3,0.3,0.3   C15,31.9,15.2,31.8,15.2,31.6z"/>
	<circle fill="#000000" cx="12.7" cy="31.8" r="0.3"/>
	<path fill="#000000" d="M10.8,32.7c0.1-0.1,0.2-0.3,0.1-0.4c-0.1-0.1-0.3-0.2-0.4-0.1c-0.1,0.1-0.2,0.3-0.1,0.4   C10.5,32.8,10.7,32.8,10.8,32.7z"/>
	<path fill="#000000" d="M11.8,32c0-0.1-0.1-0.2-0.2-0.2c-0.1,0-0.2,0.1-0.2,0.2c0,0.1,0.1,0.2,0.2,0.2C11.8,32.2,11.8,32.1,11.8,32   z"/>
	<path fill="#000000" d="M13.9,31.7c0-0.1-0.1-0.2-0.2-0.2c-0.1,0-0.2,0.1-0.2,0.2c0,0.1,0.1,0.2,0.2,0.2   C13.9,31.8,13.9,31.8,13.9,31.7z"/>
	<circle fill="#000000" cx="17" cy="31.8" r="0.3"/>
	<path fill="#000000" d="M18.8,32.3c-0.1,0.1,0,0.3,0.1,0.4c0.1,0.1,0.3,0,0.4-0.1c0.1-0.1,0-0.3-0.1-0.4   C19.1,32.1,18.9,32.2,18.8,32.3z"/>
	<path fill="#000000" d="M18.2,32c0-0.1-0.1-0.2-0.2-0.2c-0.1,0-0.2,0.1-0.2,0.2c0,0.1,0.1,0.2,0.2,0.2C18.2,32.2,18.2,32.1,18.2,32   z"/>
	<path fill="#000000" d="M16.1,31.7c0-0.1-0.1-0.2-0.2-0.2c-0.1,0-0.2,0.1-0.2,0.2c0,0.1,0.1,0.2,0.2,0.2   C16,31.8,16.1,31.8,16.1,31.7z"/>
	<circle fill="#000000" cx="14.9" cy="28.2" r="0.3"/>
	<circle fill="#000000" cx="14.9" cy="27.3" r="0.3"/>
	<path fill="#000000" d="M14.9,26.2c-0.2,0-0.3,0.1-0.3,0.3c0,0.2,0.1,0.3,0.3,0.3c0.2,0,0.3-0.1,0.3-0.3   C15.2,26.3,15,26.2,14.9,26.2z"/>
	<path fill="#000000" d="M13.4,26.9c0.2,0,0.3-0.1,0.3-0.3c0-0.2-0.1-0.3-0.3-0.3c-0.2,0-0.3,0.1-0.3,0.3   C13.1,26.7,13.2,26.9,13.4,26.9z"/>
	<path fill="#000000" d="M12.3,26.5c0.2,0,0.3-0.1,0.3-0.3c0-0.2-0.1-0.3-0.3-0.3c-0.2,0-0.3,0.1-0.3,0.3   C12,26.4,12.2,26.5,12.3,26.5z"/>
	<path fill="#000000" d="M11.3,26.3c0.2,0,0.3-0.1,0.3-0.3c0-0.2-0.1-0.3-0.3-0.3c-0.2,0-0.3,0.1-0.3,0.3   C11,26.1,11.1,26.3,11.3,26.3z"/>
	<circle fill="#000000" cx="10.2" cy="26.1" r="0.3"/>
	<path fill="#000000" d="M9.3,27c0.2,0,0.3-0.1,0.3-0.3c0-0.2-0.1-0.3-0.3-0.3c-0.2,0-0.3,0.1-0.3,0.3C9,26.9,9.1,27,9.3,27z"/>
	<circle fill="#000000" cx="8.8" cy="27.6" r="0.3"/>
	<path fill="#000000" d="M9.1,28.7c0-0.2-0.1-0.3-0.3-0.3c-0.2,0-0.3,0.1-0.3,0.3c0,0.2,0.1,0.3,0.3,0.3C9,29,9.1,28.9,9.1,28.7z"/>
	<path fill="#000000" d="M9.2,29.4c-0.2,0-0.3,0.1-0.3,0.3c0,0.2,0.1,0.3,0.3,0.3c0.2,0,0.3-0.1,0.3-0.3C9.5,29.6,9.3,29.4,9.2,29.4   z"/>
	<path fill="#000000" d="M18.4,33.9c0-0.8-2.3-1-3.6-1c-1.2,0-3.6,0.2-3.6,1c0,0.8,2.4,0.9,3.6,0.9C16.1,34.8,18.4,34.6,18.4,33.9z    M14.8,34.5c-2.1,0-3.3-0.4-3.3-0.6c0-0.2,1.1-0.6,3.3-0.6c2.1,0,3.2,0.4,3.2,0.6C18.1,34.1,17,34.5,14.8,34.5z"/>
	<path fill="#000000" d="M14.4,25.5h0.3v0.3c0,0.1,0.1,0.2,0.2,0.2c0.1,0,0.2-0.1,0.2-0.2v-0.3h0.3c0.1,0,0.2-0.1,0.2-0.2   c0-0.1-0.1-0.2-0.2-0.2H15v-0.3c0-0.1-0.1-0.2-0.2-0.2c-0.1,0-0.2,0.1-0.2,0.2v0.3h-0.3c-0.1,0-0.2,0.1-0.2,0.2   C14.2,25.4,14.3,25.5,14.4,25.5z"/>
	<path fill="#000000" d="M10.3,30.6L10.3,30.6L10.3,30.6L10.3,30.6c0.2,0.3,0.6,0.6,1,0.4c0.3-0.1,0.5-0.1,0.7-0.4   c0.1-0.2,0.1-0.4,0-0.6c0-0.1-0.2-0.1-0.2-0.1c0,0-0.1,0.1,0,0.2c0.1,0.1,0,0.3-0.1,0.3c-0.1,0.1-0.2,0-0.2,0c0,0,0.2-0.1,0-0.3   c-0.1-0.1-0.5-0.4,0-0.6c0.4-0.2,0.6,0.3,0.7,0.4c0,0.1,0.1,0,0.1,0c-0.1-0.3-0.4-0.5-0.4-0.8c-0.1-0.3,0.1-0.5,0.2-0.6   c0,0,0.1,0,0.2,0c0.1,0.1,0.4,0.2,0.4,0.5c0.1,0.4-0.1,0.6-0.1,0.9c0,0.1,0.1,0.1,0.1,0c0-0.1,0.1-0.6,0.5-0.6   c0.5,0,0.3,0.4,0.2,0.6c-0.1,0.2,0.1,0.2,0.1,0.2c0,0-0.1,0.1-0.2,0.1c-0.2,0-0.3-0.2-0.2-0.3c0-0.1,0-0.2-0.1-0.2   c-0.1,0-0.2,0.1-0.2,0.2c-0.1,0.3,0.1,0.4,0.2,0.5c0.3,0.2,0.6,0.2,0.8,0.2c0.7-0.1,0.7-0.5,0.7-0.5c-0.1,0.1-0.5,0.2-0.5,0.2   c0,0,0,0,0,0c-0.1,0-0.1,0-0.1-0.1v-0.7c0-0.1,0.1-0.1,0.1-0.1c0,0,0,0,0,0l0.5,0.2l-0.1-0.4c0,0,0,0,0,0c0-0.1,0-0.1,0.1-0.1   l0.4,0l0.4,0c0.1,0,0.1,0.1,0.1,0.1c0,0,0,0,0,0l-0.1,0.4l0.5-0.2c0,0,0,0,0,0c0.1,0,0.1,0,0.1,0.1v0.7c0,0.1,0,0.1-0.1,0.1   c0,0,0,0,0,0c0,0-0.3-0.1-0.5-0.2c0,0,0,0.4,0.7,0.5c0.2,0,0.6,0,0.8-0.2c0.1-0.1,0.3-0.3,0.2-0.5c0-0.1-0.1-0.2-0.2-0.2   c0,0-0.1,0.1-0.1,0.2c0,0.1-0.1,0.3-0.2,0.3c-0.1,0-0.2-0.1-0.2-0.1c0,0,0.2,0,0.1-0.2c-0.1-0.1-0.3-0.6,0.2-0.6   c0.4,0,0.5,0.5,0.5,0.6c0,0.1,0,0.1,0.1,0c0.1-0.3-0.2-0.6-0.1-0.9c0.1-0.3,0.3-0.4,0.4-0.5c0.1,0,0.1,0,0.2,0   c0.1,0.1,0.3,0.3,0.2,0.6c-0.1,0.4-0.4,0.5-0.4,0.8c0,0.1,0,0.1,0.1,0c0-0.1,0.3-0.5,0.7-0.4c0.5,0.2,0.1,0.5,0,0.6   c-0.2,0.1,0,0.3,0,0.3c0,0-0.1,0.1-0.2,0c-0.1-0.1-0.2-0.2-0.1-0.3c0.1-0.1,0-0.2,0-0.2c-0.1,0-0.2,0-0.2,0.1   c-0.2,0.2-0.1,0.4,0,0.6c0.2,0.3,0.4,0.3,0.7,0.4c0.5,0.2,0.9-0.1,1-0.4v0l0,0l0,0c0.3-0.4,1.1-1.5,1.1-2.4c0-0.9-0.8-1.6-1.9-1.6   c-0.5,0-0.9,0.2-1.4,0.3c-0.5,0.2-0.9,0.3-1.4,0.3v-1c0-0.1-0.1-0.2-0.2-0.2c-0.1,0-0.2,0.1-0.2,0.2v2.5h-1.2v-2.5   c0-0.1-0.1-0.2-0.2-0.2c-0.1,0-0.2,0.1-0.2,0.2v1c-0.5,0-0.9-0.1-1.4-0.3c-0.4-0.2-0.9-0.3-1.4-0.3c-1.1,0-1.9,0.7-1.9,1.6   C9.2,29.1,10,30.1,10.3,30.6z M17.3,27.1c0.4-0.2,0.8-0.3,1.3-0.3c0.9,0,1.6,0.6,1.6,1.3c0,0.2-0.1,0.5-0.2,0.8   c0-0.2-0.1-0.3-0.2-0.5c-0.3-0.4-0.8-0.6-1.4-0.6c-0.3-0.3-0.8-0.5-1.4-0.5c0,0-0.1,0-0.1,0C17,27.3,17.2,27.2,17.3,27.1z    M15.8,27.5c0.1,0,0.2,0,0.3,0c-0.1,0-0.2,0.1-0.3,0.2V27.5z M15.8,28.1C15.8,28.1,15.8,28.1,15.8,28.1c0.3-0.4,0.9-0.4,1.1-0.4   c0.6,0,1.1,0.2,1.2,0.5c0,0,0.1,0.1,0.1,0.1c0.6,0,0.9,0.1,1.2,0.4c0.3,0.3,0.2,0.8,0.2,1c0,0,0,0,0,0c-0.1,0.1-0.1,0.2-0.2,0.3   c0.1-0.6-0.3-1-0.7-1.2c0,0-0.1-0.1-0.2,0c-0.1,0.1,0.7,0.7,0.5,1.4c-0.1,0.4-0.4,0.6-0.5,0.6c0,0,0,0-0.1,0   c0.1-0.1,0.1-0.2,0.1-0.3c0,0,0-0.1,0-0.1c0,0,0,0,0,0c0.1-0.1,0.2-0.3,0.2-0.5c0,0,0,0,0-0.1c0-0.2-0.1-0.4-0.4-0.5   c0,0-0.1,0-0.1,0c0,0,0,0,0-0.1c0-0.1,0-0.1,0-0.2c0-0.4-0.3-0.7-0.5-0.8c0,0-0.1-0.1-0.3-0.1c-0.2,0.1-0.7,0.3-0.8,0.8   c0,0,0,0,0,0.1c0,0-0.1,0-0.1,0c-0.2,0-0.4,0.1-0.5,0.2c0-0.1-0.1-0.2-0.2-0.1c0.1-0.1,0.2-0.3,0.4-0.4c0.2-0.2,0.5-0.3,0.5-0.3   c0,0-0.1-0.1-0.2-0.1c-0.1,0-0.3,0.1-0.3,0.1c-0.2,0.1-0.4,0.2-0.5,0.4V28.1z M13.9,27.5v0.2c-0.1-0.1-0.2-0.1-0.3-0.2   C13.7,27.5,13.8,27.5,13.9,27.5z M13.9,28.1C13.9,28.1,13.9,28.1,13.9,28.1l0,0.4c-0.1-0.1-0.3-0.3-0.5-0.4c-0.1,0-0.2-0.1-0.3-0.1   c-0.1,0-0.2,0-0.2,0.1c0,0,0.3,0.1,0.5,0.3c0.2,0.1,0.3,0.3,0.4,0.4c-0.1,0-0.2,0-0.2,0.1c-0.1-0.1-0.3-0.2-0.5-0.2   c0,0-0.1,0-0.1,0c0,0,0,0,0-0.1c-0.1-0.5-0.6-0.7-0.8-0.8c-0.2,0-0.3,0.1-0.3,0.1c-0.2,0.1-0.5,0.5-0.5,0.8c0,0.1,0,0.1,0,0.2   c0,0,0,0,0,0.1c0,0-0.1,0-0.1,0c-0.3,0.1-0.4,0.4-0.4,0.5c0,0,0,0,0,0.1c0,0.2,0.1,0.4,0.2,0.5c0,0,0,0,0,0c0,0,0,0.1,0,0.1   c0,0.1,0.1,0.2,0.1,0.3c0,0,0,0-0.1,0c-0.2-0.1-0.4-0.2-0.5-0.6c-0.2-0.7,0.6-1.3,0.5-1.4c0-0.1-0.2,0-0.2,0   c-0.4,0.2-0.8,0.6-0.7,1.2c-0.1-0.1-0.1-0.2-0.2-0.3c0,0,0,0,0,0c-0.1-0.2-0.1-0.7,0.2-1c0.2-0.3,0.6-0.4,1.2-0.4   c0.1,0,0.1,0,0.1-0.1c0.2-0.2,0.6-0.4,1.2-0.5C13.1,27.7,13.6,27.7,13.9,28.1z M11.2,26.8c0.4,0,0.8,0.1,1.2,0.3   c0.2,0.1,0.3,0.1,0.5,0.2c0,0-0.1,0-0.1,0c-0.6,0-1.1,0.2-1.4,0.5c-0.6,0-1.1,0.2-1.4,0.6c-0.1,0.2-0.2,0.3-0.2,0.5   c-0.1-0.3-0.2-0.5-0.2-0.8C9.6,27.4,10.3,26.8,11.2,26.8z"/>
	<path fill="#000000" d="M16.4,26.9c0.2,0,0.3-0.1,0.3-0.3c0-0.2-0.1-0.3-0.3-0.3c-0.2,0-0.3,0.1-0.3,0.3   C16.1,26.7,16.2,26.9,16.4,26.9z"/>
	<circle fill="#000000" cx="17.4" cy="26.2" r="0.3"/>
	<path fill="#000000" d="M18.4,26.3c0.2,0,0.3-0.1,0.3-0.3c0-0.2-0.1-0.3-0.3-0.3c-0.2,0-0.3,0.1-0.3,0.3   C18.1,26.1,18.3,26.3,18.4,26.3z"/>
	<path fill="#000000" d="M19.5,26.4c0.2,0,0.3-0.1,0.3-0.3c0-0.2-0.1-0.3-0.3-0.3c-0.2,0-0.3,0.1-0.3,0.3   C19.2,26.3,19.3,26.4,19.5,26.4z"/>
	<path fill="#000000" d="M20.4,27c0.2,0,0.3-0.1,0.3-0.3c0-0.2-0.1-0.3-0.3-0.3c-0.2,0-0.3,0.1-0.3,0.3C20.1,26.9,20.3,27,20.4,27z"/>
	<path fill="#000000" d="M21,27.3c-0.2,0-0.3,0.1-0.3,0.3c0,0.2,0.1,0.3,0.3,0.3c0.2,0,0.3-0.1,0.3-0.3C21.3,27.5,21.1,27.3,21,27.3   z"/>
	<path fill="#000000" d="M21,28.4c-0.2,0-0.3,0.1-0.3,0.3c0,0.2,0.1,0.3,0.3,0.3c0.2,0,0.3-0.1,0.3-0.3C21.3,28.6,21.1,28.4,21,28.4   z"/>
	<path fill="#000000" d="M20.6,29.4c-0.2,0-0.3,0.1-0.3,0.3c0,0.2,0.1,0.3,0.3,0.3c0.2,0,0.3-0.1,0.3-0.3   C20.9,29.6,20.7,29.4,20.6,29.4z"/>
	<path fill="#000000" d="M4.3,11.8c-0.1,0.1-0.1,0.2-0.1,0.3c0,0.1,0,0.2,0.2,0.3c0.4,0.4,0.8,0.1,1,0l0,0c0,0.1,0,0.1,0,0.2   c0,0,0,0.1,0,0.1c0,0-0.1,0-0.1,0c-0.2,0-0.4,0.1-0.5,0.3c0,0.1-0.1,0.1-0.1,0.2c0,0.1,0,0.1,0,0.2c0.2,0.5,0.6,0.4,0.9,0.4   c0,0,0,0,0.1,0c0,0,0,0,0,0c0,0.1,0,0.3,0.2,0.5c0.4,0.4,1-0.1,1.2-0.3l0,0c0,0,0.1,0.1,0.1,0.1c0,0.1,0.1,0.2,0.1,0.2h0   c0,0,0,0,0,0C7.3,14.6,7,14.9,7,15.3c0,0.1,0,0.2,0.1,0.4c0.2,0.3,0.7,0.1,1-0.1c0,0,0.2-0.1,0.2-0.1c0,0,0,0,0,0   c0,0.1,0.1,0.5,0.6,0.4c0.5-0.1,0.7-0.5,0.8-0.8c0-0.1,0.1-0.2,0.1-0.2c0,0.1,0.2,0.2,0.2,0.2l0.2,0c0.3-0.2,0.5-0.9,0.6-1.2   c0.7,0.3,1.3,1.3,1.4,1.5c0.1,0.2,0.3,0.5,0.7,1.1c0.2,0.3,0.5,0.8,0.5,0.9c-0.1,0.9-0.6,1.6-1.2,2L12,19.4   c-0.6,0.3-1.5,0.8-1.9,1.1c0,0-0.1,0-0.1,0c-0.4,0-0.6,0.1-0.7,0.2c-0.2-0.1-0.5-0.2-0.7-0.2c-0.7,0-1,0.3-1.1,0.6   c-0.2,0.4-0.2,1,0,1.2c0.2,0.4,0.6,0.5,1.1,0.5c0.3,0,0.5-0.1,0.7-0.2c0.1,0.1,0.3,0.2,0.7,0.2c0.4,0,0.6-0.1,0.7-0.2   c0.2,0.1,0.4,0.2,0.6,0.2c0.3,0,0.5-0.1,0.6-0.2c0.1,0.1,0.3,0.1,0.6,0.1c0.3,0,0.5-0.1,0.7-0.2c0.2,0.1,0.4,0.2,0.6,0.2   c0.3,0,0.5-0.1,0.6-0.2c0.1,0.1,0.3,0.1,0.6,0.1c0.3,0,0.5-0.1,0.7-0.2c0.2,0.1,0.4,0.2,0.6,0.2c0.3,0,0.5-0.1,0.6-0.2   c0.1,0.1,0.3,0.1,0.6,0.1c0.3,0,0.5-0.1,0.7-0.2c0.2,0.1,0.4,0.2,0.6,0.2c0.3,0,0.5-0.1,0.6-0.2c0.1,0.1,0.3,0.1,0.6,0.1   c0.4,0,0.6-0.1,0.7-0.2c0.2,0.1,0.5,0.2,0.8,0.2c0.5,0,0.9-0.2,1.1-0.6c0.2-0.4,0.1-0.9,0-1.2c-0.3-0.4-0.6-0.5-1.1-0.5   c-0.3,0-0.5,0.1-0.7,0.2c-0.1-0.1-0.3-0.1-0.5-0.1c-0.2-0.4-0.5-0.5-1.5-1l-0.1-0.1c-1.1-0.5-1.4-0.9-1.6-1.3l0-0.1   c-0.2-0.3-0.6-2.3,0.2-3.5c0.5-0.7,1-1,1.3-1.1c0.1,0.3,0.2,0.8,0.3,1l0.3,0.1c0,0,0.1,0,0.1-0.1c0,0.1,0,0.1,0,0.1   c0.1,0.3,0.3,0.8,0.7,0.8c0.3,0,0.4-0.1,0.5-0.2c0.2,0.2,0.4,0.4,0.7,0.4c0.3,0,0.4-0.2,0.5-0.3c0.2,0.1,0.6,0.2,0.8-0.2   c0.1-0.1,0.1-0.2,0.1-0.3c0-0.2-0.2-0.4-0.3-0.5c0,0,0,0,0,0c0.1-0.1,0.1-0.2,0.2-0.3c0.1,0,0.2,0,0.3-0.1c0.2-0.1,0.2-0.3,0.2-0.4   c0,0,0,0,0,0c0.2,0,0.5,0.1,0.7-0.3c0-0.1,0-0.1,0-0.2c0.2-0.1,0.2-0.2,0.3-0.3c0.2,0.1,0.5,0.2,0.8,0.1c0.2-0.1,0.3-0.4,0.3-0.6   c0.2,0,0.5,0.1,0.7-0.1c0.1-0.1,0.2-0.2,0.2-0.4c0,0,0-0.1,0-0.1c0-0.6-0.7-0.7-0.9-0.7c0-0.1,0-0.1,0-0.2c0-0.1,0-0.3-0.2-0.4   c-0.4-0.4-0.9,0-1.2,0.2c0-0.1-0.1-0.2-0.2-0.3c0,0,0-0.1,0-0.2c0-0.2-0.2-0.3-0.4-0.4l0,0c0.3,0,0.7,0,0.8-0.4l0-0.2   c0,0,0.3,0,0.3,0c0.4,0.1,1,0.2,1.2-0.2c0-0.1,0-0.1,0-0.2c0-0.1-0.1-0.3-0.1-0.4c0,0,0,0,0-0.1c0.2-0.1,0.6-0.3,0.6-0.8   c0-0.1,0-0.2-0.1-0.4c-0.2-0.5-0.7-0.3-0.9-0.2c0,0,0,0-0.1,0c0,0,0,0,0,0c0,0,0-0.1,0-0.1c0-0.1,0-0.2-0.1-0.3   c-0.1-0.1-0.1-0.1-0.2-0.2c0.1-0.1,0.2-0.3,0.2-0.5c0-0.1,0-0.2-0.1-0.3c-0.1-0.1-0.2-0.2-0.3-0.3c-0.3-0.1-0.7,0-0.9,0.1   c0,0,0-0.1-0.1-0.1c0-0.1,0-0.1,0-0.2c0-0.1,0-0.3-0.1-0.4c0.2-0.1,0.4-0.3,0.5-0.6c0,0,0-0.1,0-0.1c0-0.1,0-0.2-0.1-0.3   c-0.3-0.4-0.8-0.2-1-0.2c0,0,0,0,0,0c-0.1-0.1-0.2-0.3-0.4-0.4c-0.3-0.1-0.6,0.2-0.8,0.4c0,0-0.1,0-0.1,0.1c0,0,0,0,0,0l-0.3-0.2   c-0.3-0.1-0.6,0.4-0.7,0.6c0,0,0,0,0,0c-0.1-0.1-0.1-0.1-0.2-0.2c0,0,0,0,0,0C20,4,20.3,3.7,20.3,3.5c0,0,0,0,0,0   c0-0.2-0.1-0.3-0.2-0.4c-0.2-0.2-0.4-0.3-0.6-0.3c-0.3,0-0.6,0.3-0.8,0.5c0,0,0,0,0,0c0-0.1,0-0.1-0.1-0.2c0-0.1,0-0.1,0-0.2   c0-0.1,0-0.2,0-0.2c0-0.1-0.1-0.1-0.1-0.1C18.7,2.4,19,2.2,19,1.9c0-0.1,0-0.1-0.1-0.2c-0.2-0.3-0.4-0.4-0.5-0.4c0,0,0,0,0,0   c0-0.1,0-0.2,0-0.3c0-0.3-0.1-0.6-0.4-0.7c-0.4-0.1-0.7,0.3-0.9,0.5c0,0,0,0,0,0.1c-0.1-0.1-0.3-0.2-0.5-0.2   c-0.1-0.2-0.3-0.3-0.5-0.3c-0.4-0.1-0.6,0.5-0.7,0.8c0,0,0,0.1-0.1,0.2c0,0-0.1,0-0.1,0c-0.1,0-0.3-0.1-0.5,0   c-0.2,0.1-0.2,0.2-0.2,0.4c0,0.3,0.2,0.6,0.3,0.8c0,0,0,0.1,0,0.1c-0.2,0-0.4,0.1-0.4,0.2c0,0.1-0.1,0.1-0.1,0.2c0,0,0-0.1-0.1-0.1   c0.1-0.3,0.2-1.2,0-1.5c-0.1-0.1-0.1-0.1-0.2-0.1c0,0-0.1,0-0.1,0c0-0.3-0.1-0.8-0.4-0.9c-0.3-0.1-0.4,0-0.5,0.1   c-0.2-0.3-0.6-0.8-1.1-0.5c-0.2,0.1-0.3,0.3-0.3,0.5c0,0.2,0.1,0.5,0.2,0.7c0,0,0,0,0,0c-0.2,0-0.4,0.1-0.5,0.4c0,0,0,0.1,0,0.1   c0,0,0,0,0,0c-0.3-0.2-0.6-0.3-1,0C10,1.9,9.9,2.1,9.9,2.3c0,0.3,0.2,0.6,0.3,0.8C10,3.1,9.8,3.2,9.8,3.5c0,0,0,0.1,0,0.1   c0,0.5,0.6,0.7,0.9,0.8c0,0,0,0,0.1,0c0,0,0,0,0,0c0,0-0.2,0.1-0.3,0.1c0,0-0.1-0.1-0.1-0.1C10.1,4.3,9.5,4,9,4.5   C8.9,4.6,8.9,4.7,8.9,4.8c0,0.3,0.2,0.5,0.3,0.6c0,0,0.1,0.1,0.1,0.1c0,0-0.1,0.1-0.1,0.1L9.1,6.1c0,0,0,0.1,0,0.1c0,0,0,0-0.1,0.1   c0-0.1,0-0.2,0-0.2c0-0.3,0-0.7-0.4-0.8C8.4,5.1,8.3,5.3,8.2,5.4c0,0,0,0,0,0C8.2,5,8.1,4.4,7.6,4.4c-0.2,0-0.4,0.2-0.4,0.4   c0,0,0,0,0,0c0,0,0,0,0,0C7,4.7,6.8,4.4,6.4,4.5C6.1,4.6,6.1,4.9,6.1,5.1c0,0.2,0,0.3,0.1,0.4c0,0,0,0,0,0.1c0,0,0,0,0,0   C5.9,5.7,5.8,5.8,5.7,6c0,0.1,0,0.1,0,0.2c0,0.4,0.4,0.6,0.8,0.8C6.3,7,6.2,7.1,6.2,7.1C6,7.1,5.8,7,5.6,7.1   C5.3,7.2,5.3,7.4,5.3,7.6c0,0,0,0,0,0.1C5.1,7.6,4.7,7.5,4.5,8C4.4,8.1,4.4,8.2,4.4,8.3c0,0.1,0,0.2,0.1,0.3C4.6,8.9,4.9,9,5.2,9.1   C5.1,9.2,5.1,9.2,5.1,9.3l0.1,0.4C5.4,10,5.7,9.8,6,9.7c0.3-0.1,0.4-0.1,0.4,0c0,0-0.1,0.1-0.2,0.2c-0.1,0-0.1,0-0.2,0   c-0.2,0-0.3,0.2-0.4,0.3c-0.2-0.2-0.5-0.5-0.9-0.4c-0.3,0.1-0.3,0.3-0.3,0.4c0,0.1,0,0.2,0,0.2v0c0,0,0,0,0,0c-0.2,0-0.5-0.1-0.7,0   c-0.1,0.1-0.2,0.2-0.2,0.4c0,0,0,0.1,0,0.1C3.5,11.6,4,11.7,4.3,11.8z M7.4,13.7c0,0.1-0.1,0.1-0.1,0.2l0,0c0,0-0.1-0.1-0.1-0.1   L7,13.9c-0.2,0.1-0.6,0.5-0.8,0.3c-0.1-0.1-0.1-0.1-0.1-0.2L6,13.6l-0.3-0.1c-0.3,0-0.5,0-0.5-0.2c0,0,0-0.1,0-0.1   c0-0.1,0.2-0.1,0.3-0.1l0.3-0.2l0-0.4l0-0.2c0.1-0.1,0.3,0,0.5,0.2c0.2,0.1,0.3,0.2,0.5,0.1c0.1-0.1,0.1-0.3,0.1-0.5   c0-0.1,0-0.2,0-0.3c0.1-0.1,0.4-0.1,0.5,0c0,0,0,0,0,0c0.1,0.1,0.3,0.2,0.4,0.3c-0.1,0.2,0,0.4,0.2,0.6C8,12.8,8.1,12.9,8.2,13   C8.1,13,8.1,13.1,8,13.2c0,0,0,0,0,0c0,0.1,0,0.1,0,0.1C7.9,13.4,7.6,13.4,7.4,13.7z M8.5,7.3C8.5,7.3,8.5,7.3,8.5,7.3   C8.5,7.3,8.5,7.3,8.5,7.3l0.2,0l0.1,0c0.2,0,0.6-0.1,1.1,0c0,0.2-0.3,0.8-0.6,1.2C9.1,8.6,9.1,8.6,9.1,8.6c0,0,0,0,0,0   c-0.4-0.2-0.5-0.7-0.5-1c0,0,0,0,0,0L8.5,7.3z M8.8,8.8c0,0.3,0.2,0.4,0.4,0.5c0.4,0.2,1,0.1,1.3-0.1c0.1,0.1,0.2,0.3,0.3,0.3   c0,0,0,0,0,0c0,0-0.1,0.1-0.1,0.1c-0.1,0.1-0.1,0.2-0.1,0.3c0,0,0,0,0,0.1c-0.1,0-0.1,0.1-0.2,0.2c-0.1-0.3-0.3-0.5-0.6-0.5   c-0.2,0-0.3,0.1-0.4,0.3C9.3,9.9,9,9.7,8.7,9.8c-0.1,0-0.1,0-0.2,0.1C8.3,9.7,8.1,9.7,7.9,9.8c0,0,0-0.1,0-0.1c0,0-0.2-0.2-0.2-0.2   C7.5,9.3,7.4,9.2,7.4,9c0-0.1,0.2-0.2,0.3-0.2c0,0,0.1,0,0.1,0l0.3-0.1l0.1-0.2c0-0.1,0-0.2,0.1-0.2C8.5,8.5,8.6,8.7,8.8,8.8z    M11.1,8.4c0-0.3,0-0.6,0.3-0.7l0.1,0c0.1,0.1,0.3,0.4,0.4,0.6c0,0,0,0.1,0.1,0.1c0.1,0.1,0.2,0,0.3,0c0.2-0.1,0.3-0.1,0.4,0   c-0.2,0.1-0.2,0.3-0.2,0.5c0,0.2,0.1,0.3,0.1,0.4c-0.1,0.1-0.3,0.3-0.3,0.5c0,0.5,0.5,0.6,0.8,0.6c-0.1,0.1-0.1,0.2-0.1,0.3   c0,0.1,0,0.2,0,0.2c0,0,0,0,0,0l0,0.1c0,0.2-0.3,0.5-0.5,0.6c-0.1-0.1-0.1-0.1-0.2-0.1c0-0.1-0.1-0.5-0.2-0.9   c-0.1-0.8-0.2-1.1-0.3-1c-0.1,0-0.2,0.3-0.1,1c0,0.2,0.1,0.3,0.1,0.5c0,0-0.1,0-0.1-0.1l-0.3,0c0,0,0,0,0,0   c-0.1-0.3-0.2-0.7-0.4-0.8c0,0,0,0,0-0.1c0-0.1,0-0.2,0-0.2c0,0,0.2-0.3,0.2-0.3c0-0.1-0.1-0.2-0.2-0.3c-0.2-0.2-0.3-0.3-0.2-0.5   c0,0,0,0,0.1-0.1L11,8.7C11.1,8.7,11.1,8.6,11.1,8.4z M12.1,8C12.1,8,12.1,8,12.1,8c0,0,0,0.1,0,0.1C12.2,8.1,12.1,8.1,12.1,8z    M12.8,9.2c0,0-0.3-0.4,0-0.6c0.2-0.2,0.4,0,0.4,0c0,0.1,0.1,0.1,0.2,0.1c0.1,0,0.1-0.1,0.1-0.2c0,0,0-0.2,0.2-0.3   c0.1,0,0.5,0.4,0.6,0.7c0,0.1,0.1,0.1,0.1,0.1c0.1,0,0.2,0,0.3-0.1c0.1,0,0.2-0.1,0.3-0.1c0.1,0.1,0.3,0.7,0.3,0.8   c0,0.1,0,0.1,0.1,0.2c0.1,0.1,0.2,0.1,0.3,0l0.1,0c0,0,0,0.4-0.2,1c-0.1,0-0.2-0.1-0.2-0.2c0,0-0.2-0.2-0.4-0.4   c-0.4-0.3-0.9-0.6-1-0.5c0,0.1,0.4,0.4,0.8,0.7c0.2,0.2,0.4,0.5,0.5,0.6c0,0,0,0,0,0.1c0,0.1,0,0.1,0.1,0.2l0,0   c-0.3,0.1-0.4,0.1-0.8-0.1l-0.1-0.1c0,0,0-0.2,0-0.2c0-0.1,0-0.1,0-0.1c0,0-0.1,0-0.1,0L14,10.9c-0.2,0.1-0.5,0.2-0.6,0.1   c0,0-0.1,0-0.1-0.2c-0.1-0.3,0-0.3,0.1-0.4c0,0,0.1-0.1,0.1-0.2c0-0.2-0.2-0.2-0.4-0.2c-0.3-0.1-0.5-0.1-0.5-0.3   c0-0.1,0.1-0.2,0.2-0.3c0,0,0.1-0.1,0.1-0.1C12.9,9.3,12.8,9.2,12.8,9.2z M13.9,6.8c0-0.4,0-0.7,0.2-0.7c0.3-0.1,0.5,0.2,0.7,0.5   l0.3,0.2c0.2,0,0.3-0.1,0.3-0.2c0.1-0.1,0.1-0.1,0.2-0.1c0.1,0.1,0.2,0.2,0.2,0.3c0,0.1-0.1,0.2-0.1,0.3c0,0.3,0.1,0.6,0.2,0.7   c-0.1,0-0.1,0.1-0.2,0.1c-0.1,0.1-0.2,0.3-0.2,0.5c0,0.4,0.2,0.8,0.3,1c-0.1,0-0.2,0-0.2,0l0,0c0-0.3-0.2-0.8-0.4-1   c-0.2-0.2-0.5,0-0.7,0.1c-0.1-0.3-0.4-0.7-0.8-0.8c0,0,0,0-0.1,0c-0.1-0.1-0.3-0.3-0.2-0.5c0-0.1,0.1-0.1,0.2-0.2   C13.9,7.1,13.9,7,13.9,6.8z M15.5,4.9L15.5,4.9C15.4,4.9,15.4,4.9,15.5,4.9C15.5,4.9,15.5,4.9,15.5,4.9z M18.8,6.3   c0.1-0.1,0.3-0.2,0.4-0.5c0-0.1,0-0.1,0-0.2c0-0.1,0-0.2-0.1-0.3c0.1,0,0.2-0.1,0.2-0.1c0.1,0.1,0.2,0.3,0.2,0.3   c0,0,0.2,0.2,0.2,0.2c0.1,0,0.3,0,0.4-0.1c0.3-0.1,0.4-0.2,0.6-0.1C21,5.7,21,5.8,21,5.9c-0.2,0.1-0.4,0.4-0.5,0.6   c-0.3,0-0.6,0-0.9,0.2c-0.2,0-0.6,0.1-0.9,0.5c-0.1,0.1-0.1,0.3-0.1,0.4c0,0-0.1-0.1-0.1-0.2c0.3-0.3,0.4-0.5,0.4-0.8   C18.9,6.5,18.9,6.4,18.8,6.3z M21.1,7.1c0,0,0,0.1,0,0.2c0,0.2-0.1,0.6-0.4,0.8c-0.3-0.1-0.6-0.3-0.8-0.5l-0.1-0.3   c0-0.1,0-0.2,0-0.4c0.5-0.3,0.9-0.2,1-0.1c0,0,0,0,0.1,0l0.2,0c0,0,0.1,0,0.1,0c0,0-0.1,0.1-0.1,0.1L21.1,7.1L21.1,7.1z M20.7,9.8   L20.7,9.8L20.7,9.8C20.7,9.9,20.7,9.9,20.7,9.8C20.7,9.9,20.7,9.9,20.7,9.8C20.7,9.8,20.7,9.8,20.7,9.8C20.7,9.8,20.7,9.9,20.7,9.8   L20.7,9.8C20.7,9.9,20.7,9.8,20.7,9.8z M20.6,9.5c-0.1,0.1-0.3,0.1-0.3,0.3l0.1,0.2l0,0.1c0,0.1-0.1,0.1-0.2,0.1c0,0-0.1,0-0.1,0   c-0.1,0-0.2,0-0.4,0l-0.3,0c-0.1,0-0.1,0-0.1,0c0,0,0,0,0,0.1l0.1,0.2l0,0.1c-0.2,0.2-0.6,0.1-0.8,0l-0.3,0   c-0.1,0.1-0.1,0.2-0.2,0.3l0,0.1c-0.1,0-0.7-0.1-0.9-0.2c0.1-0.2,0.3-0.3,0.4-0.4c0,0,0,0,0,0c0.2-0.1,0.4-0.2,0.6-0.2   c0.4-0.1,1-0.4,0.9-0.5c0-0.1-0.6,0-1,0.2c-0.3,0.1-0.8,0.3-1.1,0.4c0.1-0.4,0.4-0.9,0.5-0.9c0.1,0.1,0.2,0.1,0.2,0.1l0.3-0.2   c0.4-0.4,0.6-0.5,0.6-0.4l0,0.1l0.2,0.2c0.1,0.1,0.2,0,0.4-0.1c0.1-0.1,0.3-0.2,0.3-0.2c0.1,0,0.1,0.1,0.1,0.1L20,9.1l0.3,0   c0.1,0,0.5-0.1,0.5,0C21,9.3,20.8,9.4,20.6,9.5z M17.1,12.6c-0.2,0.2-0.3,0.3-0.4,0.5c0-0.1,0-0.1,0-0.1c0-0.4,0-0.8,0.2-1.2   c0.1-0.2,0.2-0.5,0.3-0.6c0.1,0.1,0.3,0.1,0.4,0.2c0,0.1-0.1,0.1-0.1,0.2l-0.3,0.2C16.9,12,17,12.4,17.1,12.6z M18.1,8.5   c0-0.1-0.1-0.1-0.1-0.2c0.2-0.1,0.5-0.3,0.6-0.5c0,0.2,0.1,0.5,0.2,0.7c-0.3,0-0.6,0.3-0.8,0.5c0,0,0,0,0,0c0,0,0,0,0,0   c0.1-0.1,0.1-0.2,0.1-0.4C18.1,8.6,18.1,8.6,18.1,8.5z M19.1,8.4C19.1,8.4,19.1,8.3,19.1,8.4C19,8.2,19,8.1,18.9,7.9L19.1,8.4z    M19,7.3C19,7.3,19,7.3,19,7.3c0.1-0.1,0.2-0.2,0.2-0.2L19,7.3z M18.2,7.2C18.1,7.2,18,7.3,18,7.4c0,0,0.1,0.2,0.1,0.2l0.1,0.1   c0,0.2-0.4,0.4-0.6,0.5l-0.2,0.2c0,0-0.1,0-0.1,0.1c0,0.1,0,0,0.1,0.1l0.2,0.1l0.1,0c0.1,0.4-0.9,0.9-1.4,1.1   c0-0.2,0.1-0.3,0.1-0.5c0.1-0.3,0.7-1.3,0.5-1.4c-0.1-0.1-0.7,1-0.8,1.3c0,0.1-0.1,0.2-0.1,0.3c-0.1-0.3-0.2-0.6-0.2-0.8   c0-0.1,0-0.2,0.1-0.3c0-0.1,0.1-0.1,0.1-0.1l0.1,0c0.1,0,0.1-0.1,0.1-0.1c0-0.1,0-0.1-0.1-0.2c-0.1-0.2-0.2-0.4-0.2-0.7   c0-0.1,0-0.1,0-0.2c0-0.1,0.1-0.1,0.2-0.2c0,0,0.1,0,0.1,0c0.1,0.1,0.2,0.1,0.3,0c0,0,0.1-0.2,0.1-0.2c0-0.2,0.1-0.7,0.3-0.7l0.1,0   c0,0,0.1,0.1,0.2,0l0.1-0.1c0.4-0.3,0.4-0.3,0.5-0.3C18,5.7,18,5.9,18,6c0,0.2,0,0.3,0.1,0.4c0,0,0.2,0.1,0.2,0.1l0.1,0   C18.7,6.7,18.4,7,18.2,7.2z M17,9.8c-0.1,0.3-0.2,0.5-0.2,0.7c-0.1,0-0.1,0.1-0.2,0.1c0,0,0,0-0.1,0c0,0,0,0,0,0   c0-0.2,0-0.4-0.1-0.5C16.5,10,16.7,9.9,17,9.8z M16.2,10.1C16.2,10.1,16.2,10.1,16.2,10.1C16.2,10.1,16.2,10.1,16.2,10.1L16.2,10.1   z M16.1,9.6C16.1,9.6,16.1,9.6,16.1,9.6C16.1,9.6,16.1,9.6,16.1,9.6C16,9.6,16.1,9.6,16.1,9.6C16.1,9.6,16.1,9.6,16.1,9.6z    M17.1,5.6C17.1,5.6,17.1,5.6,17.1,5.6c-0.2-0.1-0.9-0.3-1.4-0.4c0.2-0.4,0.6-0.6,0.8-0.7c0,0,0.1-0.1,0.1-0.1   c0.1,0,0.2-0.1,0.3-0.1c0.1,0,0.1,0.1,0.1,0.2l0,0.1C17,4.8,17.2,5.1,17.1,5.6z M15.5,12.4c0,0.1,0,0.2,0,0.2c0,0.2-0.1,0.7-0.2,1   c0,0-0.6-0.9-0.6-0.9c-0.3-0.4-0.3-0.9-0.4-1.2c0,0,0,0,0,0c0.4,0.2,0.6,0.1,1,0.1l0.1,0C15.5,11.9,15.5,12.2,15.5,12.4z    M12.7,12.1C12.7,12.1,12.7,12.1,12.7,12.1c0.4,0.1,1.1,0.3,1.3,1.7c0.1,0.6,0.1,1,0.1,1.2c0,0.2,0,0.3,0,0.3   c-0.3-0.3-1.3-1.1-1.3-2.2c0,0,0-0.1,0-0.2C12.8,12.6,12.8,12.4,12.7,12.1z M8.4,10.1c0,0.1-0.1,0.2-0.1,0.2c0,0.2,0.1,0.4,0.2,0.5   l-0.6,1.1c-0.1-0.1-0.4-0.3-0.5-0.5L7.2,11l-0.1-0.2c0,0,0-0.1,0-0.1c0-0.1-0.1-0.2,0-0.3c0.1-0.1,0.2-0.1,0.3-0.1l0.1,0   c0,0,0.1-0.1,0.1-0.1C7.7,10.2,8,10,8.4,10.1z M10.6,13.7c-0.1,0.5-0.3,0.8-0.4,1c0,0,0,0,0,0c0-0.1-0.1-0.2-0.2-0.2   c-0.1,0-0.1,0-0.2,0.1c-0.1,0.1-0.2,0.3-0.3,0.5c-0.1,0.3-0.2,0.5-0.6,0.6c-0.1,0-0.1,0-0.2-0.1c0-0.1-0.1-0.3-0.3-0.3L8,15.2   c-0.1,0.1-0.5,0.3-0.6,0.2c-0.1-0.2,0-0.4,0.3-0.7l0.2-0.2c0.1-0.1,0-0.3-0.1-0.3c-0.1-0.1-0.1-0.2,0-0.4c0.2-0.2,0.3-0.2,0.5-0.2   c0.1,0,0.2,0,0.3-0.1c0,0,0.1-0.1,0.1-0.1c0-0.1-0.1-0.2-0.1-0.2c0,0-0.1-0.1-0.1-0.1c0,0,0.1,0,0.1,0c0.3-0.1,0.7,0.1,0.8,0.2   c0.1,0,0.1,0.1,0.2,0c0,0,0.1-0.1,0.1-0.1c0-0.1,0-0.2-0.1-0.3l-0.1-0.2c0.1-0.1,0.1-0.1,0.2-0.1c0.1,0,0.2,0,0.2,0   c0,0.1-0.1,0.2-0.1,0.2c0,0,0,0.1,0,0.1c0.1,0.1,0.1,0.2,0.3,0.2c-0.4,0.1-0.7,0.3-1,0.5c-0.2,0.1-0.6,0.5-0.5,0.6   c0,0.1,1.1-0.5,1.5-0.7C10.2,13.7,10.4,13.6,10.6,13.7C10.6,13.6,10.6,13.6,10.6,13.7z M10.1,13c0,0,0.1-0.1,0.1-0.1l0.1-0.3   c0-0.2-0.2-0.2-0.3-0.2c-0.1,0-0.2,0-0.2,0c0,0,0,0,0,0c0,0,0,0,0,0c-0.2,0-0.5-0.1-0.6-0.3c0,0,0.1-0.1,0.1-0.1   c0.1-0.1,0.2-0.2,0.1-0.4l-0.3-0.1c-0.3,0-0.4-0.1-0.4-0.2c0,0,0.1-0.1,0.1-0.1c0.1,0,0.2-0.1,0.2-0.3l-0.2-0.2   c-0.2-0.2-0.3-0.3-0.2-0.5c0-0.1,0.1-0.1,0.1-0.1c0.2,0,0.4,0.2,0.5,0.2l0.1,0.1c0.2,0.1,0.3-0.1,0.3-0.2c0,0,0-0.1,0.1-0.1   c0.3,0.1,0.4,0.4,0.4,0.6c0,0.1,0.1,0.1,0.2,0.2c0.1,0,0.2,0,0.2-0.1c0-0.1,0.1-0.3,0.2-0.3c0.1,0.1,0.3,0.5,0.3,1   c0,0.1,0,0.1,0.1,0.2c0.1,0,0.2,0,0.2-0.1c0-0.1,0.1-0.1,0.1-0.1c0.1,0,0.2,0.3,0.2,1l0,0.1c-0.1,0-0.4-0.1-0.6-0.3c0,0,0,0,0,0   c0,0,0,0,0,0c-0.2-0.1-0.4-0.3-0.6-0.4c0,0-0.5-0.4-0.6-0.3c-0.1,0.1,0.4,0.6,0.4,0.6c0.2,0.2,0.4,0.3,0.6,0.4c0,0,0,0,0.1,0   c0.2,0.2,0.4,0.4,0.4,0.5C10.7,13.2,10.2,13.2,10.1,13z M9.5,20.9L9.5,20.9C9.5,20.9,9.5,20.9,9.5,20.9C9.5,20.9,9.5,20.9,9.5,20.9   z M9.8,22.4c-0.4,0-0.6-0.2-0.6-0.2c-0.1-0.1-0.2,0-0.2,0c0,0-0.1,0.1-0.5,0.1c-0.4,0-0.6-0.1-0.8-0.4c-0.1-0.2-0.2-0.6,0-0.9   c0.1-0.3,0.4-0.4,0.8-0.4c0.3,0,0.7,0.1,0.9,0.4l0.7,1.1c0,0,0.1,0.1,0.1,0.1C10.1,22.4,10,22.4,9.8,22.4z M14.8,22.4   c-0.3,0-0.5-0.1-0.5-0.1c-0.1-0.1-0.2,0-0.2,0c0,0-0.1,0.1-0.5,0.1c-0.3,0-0.6-0.2-0.8-0.4L12.1,21c0,0-0.1-0.1-0.1-0.1   c0.1,0,0.2-0.1,0.4-0.1c0.3,0,0.5,0.1,0.5,0.1c0.1,0.1,0.2,0,0.2,0c0,0,0.1-0.1,0.5-0.1c0.3,0,0.6,0.1,0.7,0.4l0.7,1.1   c0,0,0.1,0.1,0.1,0.1C15.1,22.4,15,22.4,14.8,22.4z M12.3,20.5c0.3-0.2,0.7-0.2,1-0.1c0,0.1,0,0.1,0,0.2c-0.1,0-0.2,0.1-0.3,0.1   C12.9,20.6,12.7,20.5,12.3,20.5C12.4,20.5,12.4,20.5,12.3,20.5z M14.5,20.9C14.5,20.9,14.5,20.9,14.5,20.9L14.5,20.9   C14.6,20.9,14.5,20.9,14.5,20.9z M15.5,20.6c-0.1-0.1-0.3-0.2-0.6-0.2c-0.1,0-0.1,0-0.2,0c0.1-0.2,0.3-0.4,0.5-0.4   c0.1,0,0.2,0,0.2,0.1C15.5,20.3,15.5,20.5,15.5,20.6C15.5,20.6,15.5,20.6,15.5,20.6z M20.1,22.3c0,0,0.1,0.1,0.1,0.1   c-0.1,0-0.2,0.1-0.4,0.1c-0.3,0-0.5-0.1-0.5-0.1c-0.1-0.1-0.2,0-0.2,0c0,0-0.1,0.1-0.5,0.1c-0.3,0-0.6-0.2-0.8-0.4L17.1,21   c0,0-0.1-0.1-0.1-0.1c0.1,0,0.2-0.1,0.4-0.1c0.3,0,0.5,0.1,0.5,0.1c0.1,0.1,0.2,0,0.2,0c0,0,0.1-0.1,0.5-0.1c0.3,0,0.6,0.1,0.7,0.4   C19.4,21.2,20.1,22.3,20.1,22.3z M18.3,13.2c-0.3,0.1-1,0.5-1.6,1.3c-0.9,1.4-0.5,3.5-0.2,3.9l0,0c0.2,0.4,0.5,0.9,1.7,1.4l0.1,0.1   c0.8,0.3,1.1,0.5,1.3,0.6c-0.2,0-0.4,0.1-0.5,0.1c-0.2-0.1-0.4-0.2-0.6-0.2c-0.1,0-0.2,0-0.3,0c0-0.1-0.1-0.2-0.1-0.2   c-0.2-0.4-0.5-0.5-0.9-0.7c-0.4-0.2-0.9-0.4-1.2-1.1c-0.1-0.4-0.2-0.9-0.2-1.4c0-0.3-0.1-1.4-0.2-1.4c-0.1,0-0.2,1.1-0.1,1.4   c0,0.5,0.1,1,0.3,1.5c0.3,0.9,0.9,1.1,1.4,1.3c0.3,0.1,0.6,0.3,0.7,0.6l0,0.1c-0.1-0.1-0.3-0.1-0.5-0.1c-0.3,0-0.6,0.1-0.7,0.2   c-0.2-0.1-0.4-0.2-0.6-0.2c-0.1,0-0.2,0-0.2,0c0-0.2-0.1-0.4-0.2-0.5c-0.1-0.1-0.3-0.2-0.5-0.2c-0.4,0-0.7,0.3-0.9,0.8c0,0,0,0,0,0   c0,0,0,0,0,0c-0.2-0.1-0.4-0.2-0.6-0.2c0-0.1,0-0.1,0-0.2c0,0,0,0,0,0c0,0,0,0,0-0.1c0-0.1,0-0.3,0.1-0.4c0.1-0.1,0.1-0.2,0.2-0.4   c0.4-0.7,0.4-1.3,0.3-1.3c-0.1,0-0.4,0.8-0.6,1.2c-0.1,0.1-0.2,0.3-0.2,0.4c-0.1,0.1-0.1,0.2-0.1,0.4c-0.4,0-1.2-0.1-1.6,0.6   c0,0,0,0,0,0c0,0,0,0,0,0c-0.2-0.1-0.4-0.2-0.6-0.2c-0.3,0-0.5,0.1-0.6,0.2c0,0,0,0,0,0c0.4-0.3,1.2-0.7,1.7-0.9l0.3-0.1   c0.8-0.4,1.3-1.2,1.4-2.3c0-0.1,0-0.1-0.6-1.1c-0.3-0.4-0.6-0.9-0.6-1.1c-0.1-0.3-0.8-1.4-1.7-1.7c0.2,0,0.3-0.1,0.5-0.1   c0.1,0,0.2-0.1,0.2-0.2c0,0,0,0,0-0.1c0-0.1,0-0.2-0.1-0.3c0.1,0,0.2,0,0.3,0c0.1-0.1,0.2-0.2,0.2-0.4c0-0.2,0-0.3,0-0.5   c0,0,0,0,0,0c0.1,0,0.5,0.3,0.4,1.3c0,1.5,1.5,2.6,1.7,2.6c0.1,0,0.1,0,0.2-0.1c0.1-0.1,0.2-0.4,0.2-0.7c0-0.4-0.1-0.9-0.1-1.3   c-0.3-1.5-1.2-1.8-1.5-1.9c0,0-0.1,0-0.1,0c0.1-0.1,0.3-0.3,0.4-0.5c0,0,0,0,0.1,0c0.3,0.1,0.6,0,0.8-0.1v0c0,0.3,0,0.9,0.4,1.6   l0.5,0.8l0.3,0.4c0,0.1,0.1,0.1,0.2,0.1c0.3-0.1,0.5-1.6,0.5-1.6c0-0.1,0-0.1,0-0.2c0-0.3-0.1-0.8-0.2-1.2c0,0,0,0,0,0   c0,0,0,0,0.1,0.1c0.1,0,0.2,0,0.2-0.1c0.1-0.3,0.1-0.5,0.2-0.7c0,0,0,0.1,0,0.1l0.1,0.4c0.1,0.1,0.2,0.1,0.5-0.1   c0.1-0.1,0.2-0.1,0.4-0.2c-0.2,0.3-0.4,0.6-0.5,1c-0.2,0.4-0.2,0.9-0.2,1.3c0,0.3,0,0.6-0.1,0.7c0,0,0,0,0,0.1c0,0.1,0,0.1,0.1,0.2   c0.1,0,0.2,0,0.2-0.1c0.2-0.3,0.6-0.8,1-1.2c-0.1,0.2-0.2,0.3-0.2,0.4c0,0,0,0,0,0c0,0.1,0,0.1,0.1,0.1c0.1,0,0.1,0,0.2,0   C17.7,13.2,17.9,13.1,18.3,13.2C18.3,13.2,18.3,13.2,18.3,13.2z M18.4,12.8c-0.2,0-0.4,0-0.5,0c0.1-0.2,0.2-0.4,0.3-0.6   c0.1-0.1,0.2-0.2,0.4-0.3c0.1,0,0.5-0.3,0.4-0.4c-0.1-0.1-0.5,0.1-0.6,0.1c-0.2,0.1-0.5,0.3-0.5,0.3c-0.2,0.1-0.3,0.2-0.5,0.4   c0-0.1-0.1-0.3,0-0.4l0.2-0.1c0.2-0.1,0.3-0.2,0.3-0.4c0.2,0,0.4,0,0.5,0c0.1-0.1,0.2-0.2,0.2-0.3c0,0,0,0,0,0   c0.3,0.1,0.8,0.2,1.1-0.1c0.1-0.1,0.1-0.1,0.1-0.2c0,0,0-0.1,0-0.1c0.1,0,0.2,0,0.3,0c0,0,0,0,0,0.1c0,0,0,0,0,0   c0,0.1-0.1,0.1-0.2,0.2l-0.2,0.2c0,0,0,0.1,0,0.1c0,0.1,0.1,0.2,0.1,0.2c0,0.1,0.1,0.1,0.1,0.2c0,0,0,0,0,0c0,0.2-0.2,0.3-0.6,0.3   L19,12.1c0,0-0.1,0.1-0.1,0.1c0,0.1,0.1,0.2,0.1,0.2l0.1,0.1c0,0-0.1,0.1-0.1,0.1c-0.1,0.1-0.3,0.1-0.5,0.1L18.4,12.8z M22.1,15.1   c-0.1,0.1-0.2,0.1-0.4,0l-0.2,0c-0.1,0-0.2,0.1-0.2,0.1c-0.1,0.1-0.1,0.1-0.2,0.1c-0.1,0-0.3-0.2-0.4-0.3l-0.2-0.2   c-0.1,0-0.2,0.1-0.2,0.2c0,0.1-0.1,0.1-0.2,0.1c-0.2,0-0.3-0.4-0.4-0.6c-0.1-0.2-0.1-0.3-0.2-0.4c-0.1-0.1-0.3,0.1-0.3,0.1   c-0.1-0.1-0.2-0.6-0.3-1c0.3,0.1,0.6,0.3,0.9,0.4c0.2,0.1,0.5,0.4,0.6,0.3c0.1-0.1-0.2-0.5-0.4-0.6c-0.2-0.2-0.5-0.3-0.7-0.4   c0.7-0.2,1.1-0.2,1.1-0.1c0,0,0,0.1,0,0.1l0,0.2c0,0.2,0.2,0.2,0.5,0.2c0.2,0,0.5,0.1,0.6,0.1c0,0,0,0,0,0c0,0,0,0.1-0.1,0.1   c0,0.1-0.1,0.1-0.1,0.2c0,0,0,0.1,0,0.1c0,0.1,0.2,0.2,0.4,0.2c0.1,0,0.3,0.1,0.4,0.1c0,0-0.1,0.1-0.1,0.1   c-0.1,0.1-0.1,0.1-0.1,0.2c0,0,0,0,0,0.1l0.2,0.2C22.1,14.9,22.1,14.9,22.1,15.1C22.1,15,22.1,15,22.1,15.1z M21.5,13.7   C21.5,13.7,21.6,13.7,21.5,13.7C21.6,13.7,21.6,13.7,21.5,13.7C21.5,13.7,21.5,13.7,21.5,13.7z M23.2,13.4c0,0.1-0.1,0.1-0.3,0.1   l-0.3,0l-0.1,0.2c0,0.1,0,0.1,0,0.1c-0.1,0-0.2,0-0.3,0l-0.1,0c-0.1,0-0.2-0.1-0.3-0.1c0,0-0.1,0-0.1,0c0-0.1,0.1-0.2,0.1-0.3   c0-0.1,0-0.1-0.1-0.2c-0.1-0.1-0.4-0.2-0.8-0.2c0,0-0.1,0-0.2,0c0,0,0-0.1,0-0.1c0-0.1,0-0.2-0.1-0.3c-0.1-0.1-0.5-0.1-1-0.1   c0-0.1-0.1-0.2-0.1-0.2c0,0,0,0,0,0c0.2,0,0.5-0.1,0.7-0.2c0.5,0.3,1.2,0.3,1.5,0.1c0,0,0,0,0.1,0c0.1,0.1,0.1,0.1,0.2,0.2l0.4,0   c0.1,0,0.4-0.1,0.4,0c0.1,0.1,0.1,0.2,0.1,0.3l0,0.3c0,0.1,0.1,0.1,0.2,0.2C23.2,13.1,23.2,13.2,23.2,13.4z M23.7,13   C23.7,13,23.7,13,23.7,13C23.7,13,23.7,13,23.7,13z M24.9,12.5C24.9,12.5,24.9,12.5,24.9,12.5L24.9,12.5   C24.9,12.5,24.9,12.5,24.9,12.5C24.9,12.5,24.9,12.5,24.9,12.5z M23.1,10.8C23.1,10.8,23.1,10.8,23.1,10.8c0.1,0,0.1,0,0.2,0.2   c0,0.1,0,0.2,0.1,0.2c0.1,0,0.2,0,0.3-0.1c0.2-0.1,0.6-0.4,0.8-0.2c0.1,0.1,0.1,0.2,0,0.3c-0.1,0.2,0,0.3,0.1,0.3l0.2,0   c0.5,0.1,0.7,0.2,0.7,0.5c0,0.1,0,0.2-0.1,0.2c-0.1,0.1-0.3,0-0.5,0l-0.3,0c-0.1,0.1-0.1,0.2-0.1,0.3c0,0.1,0,0.3-0.1,0.3   c-0.1,0-0.4-0.1-0.5-0.1c-0.2-0.1-0.3-0.1-0.4,0l-0.1,0.2c0,0.1,0,0.1,0,0.1c-0.1-0.1-0.3-0.2-0.3-0.2c0,0,0,0,0,0   c0-0.1,0.1-0.1,0.1-0.2c0-0.1-0.1-0.3-0.2-0.4c-0.2-0.1-0.5-0.1-0.7,0L22,12c0,0-0.1-0.1-0.1-0.2c0.1,0,0.2,0,0.2-0.1   c0.1,0,0.1,0,0.2,0c0.3,0,1.5,0.2,1.5,0c0-0.1-0.7-0.3-1.2-0.3C23,11.3,23,11,23.1,10.8C23.1,10.9,23.1,10.8,23.1,10.8z M23.1,10.4   c0,0-0.1,0.1-0.1,0.1l-0.2,0.1l-0.1,0.1c-0.1,0.2-0.2,0.6-1,0.8c0,0,0,0,0-0.1c-0.1-0.2-0.2-0.4-0.3-0.7c0-0.4,0-0.7,0-0.9   c0.6-0.1,1.1,0,1.2,0.2c0,0,0.2,0.1,0.2,0.1C23,10.3,23.1,10.4,23.1,10.4z M24.3,7.2l0,0.3c0.1,0.2,0.3,0.1,0.5,0.1   c0.3-0.1,0.4-0.1,0.5,0.1c0.2,0.3,0,0.5-0.4,0.7l-0.2,0.2c-0.1,0.1,0,0.3,0.1,0.4C24.9,8.9,25,9,25,9.1c-0.1,0.2-0.5,0.1-0.8,0   c-0.3-0.1-0.4-0.1-0.6,0c-0.1,0.1-0.1,0.3-0.1,0.3l0,0.1c0,0.1-0.2,0.1-0.5,0.1c-0.1,0-0.3,0-0.3,0.1c-0.3-0.1-0.6-0.1-1.1-0.1   c0,0,0,0,0-0.1c-0.1-0.1-0.2-0.1-0.3-0.1c0-0.1,0-0.1,0-0.2c0,0,0-0.1,0-0.1c0.5,0,1.4,0.1,1.6-0.5c0-0.1,0-0.1,0-0.2   c0-0.1,0-0.2-0.1-0.3c0.5,0,1.2,0,1.2-0.5c0,0,0,0,0-0.1c0-0.3-0.2-0.4-0.3-0.5c0,0,0.1-0.1,0.1-0.1c0,0,0.1-0.1,0.1-0.1   c0.2,0,0.3,0.1,0.3,0.1C24.3,7.1,24.3,7.1,24.3,7.2z M23.3,6.1C23.5,6,23.8,5.8,24,5.9c0,0,0.1,0,0.1,0.1c0.1,0.2,0,0.4-0.2,0.6   c0,0-0.1,0-0.1,0.1c0,0-0.1,0.1-0.1,0.1c-0.2,0.1-0.3,0.2-0.4,0.4c0,0.1-0.1,0.1,0,0.1l0.2,0.1c0.1,0,0.3,0.1,0.2,0.3   c0,0.1-0.1,0.2-1,0.2c-0.2,0-0.3,0-0.4,0.1c0,0.1,0,0.2,0.1,0.3c0,0.1,0.2,0.2,0.1,0.3c-0.1,0.3-1.1,0.3-1.4,0.3l-0.1,0   c-0.1-0.1-0.1-0.1-0.2-0.1c0.1-0.1,0.1-0.2,0.1-0.3C21,8.3,21.1,8.1,21.2,8h0c0,0,0.1-0.1,0.3-0.2c0.5-0.3,1-0.9,0.9-0.9   c-0.1,0-0.7,0.4-1,0.6c0-0.2,0-0.3,0-0.4c0,0,0-0.1,0-0.1c0-0.1,0.1-0.3,0-0.5c-0.1-0.1-0.3-0.1-0.4,0c0.1-0.1,0.2-0.3,0.3-0.3   c0.1,0,0.2,0,0.3,0.1l0.2,0.1c0.2,0,0.3-0.1,0.4-0.3c0.2-0.2,0.4-0.4,0.6-0.4c0.1,0,0.1,0.1,0.1,0.2C23,6,23,6.1,23.1,6.1L23.3,6.1   z M20,4.7L20,4.7l0.2-0.2c0-0.1,0.3-0.4,0.4-0.4c0,0,0.1,0.1,0.1,0.1L21,4.4l0.3-0.2c0.1-0.1,0.4-0.3,0.5-0.3   c0.1,0,0.2,0.1,0.2,0.2l0.2,0.2l0.3,0c0.3-0.1,0.5-0.1,0.7,0c0.1,0.1,0.1,0.1,0,0.1c0,0.2-0.3,0.3-0.4,0.4c0,0-0.1,0.1-0.1,0.1   c0,0,0,0.1,0,0.1c0,0.1,0.1,0.2,0.1,0.3c-0.4-0.1-0.8,0.3-0.9,0.5c0,0-0.1,0.1-0.1,0.1c0,0-0.1,0-0.1,0c-0.1-0.1-0.2-0.2-0.4-0.2   c0-0.1-0.1-0.2-0.2-0.4c0.1,0,0.2-0.1,0.3-0.2c0.3-0.2,0.6-0.4,0.6-0.5c-0.1-0.1-0.4,0.1-0.8,0.2c-0.2,0.1-0.3,0.2-0.4,0.2   c-0.3-0.1-0.6,0.1-0.8,0.2c0,0-0.1,0-0.1,0.1c-0.1-0.1-0.1-0.2-0.2-0.3C19.9,5,20,4.8,20,4.7z M19.7,4.2   C19.7,4.2,19.8,4.2,19.7,4.2C19.8,4.2,19.8,4.2,19.7,4.2C19.8,4.2,19.8,4.2,19.7,4.2z M18.7,3.7L19,3.5c0.1-0.1,0.3-0.4,0.5-0.4   c0.1,0,0.2,0,0.3,0.2c0.1,0.1,0.1,0.1,0.1,0.2c0,0.1-0.2,0.3-0.3,0.4l-0.2,0.3c0,0.1,0.1,0.2,0.2,0.3c0.1,0.1,0.1,0.1,0.1,0.2   c0,0.1-0.1,0.2-0.3,0.3c0,0,0,0-0.1,0c-0.1,0.1-0.2,0.1-0.4,0.2c0,0-0.1,0.1-0.1,0.1c0,0.1,0,0.2,0.1,0.2c0.1,0.1,0.1,0.1,0.1,0.2   c0,0.1-0.2,0.3-0.3,0.3c-0.1,0-0.1,0-0.1,0c0,0,0,0-0.1,0c0,0,0-0.1,0-0.1c0-0.2,0-0.5-0.3-0.6c-0.1-0.1-0.2,0-0.3,0   C17.9,5.2,17.9,5.1,18,5c0.3-0.3,0.6-0.6,0.5-0.7c-0.1-0.1-0.5,0.2-0.8,0.5c-0.1,0.1-0.2,0.3-0.3,0.4c0-0.2-0.1-0.4-0.2-0.7   c0,0,0-0.1,0-0.1c0-0.1-0.1-0.2-0.1-0.3c0.1-0.1,0.2-0.1,0.3-0.1l0.1,0c0.1,0,0.2-0.1,0.2-0.3c0.1-0.2,0.2-0.6,0.4-0.7l0.1,0   c0,0,0.1,0.1,0.1,0.2C18.4,3.5,18.5,3.7,18.7,3.7z M16.8,1.1L17,1.2c0.1,0,0.2-0.1,0.3-0.2c0.2-0.2,0.3-0.4,0.5-0.4   c0.2,0,0.2,0.2,0.2,0.5c0,0.1,0,0.2,0.1,0.3l0.2,0.1c0.1,0,0.2,0,0.3,0.2c0.1,0.2-0.3,0.5-0.5,0.6c-0.1,0-0.1,0.1-0.1,0.2   c0,0.1,0.1,0.1,0.2,0.1c0,0,0.1,0,0.1,0c0,0,0,0.1,0,0.1l-0.2,0c-0.4,0.1-0.5,0.6-0.6,0.9c0,0,0,0,0,0c-0.1,0-0.2,0-0.4,0   c0.1-0.2,0.2-0.4,0.2-0.6c0-0.1,0-0.1,0-0.1C17.1,3,17,2.9,16.9,2.9c0.1-0.2,0.3-0.5,0.3-0.8c0-0.2,0-0.4-0.2-0.6   c-0.1-0.2-0.3-0.2-0.4-0.1c0-0.1,0-0.1,0-0.1c0-0.1,0-0.2,0-0.3C16.7,1,16.7,1.1,16.8,1.1z M16.6,1.6C16.6,1.6,16.6,1.6,16.6,1.6   c0,0,0,0.1,0,0.1C16.6,1.7,16.6,1.6,16.6,1.6z M14.6,3.1c0.1-0.1,0.2-0.1,0.4-0.1c0.1,0,0.1,0,0.2-0.1c0.1-0.1,0-0.2-0.1-0.5   c-0.1-0.2-0.3-0.7-0.2-0.8c0.1,0,0.1,0,0.2,0l0.3,0c0.1-0.1,0.1-0.2,0.2-0.4c0.1-0.2,0.2-0.6,0.3-0.6c0.1,0,0.2,0.1,0.3,0.2   c0.1,0.2,0.1,0.6,0,0.8c0,0.1,0,0.2,0,0.2c0.1,0.1,0.2,0,0.3,0c0,0,0.1-0.1,0.2-0.1c0.3,0.4,0,0.8-0.2,1.1   c-0.1,0.1-0.1,0.2-0.1,0.3c0.1,0.1,0.2,0.1,0.3,0.1c0.1,0,0.2,0,0.2,0.1c0,0.1-0.1,0.5-0.3,0.8c-0.1,0-0.2,0.1-0.2,0.1   c-0.2,0.1-0.4,0.2-0.6,0.4c0.1-0.2,0.2-0.8,0.2-1.2C16,2.9,16,2.6,15.9,2.6c-0.1,0-0.1,0.4-0.2,0.9c-0.1,0.5-0.2,0.9-0.3,1.1   c0,0-0.1,0-0.1,0c0,0-0.1,0-0.2,0v0c0.1-0.1,0.2-0.4,0.2-0.7c0-0.2-0.1-0.5-0.4-0.7C14.8,3,14.7,3.1,14.6,3.1   C14.6,3.1,14.6,3.1,14.6,3.1z M14.3,3.7c0.1,0,0.2-0.1,0.3-0.1l0.1-0.1c0.3,0.2,0.2,0.5,0,0.9l-0.1,0.3c0,0.2,0.3,0.3,0.5,0.3   l0.2,0c-0.1,0.1-0.1,0.2-0.2,0.4c-0.1,0-0.3,0.1-0.3,0.2c-0.1,0.1-0.1,0.3-0.2,0.5c-0.1-0.1-0.3-0.2-0.5-0.2c0-0.1-0.1-0.3-0.1-0.5   c-0.1-0.4-0.2-0.9-0.3-0.9c-0.1,0-0.1,0.5,0,0.9c0,0.2,0.1,0.3,0.1,0.5c-0.1,0-0.2,0.1-0.2,0.2c0-0.1-0.1-0.2-0.1-0.2   c-0.1-0.1-0.1-0.1-0.2-0.1c0-0.1-0.1-0.2-0.2-0.3c0.1-0.1,0.1-0.1,0.1-0.2c0-0.1,0-0.1-0.1-0.3c-0.3-0.3-0.4-0.5-0.4-0.6   c0-0.1,0.1-0.1,0.2-0.1c0.1,0,0.2,0,0.3-0.1c0.1-0.1,0.1-0.2,0-0.4c0-0.3,0-0.6,0.1-0.7C13.7,3,14,3.3,14.1,3.5L14.3,3.7z    M11.7,6.3c-0.3-0.5-0.1-0.8,0-1l0.1-0.1c0,0,0-0.2,0-0.2c0-0.1,0-0.2,0-0.2c0.1,0,0.2,0.1,0.3,0.1c0,0,0,0,0.1,0l0.2,0   c0.2,0,0.6,0,0.9,0.6c-0.2,0.1-0.5,0.2-0.8,0.3C12,6.1,11.9,6.2,11.7,6.3z M13,3.8C13,3.8,13,3.8,13,3.8C13,3.9,13,3.9,13,3.8   C13,3.9,13,3.9,13,3.8z M11.7,1.6c0.1,0,0.2,0,0.3-0.1c0.1-0.1,0-0.2,0-0.4c-0.1-0.2-0.3-0.6-0.1-0.7c0.2-0.1,0.6,0.3,0.7,0.5   L12.8,1c0.1,0,0.2,0,0.3-0.1c0-0.1,0.1-0.1,0.2,0c0.2,0.1,0.2,0.5,0.2,0.9c0,0.1,0,0.1,0.1,0.2c0.1,0,0.1,0,0.2,0   c0-0.1,0.1-0.1,0.2-0.1c0.1,0.1,0,0.6,0,1c-0.1-0.1-0.3-0.1-0.4-0.1c-0.1,0-0.2,0.1-0.2,0.2c-0.2-0.1-0.3-0.1-0.5,0   c0-0.4-0.1-1-0.6-1.1c-0.2,0-0.4,0.1-0.5,0.3c-0.1-0.1-0.1-0.2-0.1-0.3C11.5,1.6,11.6,1.6,11.7,1.6z M10.1,3.6   c0-0.1,0.1-0.2,0.3-0.2c0.1,0,0.2-0.1,0.2-0.2l-0.1-0.3c-0.2-0.3-0.4-0.7-0.1-0.9c0.3-0.2,0.6,0,0.9,0.3c0.1,0.1,0.2,0.2,0.3,0.2   c0.1,0,0.2-0.1,0.3-0.3C11.9,2.2,12,2,12,2c0.3,0,0.3,0.7,0.3,0.9c0,0.2,0,0.3,0.1,0.3c0.1,0,0.2,0,0.2,0c0.1-0.1,0.2-0.1,0.3,0   c0,0.1,0,0.2,0,0.2c0,0.1,0,0.2,0,0.3c0,0,0,0,0,0.1c-0.2,0-0.4,0-0.5,0.3c0,0.1,0,0.1,0,0.2c0,0.2,0.1,0.4,0.2,0.6   c-0.1-0.1-0.2-0.1-0.3-0.1c0-0.1-0.1-0.4-0.3-0.7c-0.1-0.2-0.6-0.7-0.7-0.6c-0.1,0.1,0.2,0.5,0.3,0.7C11.9,4.3,12,4.4,12,4.5   c-0.1-0.1-0.3-0.1-0.4,0c-0.3,0.1-0.2,0.4-0.2,0.6c-0.4-0.1-0.5-0.1-0.5-0.2c0,0,0-0.1,0.1-0.2l0.2-0.3c0-0.2-0.2-0.2-0.4-0.3   C10.4,4,10.1,3.9,10.1,3.6z M9.3,4.7c0.3-0.3,0.6-0.1,0.9,0.1l0.3,0.1c0,0,0,0,0.1,0c0,0.3,0.4,0.4,0.7,0.4   c-0.1,0.2-0.1,0.6,0.2,1.2c0,0,0,0,0,0c-0.1,0.1-0.1,0.2-0.1,0.3c0.1,0.2,0.3,0.5,0.6,0.6c0.4,0.2,0.8,0.2,1.1,0.1l0.1,0l0,0   c0,0,0,0,0,0c0,0.2,0.1,0.4,0.2,0.5c-0.1,0.1-0.1,0.1-0.2,0.2c-0.1,0-0.2-0.1-0.4,0c-0.3-0.4-0.6-0.2-0.8-0.2   c-0.1-0.2-0.3-0.5-0.5-0.6l-0.4,0c-0.1,0-0.1,0.1-0.1,0.1c-0.1-0.3-0.4-0.5-0.6-0.6c0,0,0,0-0.1,0c0-0.1,0-0.2,0-0.3   c0-0.2-0.3-0.2-0.5-0.2c-0.4,0-0.5-0.1-0.5-0.3l0.1-0.2l0.1-0.3L9.5,5.3C9.2,5,9.1,4.9,9.3,4.7z M6,6.1C6,6.1,6.1,6,6.2,6l0.2-0.1   c0.1-0.1,0.1-0.2,0-0.4C6.4,5.1,6.4,4.9,6.6,4.8c0.1,0,0.2,0,0.3,0.2l0.3,0.2C7.3,5.3,7.4,5.1,7.5,5c0-0.1,0.1-0.2,0.1-0.2   c0.1,0,0.2,0.4,0.2,0.6c0,0.2,0.1,0.4,0.2,0.4c0.2,0.1,0.3-0.1,0.4-0.2c0.1-0.1,0.1-0.1,0.1-0.1c0.1,0,0.1,0.4,0.2,0.5   c0,0.2,0,0.4,0.1,0.4c0.1,0,0.2,0.1,0.5,0c0.2,0.2,0.5,0.2,0.6,0.2c0,0,0.1,0,0.2,0c0,0,0,0,0,0c0,0.1,0,0.2-0.1,0.2   C9.4,6.7,9,6.8,8.7,6.9l-0.1,0l-0.1,0L8.2,7.1c0,0,0,0,0,0C8,7,7.8,6.8,7.6,6.6C7.3,6.2,7.2,5.8,7.1,5.8C6.9,5.9,7.1,6.5,7.3,6.7   C7.5,7,7.9,7.3,8.2,7.5l0,0c0,0.1,0,0.3,0.1,0.5C8,8,8,8.3,7.9,8.4c0,0,0,0,0,0c0,0-0.1,0-0.1,0c0,0,0,0,0,0c0-0.1-0.1-0.2-0.1-0.3   c0-0.2-0.1-0.3-0.2-0.4c-0.2-0.1-0.3,0-0.5,0c0,0-0.2,0.1-0.2,0.1c0,0-0.1-0.1-0.1-0.1c0,0,0,0,0,0C6.6,7.6,6.5,7.4,6.5,7.4   c0,0,0,0,0,0c0.1-0.1,0.2-0.2,0.3-0.2C6.9,7.2,7,7.1,7,7c0-0.1-0.1-0.2-0.2-0.3C6.1,6.4,6,6.3,6,6.1z M5.8,9.4   C5.6,9.5,5.5,9.5,5.4,9.5l0-0.1c0-0.1,0.1-0.2,0.2-0.2c0.1,0,0.1-0.1,0.1-0.2c0-0.1-0.1-0.1-0.1-0.1c-0.2,0-0.6-0.1-0.7-0.4   c0-0.1,0-0.2,0-0.3C4.9,7.9,5,7.9,5.3,8l0.2,0c0.1-0.1,0.1-0.2,0.1-0.3c0-0.2,0-0.3,0.1-0.3c0.2-0.1,0.4,0.1,0.6,0.2l0.3,0.3   l0.1,0.1c0.1,0.1,0.3,0,0.5,0c0,0,0.2-0.1,0.2-0.1c0,0,0,0,0,0c0,0.1,0,0.2,0,0.2c0,0.1,0.1,0.2,0.1,0.3C7.3,8.6,7.2,8.7,7.1,8.9   c0,0.1,0,0.1,0,0.2c0,0.3,0.3,0.5,0.4,0.6c0,0,0,0,0,0c0,0,0,0.1,0,0.1c0,0,0,0,0,0.1C7.5,9.9,7.4,10,7.4,10c-0.1,0-0.4,0-0.6,0.3   c0,0,0,0,0,0c-0.1-0.1-0.2-0.2-0.2-0.2c0.1-0.2,0.3-0.4,0.1-0.6C6.5,9.2,6.1,9.3,5.8,9.4z M3.9,10.9c0.1-0.1,0.3,0,0.4,0l0.4,0   c0.2-0.1,0.1-0.3,0.1-0.4c0-0.3,0-0.3,0.1-0.3c0.2,0,0.5,0.2,0.6,0.3c0.1,0.1,0.2,0.2,0.3,0.2C6,10.7,6,10.5,6,10.4   c0-0.1,0.1-0.2,0.1-0.2c0.1,0,0.4,0.2,0.6,0.6c0,0,0,0,0,0c0,0,0,0.1,0,0.1c0,0,0.1,0.2,0.1,0.2L7,11.4c-0.1,0-0.3-0.1-0.5-0.1   c-0.4-0.1-1.4,0-1.4,0.1c0,0.1,0.9,0.1,1.2,0.2c0.1,0,0.1,0,0.2,0c-0.1,0.1-0.2,0.3-0.2,0.4c0,0,0,0.1,0,0.1c0,0,0,0,0,0.1   c0,0,0,0,0,0c-0.2-0.1-0.5-0.3-0.8-0.2c0,0-0.1,0-0.2,0l-0.2,0.1c-0.2,0.2-0.4,0.2-0.6,0.1c-0.1-0.1-0.1-0.1,0.1-0.3   c0.1-0.1,0.2-0.2,0.1-0.3l-0.3-0.1C4,11.4,3.8,11.3,3.9,11C3.9,10.9,3.9,10.9,3.9,10.9z"/>
</g>
<g>
	<path fill="#000000" d="M49.9,23.5c-0.3,0-0.6,0.1-1,0.1c-0.3,0-0.7,0-1.1,0c-0.4,0-0.7,0-1,0c-0.3,0-0.7,0-1-0.1   c0,0.1,0,0.1,0,0.2c0,0.1,0,0.1,0,0.1c0,0.2,0.1,0.3,0.2,0.3c0.5,0.1,0.8,0.1,1,0.3c0.2,0.1,0.3,0.3,0.3,0.5v5.6   c0,1.4-0.3,2.4-0.8,3c-0.5,0.6-1.4,0.9-2.6,0.9c-1.2,0-2.1-0.3-2.6-1c-0.5-0.7-0.7-1.6-0.7-2.9v-5.6c0-0.2,0.1-0.4,0.3-0.5   c0.2-0.1,0.5-0.2,1.1-0.3c0.1,0,0.2-0.1,0.2-0.3c0,0,0-0.1,0-0.1c0-0.1,0-0.1,0-0.2c-0.4,0-0.8,0-1.3,0.1c-0.5,0-1,0-1.4,0   c-0.6,0-1.1,0-1.5,0c-0.4,0-0.8,0-1.2-0.1c0,0.1,0,0.1,0,0.2c0,0.1,0,0.1,0,0.1c0,0.2,0.1,0.3,0.2,0.3c0.5,0.1,0.9,0.1,1,0.2   c0.2,0.1,0.3,0.3,0.3,0.5v6c0,0.6,0.1,1.2,0.2,1.8c0.1,0.6,0.4,1.1,0.8,1.5c0.4,0.4,0.9,0.7,1.6,1c0.7,0.2,1.6,0.4,2.8,0.4   c1,0,1.8-0.1,2.4-0.3c0.6-0.2,1.2-0.6,1.5-1c0.4-0.4,0.6-0.9,0.8-1.5c0.2-0.6,0.2-1.2,0.2-1.9v-5.9c0-0.2,0.1-0.4,0.3-0.5   c0.2-0.1,0.5-0.2,1-0.2c0.2,0,0.2-0.2,0.2-0.3c0,0,0-0.1,0-0.1C50,23.6,50,23.6,49.9,23.5z"/>
	<path fill="#000000" d="M65.7,23.5c-0.3,0-0.6,0.1-0.9,0.1c-0.3,0-0.7,0-1.1,0c-0.4,0-0.8,0-1.1,0c-0.3,0-0.6,0-1-0.1   c0,0.1,0,0.1,0,0.2c0,0.1,0,0.1,0,0.1c0,0.2,0.1,0.3,0.3,0.3c0.5,0.1,0.8,0.1,1,0.3c0.2,0.1,0.3,0.3,0.3,0.6v6.4l-6.4-7.6   c-0.1-0.1-0.2-0.1-0.3-0.2c-0.1,0-0.4,0-0.7,0c-0.2,0-0.4,0-0.7,0c-0.3,0-0.6,0-0.9,0c-0.2,0-0.3,0-0.5,0c-0.2,0-0.3,0-0.5,0l0,0.1   c0,0,0,0.1,0,0.1c0,0,0,0.1,0,0.1c0,0.2,0.1,0.3,0.2,0.3c0.5,0.1,0.8,0.1,0.9,0.2c0.1,0.1,0.2,0.3,0.2,0.4V34   c0,0.2-0.1,0.4-0.2,0.5c-0.2,0.1-0.5,0.2-0.9,0.3c-0.1,0-0.1,0-0.2,0.1c0,0-0.1,0.1-0.1,0.3c0,0,0,0.1,0,0.1c0,0.1,0,0.1,0,0.2   c0.3,0,0.6,0,0.9-0.1c0.3,0,0.7,0,1.1,0c0.4,0,0.7,0,1,0c0.3,0,0.6,0,0.9,0.1c0-0.1,0-0.2,0-0.3c0-0.1,0-0.2-0.1-0.3   c0,0-0.1-0.1-0.2-0.1c-0.3,0-0.5-0.1-0.6-0.1s-0.3-0.1-0.4-0.1c-0.1-0.1-0.1-0.1-0.2-0.2c0-0.1,0-0.2,0-0.3v-7.8l7.6,9.1   c0.1,0.1,0.2,0.2,0.3,0.3c0.1,0,0.2,0.1,0.3,0.1c0,0,0.1,0,0.2,0c0.1,0,0.2,0,0.3,0V24.9c0-0.2,0.1-0.4,0.2-0.5   c0.2-0.1,0.4-0.2,0.9-0.3c0.2,0,0.2-0.1,0.2-0.3c0,0,0-0.1,0-0.1C65.7,23.6,65.7,23.6,65.7,23.5z"/>
	<path fill="#000000" d="M72.7,24.6c0-0.1,0.1-0.1,0.2-0.2c0.1-0.1,0.2-0.1,0.4-0.2s0.4-0.1,0.6-0.1c0.1,0,0.2-0.1,0.2-0.3   c0,0,0-0.1,0-0.2c0-0.1,0-0.1,0-0.2c-0.4,0-0.9,0-1.3,0.1c-0.5,0-0.9,0-1.3,0c-0.4,0-0.8,0-1.3,0c-0.5,0-0.9,0-1.3-0.1   c0,0.1,0,0.1,0,0.2c0,0.1,0,0.1,0,0.2c0,0.2,0.1,0.3,0.2,0.3c0.3,0,0.5,0.1,0.6,0.1s0.3,0.1,0.4,0.2c0.1,0.1,0.1,0.1,0.2,0.2   c0,0.1,0,0.2,0,0.3V34c0,0.1,0,0.2,0,0.3c0,0.1-0.1,0.1-0.2,0.2c-0.1,0.1-0.2,0.1-0.4,0.2c-0.2,0-0.4,0.1-0.6,0.1   c-0.1,0-0.2,0.1-0.2,0.3c0,0,0,0.1,0,0.2c0,0.1,0,0.1,0,0.2c0.4,0,0.9,0,1.3-0.1c0.5,0,0.9,0,1.3,0c0.4,0,0.8,0,1.3,0   c0.5,0,0.9,0,1.3,0.1c0,0,0-0.1,0-0.2c0-0.1,0-0.1,0-0.2c0-0.2-0.1-0.3-0.2-0.3c-0.3,0-0.5-0.1-0.6-0.1c-0.2,0-0.3-0.1-0.4-0.2   c-0.1-0.1-0.1-0.1-0.2-0.2c0-0.1,0-0.2,0-0.3v-9.1C72.7,24.8,72.7,24.7,72.7,24.6z"/>
	<path fill="#000000" d="M89.5,23.5c-0.2,0-0.5,0.1-0.9,0.1c-0.3,0-0.7,0-1.1,0c-0.2,0-0.4,0-0.6,0c-0.2,0-0.4,0-0.6,0   c-0.2,0-0.4,0-0.6,0c-0.2,0-0.3,0-0.4,0l0,0.1c0,0,0,0.1,0,0.1c0,0,0,0.1,0,0.1c0,0.2,0.1,0.3,0.2,0.3c0.4,0,0.7,0.1,0.9,0.2   c0.2,0.1,0.3,0.2,0.3,0.4c0,0.1,0,0.2-0.1,0.4l-3,7L80.8,25c0-0.1-0.1-0.2-0.1-0.3c0-0.1,0.1-0.3,0.3-0.3c0.2-0.1,0.5-0.1,0.9-0.2   c0.2,0,0.2-0.1,0.2-0.3c0,0,0-0.1,0-0.1c0-0.1,0-0.1,0-0.2c-0.4,0-0.9,0-1.4,0.1c-0.5,0-1,0-1.4,0c-0.2,0-0.4,0-0.6,0   c-0.2,0-0.5,0-0.7,0c-0.3,0-0.5,0-0.7,0c-0.2,0-0.5,0-0.7,0c0,0,0,0.1,0,0.2s0,0.1,0,0.2c0,0.2,0.1,0.4,0.3,0.4   c0.2,0,0.4,0.1,0.6,0.1c0.1,0,0.3,0.1,0.4,0.1c0.1,0,0.2,0.1,0.2,0.2c0,0.1,0.1,0.1,0.1,0.2l4.5,10.5c0.1,0.1,0.1,0.2,0.1,0.3   c0,0,0.1,0.1,0.2,0.1c0.1,0,0.1,0,0.1,0c0,0,0.1,0,0.2,0l4.8-10.7c0.1-0.2,0.2-0.4,0.4-0.5c0.2-0.1,0.5-0.2,0.9-0.2   c0.2,0,0.2-0.1,0.2-0.4c0,0,0-0.1,0-0.1c0,0,0-0.1,0-0.1L89.5,23.5z"/>
	<path fill="#000000" d="M102.1,32.4c-0.1,0-0.2,0-0.3,0.1c-0.2,0.3-0.3,0.6-0.5,0.8c-0.2,0.2-0.3,0.4-0.5,0.6   c-0.2,0.2-0.4,0.3-0.7,0.4c-0.3,0.1-0.6,0.1-1,0.1h-0.8c-0.8,0-1.4,0-1.7-0.1c-0.3-0.1-0.5-0.3-0.5-0.5v-4.1h2.7   c0.2,0,0.4,0.1,0.5,0.2c0.1,0.2,0.2,0.5,0.3,0.9c0,0.2,0.1,0.3,0.4,0.3c0,0,0.1,0,0.2,0c0.1,0,0.1,0,0.2,0c0-0.4-0.1-0.7-0.1-1   c0-0.3,0-0.6,0-0.8c0-0.3,0-0.6,0-0.9c0-0.4,0-0.7,0.1-1c0,0-0.1,0-0.2,0c-0.1,0-0.1,0-0.2,0c-0.1,0-0.2,0-0.3,0   c-0.1,0-0.1,0.1-0.1,0.2c-0.1,0.4-0.1,0.7-0.2,0.9c-0.1,0.2-0.3,0.3-0.5,0.3h-2.7v-4.4h2.6c0.3,0,0.6,0,0.9,0.1   c0.3,0.1,0.5,0.2,0.7,0.3c0.2,0.1,0.4,0.3,0.5,0.5c0.1,0.2,0.3,0.5,0.5,0.8c0.1,0.1,0.2,0.2,0.3,0.2c0.1,0,0.2,0,0.2,0   c0.1,0,0.1,0,0.2-0.1c-0.1-0.3-0.2-0.5-0.2-0.7c-0.1-0.2-0.1-0.4-0.1-0.6c-0.1-0.3-0.1-0.5-0.1-0.8c0-0.3-0.1-0.4-0.1-0.5   c-0.1-0.1-0.2-0.2-0.3-0.2c-0.2,0-0.4,0-0.9,0.1c-0.4,0-0.9,0.1-1.5,0.1h-4c-0.3,0-0.7,0-1.1,0c-0.4,0-0.9,0-1.5-0.1   c0,0.1,0,0.1,0,0.2c0,0.1,0,0.1,0,0.2c0,0.2,0.1,0.3,0.2,0.3c0.3,0,0.5,0.1,0.7,0.1c0.2,0,0.3,0.1,0.4,0.1c0.1,0.1,0.2,0.1,0.2,0.2   c0,0.1,0.1,0.2,0.1,0.3V34c0,0.2-0.1,0.4-0.3,0.5c-0.2,0.1-0.6,0.2-1.1,0.3c-0.1,0-0.2,0.1-0.2,0.3c0,0,0,0.1,0,0.2   c0,0.1,0,0.1,0,0.2c0.4,0,0.8,0,1.3-0.1c0.5,0,0.9,0,1.3,0h4.4c0.2,0,0.4,0,0.6,0c0.2,0,0.5,0,0.7,0c0.2,0,0.4,0,0.6,0   c0.2,0,0.3,0,0.4,0c0.2,0,0.3,0,0.3-0.1c0,0,0-0.1,0.1-0.2c0-0.1,0.1-0.2,0.1-0.4c0-0.1,0.1-0.3,0.1-0.4c0-0.2,0.1-0.3,0.1-0.4   c0-0.1,0.1-0.2,0.1-0.4c0-0.2,0.1-0.3,0.2-0.4c0-0.1,0.1-0.2,0.1-0.3c0-0.1,0.1-0.2,0.1-0.3c-0.1,0-0.2-0.1-0.3-0.1   C102.2,32.4,102.1,32.4,102.1,32.4z"/>
	<path fill="#000000" d="M117.7,34.8c-0.3-0.1-0.5-0.2-0.8-0.3c-0.3-0.1-0.6-0.3-0.8-0.7l-3-4.1c0.7-0.3,1.3-0.7,1.7-1.2   c0.4-0.5,0.6-1.1,0.6-1.7c0-0.5-0.1-0.9-0.3-1.3c-0.2-0.4-0.5-0.7-0.9-1c-0.4-0.3-0.8-0.5-1.4-0.7s-1.2-0.2-1.8-0.2H108   c-0.4,0-0.8,0-1.3,0c-0.5,0-0.9,0-1.3-0.1c0,0,0,0.1,0,0.1s0,0.1,0,0.2c0,0.1,0,0.2,0.1,0.3c0,0,0.1,0.1,0.2,0.1   c0.5,0.1,0.9,0.1,1.1,0.3c0.2,0.1,0.3,0.3,0.3,0.5V34c0,0.1,0,0.2,0,0.3c0,0.1-0.1,0.1-0.2,0.2c-0.1,0.1-0.2,0.1-0.4,0.1   s-0.4,0.1-0.7,0.1c-0.1,0-0.2,0.1-0.2,0.3c0,0,0,0.1,0,0.1c0,0.1,0,0.1,0,0.2c0.4,0,0.8,0,1.2-0.1c0.4,0,0.9,0,1.3,0   c0.7,0,1.3,0,1.8,0c0.6,0,1,0,1.4,0.1c0-0.1,0-0.2,0-0.3c0-0.2-0.1-0.3-0.3-0.4c-0.6-0.1-1-0.2-1.3-0.3s-0.4-0.3-0.4-0.6v-3.8h0.8   l3,4.1c0.3,0.4,0.5,0.6,0.8,0.8c0.3,0.2,0.5,0.3,0.8,0.3c0.2,0,0.4,0,0.7,0c0.3,0,0.6,0,0.8,0c0.3,0,0.5,0,0.8,0c0.3,0,0.5,0,0.6,0   c0-0.1,0-0.1,0-0.2s0-0.1,0-0.2c0-0.1,0-0.2-0.1-0.2C117.8,34.9,117.8,34.9,117.7,34.8z M112.5,28c-0.1,0.3-0.3,0.5-0.5,0.7   c-0.2,0.2-0.5,0.3-0.8,0.4c-0.3,0.1-0.7,0.1-1.1,0.1h-0.6v-4.7h0.6c1,0,1.7,0.2,2.1,0.7c0.4,0.4,0.6,1,0.6,1.8   C112.7,27.4,112.6,27.7,112.5,28z"/>
	<path fill="#000000" d="M127.2,29.2c-0.5-0.3-1-0.5-1.6-0.7c-0.6-0.2-1.1-0.4-1.6-0.6c-0.5-0.2-0.9-0.4-1.2-0.7   c-0.3-0.3-0.5-0.6-0.5-1.1c0-0.6,0.2-1,0.6-1.3c0.4-0.3,1-0.4,1.6-0.4c0.8,0,1.4,0.2,1.9,0.5c0.5,0.3,0.9,0.8,1.2,1.5   c0,0.1,0.1,0.1,0.2,0.2c0.1,0.1,0.2,0.1,0.4,0.1c0.1,0,0.3,0,0.4-0.1c-0.1-0.4-0.1-0.8-0.2-1.2c-0.1-0.5-0.1-0.9-0.1-1.2   c-0.7-0.3-1.3-0.4-1.9-0.5c-0.5-0.1-1.1-0.2-1.6-0.2c-0.7,0-1.2,0.1-1.8,0.3c-0.5,0.2-0.9,0.4-1.3,0.7c-0.4,0.3-0.6,0.7-0.8,1.1   c-0.2,0.4-0.3,0.9-0.3,1.4c0,0.7,0.2,1.3,0.5,1.7c0.3,0.4,0.7,0.8,1.2,1.1c0.5,0.3,1,0.5,1.5,0.7c0.5,0.2,1.1,0.4,1.5,0.6   c0.5,0.2,0.9,0.4,1.2,0.7c0.3,0.3,0.5,0.7,0.5,1.2c0,0.2,0,0.5-0.1,0.7c-0.1,0.2-0.2,0.4-0.4,0.6c-0.2,0.2-0.4,0.3-0.7,0.4   c-0.3,0.1-0.6,0.2-1,0.2c-0.5,0-0.9,0-1.2-0.1c-0.4-0.1-0.7-0.2-0.9-0.5c-0.3-0.2-0.5-0.5-0.7-0.8c-0.2-0.3-0.4-0.7-0.6-1.2   c-0.1-0.1-0.1-0.2-0.2-0.3c-0.1-0.1-0.2-0.1-0.3-0.1c-0.2,0-0.3,0-0.4,0.1c0.1,0.5,0.2,1,0.3,1.5c0.1,0.5,0.1,1,0.2,1.5   c0.4,0.2,1,0.4,1.7,0.6c0.7,0.2,1.4,0.3,2.3,0.3c0.8,0,1.4-0.1,2-0.3c0.6-0.2,1-0.5,1.4-0.8c0.4-0.3,0.6-0.7,0.8-1.2   c0.2-0.4,0.3-0.9,0.3-1.3c0-0.7-0.2-1.3-0.5-1.7C128.2,29.8,127.7,29.5,127.2,29.2z"/>
	<path fill="#000000" d="M136,24.6c0-0.1,0.1-0.1,0.2-0.2c0.1-0.1,0.2-0.1,0.4-0.2c0.2,0,0.4-0.1,0.6-0.1c0.1,0,0.2-0.1,0.2-0.3   c0,0,0-0.1,0-0.2c0-0.1,0-0.1,0-0.2c-0.4,0-0.9,0-1.3,0.1c-0.5,0-0.9,0-1.3,0c-0.4,0-0.8,0-1.3,0c-0.5,0-0.9,0-1.3-0.1   c0,0.1,0,0.1,0,0.2c0,0.1,0,0.1,0,0.2c0,0.2,0.1,0.3,0.2,0.3c0.3,0,0.5,0.1,0.6,0.1s0.3,0.1,0.4,0.2c0.1,0.1,0.1,0.1,0.2,0.2   c0,0.1,0,0.2,0,0.3V34c0,0.1,0,0.2,0,0.3c0,0.1-0.1,0.1-0.2,0.2c-0.1,0.1-0.2,0.1-0.4,0.2c-0.2,0-0.4,0.1-0.6,0.1   c-0.1,0-0.2,0.1-0.2,0.3c0,0,0,0.1,0,0.2c0,0.1,0,0.1,0,0.2c0.4,0,0.9,0,1.3-0.1c0.5,0,0.9,0,1.3,0c0.4,0,0.8,0,1.3,0   c0.5,0,0.9,0,1.3,0.1c0,0,0-0.1,0-0.2c0-0.1,0-0.1,0-0.2c0-0.2-0.1-0.3-0.2-0.3c-0.3,0-0.5-0.1-0.6-0.1c-0.2,0-0.3-0.1-0.4-0.2   c-0.1-0.1-0.1-0.1-0.2-0.2c0-0.1,0-0.2,0-0.3v-9.1C136,24.8,136,24.7,136,24.6z"/>
	<path fill="#000000" d="M152.2,24.9c-0.1-0.3-0.1-0.5-0.1-0.7c0-0.2,0-0.4-0.1-0.5c-0.1-0.1-0.2-0.2-0.3-0.2c-0.2,0-0.4,0-0.9,0.1   c-0.4,0-0.9,0.1-1.5,0.1h-6c-0.6,0-1.1,0-1.5-0.1c-0.4,0-0.7-0.1-0.8-0.1c-0.2,0-0.3,0.1-0.3,0.2c0,0.1-0.1,0.3-0.1,0.5   s-0.1,0.5-0.1,0.7c0,0.2-0.1,0.4-0.2,0.7s-0.1,0.5-0.2,0.8c0.1,0,0.1,0.1,0.2,0.1s0.2,0,0.3,0c0.1,0,0.2-0.1,0.3-0.2   c0.2-0.3,0.3-0.6,0.5-0.8c0.1-0.2,0.3-0.4,0.5-0.5c0.2-0.1,0.4-0.2,0.7-0.3c0.3-0.1,0.6-0.1,0.9-0.1h1.7V34c0,0.2-0.1,0.4-0.2,0.5   c-0.1,0.1-0.4,0.2-0.9,0.2c-0.1,0-0.2,0.1-0.3,0.1c0,0.1,0,0.1,0,0.2c0,0,0,0.1,0,0.2c0,0.1,0,0.1,0,0.2c0.4,0,0.9,0,1.3-0.1   c0.5,0,0.9,0,1.3,0c0.4,0,0.8,0,1.3,0c0.5,0,0.9,0,1.3,0.1c0,0,0-0.1,0-0.2c0-0.1,0-0.1,0-0.2c0-0.2-0.1-0.3-0.3-0.3   c-0.3,0-0.5-0.1-0.6-0.1c-0.1,0-0.3-0.1-0.3-0.2c-0.1-0.1-0.1-0.1-0.1-0.2c0-0.1,0-0.2,0-0.3v-9.5h1.7c0.3,0,0.6,0,0.9,0.1   s0.5,0.2,0.7,0.3c0.2,0.1,0.4,0.3,0.5,0.5c0.1,0.2,0.3,0.5,0.5,0.8c0.1,0.1,0.2,0.2,0.3,0.2c0.1,0,0.2,0,0.3,0   c0.1,0,0.2-0.1,0.2-0.1c-0.1-0.3-0.2-0.5-0.2-0.8C152.2,25.3,152.2,25.1,152.2,24.9z"/>
	<path fill="#000000" d="M165.4,23.6c-0.3,0-0.6,0-0.9,0c-0.3,0-0.7,0-1.1,0c-0.4,0-0.7,0-1-0.1c0,0.2-0.1,0.3-0.1,0.3   c0,0.2,0.1,0.3,0.3,0.3c0.3,0.1,0.6,0.1,0.7,0.2c0.1,0.1,0.2,0.2,0.2,0.3c0,0.2-0.1,0.4-0.2,0.6l-2.2,3.9l-2.3-4.2   c-0.1-0.2-0.1-0.3-0.1-0.4c0-0.1,0.1-0.2,0.2-0.3c0.1-0.1,0.4-0.1,0.7-0.2c0.2,0,0.2-0.1,0.2-0.3c0,0,0-0.1,0-0.1c0,0,0-0.1,0-0.2   c-0.1,0-0.3,0-0.6,0c-0.2,0-0.5,0-0.7,0c-0.3,0-0.5,0-0.8,0c-0.3,0-0.5,0-0.6,0c-0.5,0-1,0-1.5,0c-0.4,0-0.8,0-1.1-0.1l0,0.1   c0,0,0,0.1,0,0.1c0,0,0,0.1,0,0.1c0,0.2,0.1,0.3,0.2,0.4c0.3,0,0.6,0.1,0.8,0.2s0.4,0.3,0.5,0.5l3.1,5.5V34c0,0.1,0,0.2-0.1,0.3   c0,0.1-0.1,0.2-0.2,0.2c-0.1,0.1-0.2,0.1-0.4,0.1c-0.2,0-0.4,0.1-0.7,0.1c-0.1,0-0.1,0-0.2,0.1c0,0-0.1,0.1-0.1,0.3   c0,0,0,0.1,0,0.1c0,0,0,0.1,0,0.1l0,0.1c0.2,0,0.3,0,0.5,0c0.2,0,0.3,0,0.5,0c0.3,0,0.6,0,0.9,0c0.3,0,0.6,0,0.8,0   c0.2,0,0.5,0,0.8,0c0.3,0,0.6,0,1,0c0.2,0,0.4,0,0.5,0c0.2,0,0.4,0,0.6,0l0-0.1c0,0,0-0.1,0-0.1c0,0,0-0.1,0-0.1   c0-0.1,0-0.2-0.1-0.3c0,0-0.1-0.1-0.2-0.1c-0.3,0-0.5-0.1-0.7-0.1c-0.2,0-0.3-0.1-0.4-0.2c-0.1-0.1-0.2-0.1-0.2-0.2   c0-0.1-0.1-0.2-0.1-0.3v-3.6l3.2-5.5c0.1-0.2,0.3-0.4,0.5-0.5c0.2-0.1,0.5-0.2,1-0.2c0.2,0,0.2-0.1,0.2-0.3c0,0,0-0.1,0-0.1   c0-0.1,0-0.1,0-0.2C166.1,23.5,165.7,23.6,165.4,23.6z"/>
	<path fill="#000000" d="M185.7,25.1c-0.6-0.5-1.3-1-2.1-1.3c-0.8-0.3-1.7-0.5-2.6-0.5c-0.9,0-1.8,0.2-2.6,0.5   c-0.8,0.3-1.5,0.8-2.1,1.3c-0.6,0.6-1.1,1.2-1.4,1.9c-0.3,0.7-0.5,1.5-0.5,2.4c0,0.9,0.2,1.7,0.5,2.5c0.3,0.7,0.8,1.4,1.4,1.9   c0.6,0.5,1.3,1,2.1,1.3c0.8,0.3,1.7,0.5,2.6,0.5c0.9,0,1.8-0.2,2.6-0.5c0.8-0.3,1.5-0.8,2.1-1.3c0.6-0.5,1.1-1.2,1.4-1.9   c0.3-0.7,0.5-1.5,0.5-2.4c0-0.9-0.2-1.7-0.5-2.4C186.8,26.3,186.3,25.6,185.7,25.1z M184.7,32c-0.2,0.5-0.4,1-0.7,1.4   c-0.3,0.4-0.7,0.7-1.1,0.9s-0.9,0.3-1.5,0.3c-0.7,0-1.2-0.2-1.8-0.5c-0.5-0.3-1-0.7-1.3-1.3c-0.4-0.5-0.6-1.2-0.8-2   c-0.2-0.8-0.3-1.6-0.3-2.5c0-0.6,0.1-1.2,0.3-1.7c0.2-0.5,0.5-0.9,0.8-1.3s0.7-0.6,1.1-0.8c0.4-0.2,0.9-0.3,1.3-0.3   c0.7,0,1.3,0.2,1.9,0.5c0.5,0.3,1,0.7,1.3,1.3c0.4,0.5,0.6,1.2,0.8,1.9s0.3,1.5,0.3,2.4C184.9,30.9,184.8,31.5,184.7,32z"/>
	<path fill="#000000" d="M200.2,25c-0.1-0.3-0.1-0.5-0.1-0.8c0-0.3-0.1-0.4-0.1-0.5c-0.1-0.1-0.2-0.2-0.3-0.2c-0.1,0-0.4,0-0.8,0.1   c-0.4,0-0.9,0.1-1.5,0.1h-4c-0.3,0-0.7,0-1.1,0c-0.4,0-0.9,0-1.5-0.1c0,0.1,0,0.1,0,0.2c0,0.1,0,0.1,0,0.2c0,0.2,0.1,0.3,0.2,0.3   c0.3,0,0.5,0.1,0.7,0.1c0.2,0,0.3,0.1,0.4,0.2c0.1,0.1,0.2,0.1,0.2,0.2c0,0.1,0,0.2,0,0.3V34c0,0.2-0.1,0.4-0.4,0.5   c-0.2,0.1-0.6,0.2-1,0.3c-0.1,0-0.2,0.1-0.2,0.3c0,0,0,0.1,0,0.2c0,0.1,0,0.1,0,0.2c0.2,0,0.4,0,0.6,0c0.2,0,0.5,0,0.7,0   c0.2,0,0.5,0,0.7,0c0.2,0,0.4,0,0.6,0c0.4,0,0.8,0,1.1,0c0.4,0,0.7,0,1.1,0c0.2,0,0.4,0,0.5,0s0.4,0,0.5,0c0,0,0-0.1,0-0.2   c0-0.1,0-0.1,0-0.2c0-0.2-0.1-0.3-0.2-0.3c-0.2,0-0.5-0.1-0.7-0.1c-0.2,0-0.4-0.1-0.5-0.1c-0.2-0.1-0.3-0.1-0.4-0.2   c-0.1-0.1-0.1-0.2-0.1-0.3V30h2.7c0.2,0,0.4,0.1,0.5,0.3c0.1,0.2,0.2,0.5,0.2,0.9c0,0.2,0.2,0.3,0.4,0.3c0,0,0.1,0,0.2,0   c0.1,0,0.1,0,0.2,0c0-0.4-0.1-0.7-0.1-1c0-0.3,0-0.6,0-0.8c0-0.3,0-0.6,0-0.9c0-0.4,0-0.7,0.1-1c0,0-0.1,0-0.2,0   c-0.1,0-0.1,0-0.2,0c-0.2,0-0.3,0.1-0.4,0.2c-0.1,0.4-0.1,0.7-0.2,0.9c-0.1,0.2-0.3,0.3-0.5,0.3h-2.7v-4.6h2.6c0.4,0,0.7,0,0.9,0.1   c0.3,0.1,0.5,0.2,0.7,0.3c0.2,0.1,0.4,0.3,0.5,0.5c0.1,0.2,0.3,0.5,0.5,0.8c0.1,0.1,0.1,0.2,0.3,0.2c0.1,0,0.2,0,0.2,0   c0.1,0,0.2,0,0.2-0.1c-0.1-0.3-0.2-0.5-0.2-0.7C200.3,25.4,200.3,25.2,200.2,25z"/>
	<path fill="#000000" d="M220.7,24.9c-0.1-0.3-0.1-0.5-0.1-0.7s0-0.4-0.1-0.5c-0.1-0.1-0.2-0.2-0.3-0.2c-0.2,0-0.4,0-0.9,0.1   c-0.4,0-0.9,0.1-1.5,0.1h-6c-0.6,0-1.1,0-1.5-0.1c-0.4,0-0.7-0.1-0.8-0.1c-0.2,0-0.3,0.1-0.3,0.2c0,0.1-0.1,0.3-0.1,0.5   c0,0.2-0.1,0.5-0.1,0.7c0,0.2-0.1,0.4-0.2,0.7c-0.1,0.2-0.1,0.5-0.2,0.8c0.1,0,0.1,0.1,0.2,0.1c0.1,0,0.2,0,0.3,0   c0.1,0,0.2-0.1,0.3-0.2c0.2-0.3,0.3-0.6,0.5-0.8c0.1-0.2,0.3-0.4,0.5-0.5c0.2-0.1,0.4-0.2,0.7-0.3c0.3-0.1,0.6-0.1,0.9-0.1h1.7V34   c0,0.2-0.1,0.4-0.2,0.5c-0.1,0.1-0.4,0.2-0.9,0.2c-0.1,0-0.2,0.1-0.3,0.1c0,0.1,0,0.1,0,0.2c0,0,0,0.1,0,0.2c0,0.1,0,0.1,0,0.2   c0.4,0,0.9,0,1.3-0.1c0.5,0,0.9,0,1.3,0c0.4,0,0.8,0,1.3,0c0.5,0,0.9,0,1.3,0.1c0,0,0-0.1,0-0.2c0-0.1,0-0.1,0-0.2   c0-0.2-0.1-0.3-0.3-0.3c-0.3,0-0.5-0.1-0.6-0.1c-0.1,0-0.3-0.1-0.3-0.2c-0.1-0.1-0.1-0.1-0.1-0.2c0-0.1,0-0.2,0-0.3v-9.5h1.7   c0.3,0,0.6,0,0.9,0.1c0.3,0.1,0.5,0.2,0.7,0.3c0.2,0.1,0.4,0.3,0.5,0.5c0.1,0.2,0.3,0.5,0.5,0.8c0.1,0.1,0.2,0.2,0.3,0.2   c0.1,0,0.2,0,0.3,0c0.1,0,0.2-0.1,0.2-0.1c-0.1-0.3-0.2-0.5-0.2-0.8S220.8,25.1,220.7,24.9z"/>
	<path fill="#000000" d="M234.8,25.1c-0.6-0.5-1.3-1-2.1-1.3c-0.8-0.3-1.7-0.5-2.6-0.5c-0.9,0-1.8,0.2-2.5,0.5   c-0.8,0.3-1.5,0.8-2.1,1.3c-0.6,0.6-1.1,1.2-1.4,1.9c-0.3,0.7-0.5,1.5-0.5,2.4c0,0.9,0.2,1.7,0.5,2.5c0.3,0.7,0.8,1.4,1.4,1.9   c0.6,0.5,1.3,1,2.1,1.3c0.8,0.3,1.7,0.5,2.6,0.5c0.9,0,1.8-0.2,2.6-0.5c0.8-0.3,1.5-0.8,2.1-1.3c0.6-0.5,1.1-1.2,1.4-1.9   c0.3-0.7,0.5-1.5,0.5-2.4c0-0.9-0.2-1.7-0.5-2.4C235.9,26.3,235.4,25.6,234.8,25.1z M233.8,32c-0.2,0.5-0.4,1-0.7,1.4   c-0.3,0.4-0.7,0.7-1.1,0.9c-0.4,0.2-0.9,0.3-1.5,0.3c-0.7,0-1.2-0.2-1.8-0.5c-0.5-0.3-1-0.7-1.3-1.3c-0.4-0.5-0.6-1.2-0.8-2   s-0.3-1.6-0.3-2.5c0-0.6,0.1-1.2,0.3-1.7c0.2-0.5,0.5-0.9,0.8-1.3c0.3-0.4,0.7-0.6,1.1-0.8c0.4-0.2,0.9-0.3,1.3-0.3   c0.7,0,1.3,0.2,1.9,0.5c0.5,0.3,1,0.7,1.3,1.3c0.4,0.5,0.6,1.2,0.8,1.9s0.3,1.5,0.3,2.4C234,30.9,234,31.5,233.8,32z"/>
	<path fill="#000000" d="M252.1,34.8c-0.3-0.1-0.5-0.2-0.8-0.3c-0.3-0.1-0.6-0.3-0.8-0.7l-3-4.1c0.7-0.3,1.3-0.7,1.7-1.2   c0.4-0.5,0.6-1.1,0.6-1.7c0-0.5-0.1-0.9-0.3-1.3s-0.5-0.7-0.9-1c-0.4-0.3-0.8-0.5-1.4-0.7c-0.5-0.2-1.2-0.2-1.8-0.2h-2.9   c-0.4,0-0.8,0-1.3,0c-0.5,0-0.9,0-1.3-0.1c0,0,0,0.1,0,0.1s0,0.1,0,0.2c0,0.1,0,0.2,0.1,0.3c0,0,0.1,0.1,0.2,0.1   c0.5,0.1,0.9,0.1,1.1,0.3c0.2,0.1,0.3,0.3,0.3,0.5V34c0,0.1,0,0.2,0,0.3c0,0.1-0.1,0.1-0.2,0.2c-0.1,0.1-0.2,0.1-0.4,0.1   c-0.2,0-0.4,0.1-0.7,0.1c-0.1,0-0.2,0.1-0.2,0.3c0,0,0,0.1,0,0.1c0,0.1,0,0.1,0,0.2c0.4,0,0.8,0,1.2-0.1c0.4,0,0.9,0,1.3,0   c0.7,0,1.3,0,1.8,0c0.6,0,1,0,1.4,0.1c0-0.1,0-0.2,0-0.3c0-0.2-0.1-0.3-0.3-0.4c-0.6-0.1-1-0.2-1.3-0.3s-0.4-0.3-0.4-0.6v-3.8h0.8   l3,4.1c0.3,0.4,0.5,0.6,0.8,0.8c0.3,0.2,0.5,0.3,0.8,0.3c0.2,0,0.4,0,0.7,0c0.3,0,0.6,0,0.8,0c0.3,0,0.5,0,0.8,0c0.3,0,0.5,0,0.6,0   c0-0.1,0-0.1,0-0.2s0-0.1,0-0.2c0-0.1,0-0.2-0.1-0.2C252.2,34.9,252.1,34.9,252.1,34.8z M246.9,28c-0.1,0.3-0.3,0.5-0.5,0.7   c-0.2,0.2-0.5,0.3-0.8,0.4c-0.3,0.1-0.7,0.1-1.1,0.1h-0.6v-4.7h0.6c1,0,1.7,0.2,2.1,0.7c0.4,0.4,0.6,1,0.6,1.8   C247.1,27.4,247,27.7,246.9,28z"/>
	<path fill="#000000" d="M266,25.1c-0.6-0.5-1.3-1-2.1-1.3c-0.8-0.3-1.7-0.5-2.6-0.5c-0.9,0-1.8,0.2-2.6,0.5   c-0.8,0.3-1.5,0.8-2.1,1.3c-0.6,0.6-1.1,1.2-1.4,1.9c-0.3,0.7-0.5,1.5-0.5,2.4c0,0.9,0.2,1.7,0.5,2.5s0.8,1.4,1.4,1.9   c0.6,0.5,1.3,1,2.1,1.3s1.7,0.5,2.6,0.5c0.9,0,1.8-0.2,2.6-0.5c0.8-0.3,1.5-0.8,2.1-1.3c0.6-0.5,1.1-1.2,1.4-1.9   c0.3-0.7,0.5-1.5,0.5-2.4c0-0.9-0.2-1.7-0.5-2.4C267.1,26.3,266.6,25.6,266,25.1z M265,32c-0.2,0.5-0.4,1-0.7,1.4   c-0.3,0.4-0.7,0.7-1.1,0.9c-0.4,0.2-0.9,0.3-1.5,0.3c-0.7,0-1.2-0.2-1.8-0.5c-0.5-0.3-1-0.7-1.3-1.3c-0.4-0.5-0.6-1.2-0.8-2   c-0.2-0.8-0.3-1.6-0.3-2.5c0-0.6,0.1-1.2,0.3-1.7c0.2-0.5,0.5-0.9,0.8-1.3c0.3-0.4,0.7-0.6,1.1-0.8c0.4-0.2,0.9-0.3,1.3-0.3   c0.7,0,1.3,0.2,1.9,0.5c0.5,0.3,1,0.7,1.3,1.3c0.4,0.5,0.6,1.2,0.8,1.9c0.2,0.7,0.3,1.5,0.3,2.4C265.3,30.9,265.2,31.5,265,32z"/>
	<path fill="#000000" d="M283.5,23.5c-0.3,0-0.6,0.1-0.9,0.1c-0.3,0-0.7,0-1.1,0c-0.4,0-0.8,0-1.1,0c-0.3,0-0.6,0-1-0.1   c0,0.1,0,0.1,0,0.2c0,0.1,0,0.1,0,0.1c0,0.2,0.1,0.3,0.3,0.3c0.5,0.1,0.8,0.1,1,0.3c0.2,0.1,0.3,0.3,0.3,0.6v6.4l-6.4-7.6   c-0.1-0.1-0.2-0.1-0.3-0.2c-0.1,0-0.4,0-0.7,0c-0.2,0-0.4,0-0.7,0c-0.3,0-0.6,0-0.9,0c-0.2,0-0.3,0-0.5,0c-0.2,0-0.3,0-0.5,0l0,0.1   c0,0,0,0.1,0,0.1c0,0,0,0.1,0,0.1c0,0.2,0.1,0.3,0.2,0.3c0.5,0.1,0.8,0.1,0.9,0.2c0.1,0.1,0.2,0.3,0.2,0.4V34   c0,0.2-0.1,0.4-0.2,0.5c-0.2,0.1-0.5,0.2-0.9,0.3c-0.1,0-0.1,0-0.2,0.1c0,0-0.1,0.1-0.1,0.3c0,0,0,0.1,0,0.1c0,0.1,0,0.1,0,0.2   c0.3,0,0.6,0,0.9-0.1c0.3,0,0.7,0,1.1,0c0.4,0,0.7,0,1,0c0.3,0,0.6,0,0.9,0.1c0-0.1,0-0.2,0-0.3c0-0.1,0-0.2-0.1-0.3   c0,0-0.1-0.1-0.2-0.1c-0.3,0-0.5-0.1-0.6-0.1c-0.2,0-0.3-0.1-0.4-0.1c-0.1-0.1-0.1-0.1-0.2-0.2c0-0.1,0-0.2,0-0.3v-7.8l7.6,9.1   c0.1,0.1,0.2,0.2,0.3,0.3c0.1,0,0.2,0.1,0.3,0.1c0,0,0.1,0,0.2,0c0.1,0,0.2,0,0.3,0V24.9c0-0.2,0.1-0.4,0.2-0.5   c0.2-0.1,0.4-0.2,0.9-0.3c0.2,0,0.2-0.1,0.2-0.3c0,0,0-0.1,0-0.1C283.5,23.6,283.5,23.6,283.5,23.5z"/>
	<path fill="#000000" d="M298.2,24.9c-0.1-0.3-0.1-0.5-0.1-0.7c0-0.2,0-0.4-0.1-0.5c-0.1-0.1-0.2-0.2-0.3-0.2c-0.2,0-0.4,0-0.9,0.1   c-0.4,0-0.9,0.1-1.5,0.1h-6c-0.6,0-1.1,0-1.5-0.1c-0.4,0-0.7-0.1-0.8-0.1c-0.2,0-0.3,0.1-0.3,0.2c0,0.1-0.1,0.3-0.1,0.5   s-0.1,0.5-0.1,0.7c0,0.2-0.1,0.4-0.2,0.7s-0.1,0.5-0.2,0.8c0.1,0,0.1,0.1,0.2,0.1s0.2,0,0.3,0c0.1,0,0.2-0.1,0.3-0.2   c0.2-0.3,0.3-0.6,0.5-0.8c0.1-0.2,0.3-0.4,0.5-0.5c0.2-0.1,0.4-0.2,0.7-0.3c0.3-0.1,0.6-0.1,0.9-0.1h1.7V34c0,0.2-0.1,0.4-0.2,0.5   c-0.1,0.1-0.4,0.2-0.9,0.2c-0.1,0-0.2,0.1-0.3,0.1c0,0.1,0,0.1,0,0.2c0,0,0,0.1,0,0.2c0,0.1,0,0.1,0,0.2c0.4,0,0.9,0,1.3-0.1   c0.5,0,0.9,0,1.3,0c0.4,0,0.8,0,1.3,0c0.5,0,0.9,0,1.3,0.1c0,0,0-0.1,0-0.2c0-0.1,0-0.1,0-0.2c0-0.2-0.1-0.3-0.3-0.3   c-0.3,0-0.5-0.1-0.6-0.1c-0.1,0-0.3-0.1-0.3-0.2c-0.1-0.1-0.1-0.1-0.1-0.2c0-0.1,0-0.2,0-0.3v-9.5h1.7c0.3,0,0.6,0,0.9,0.1   c0.3,0.1,0.5,0.2,0.7,0.3s0.4,0.3,0.5,0.5c0.1,0.2,0.3,0.5,0.5,0.8c0.1,0.1,0.2,0.2,0.3,0.2c0.1,0,0.2,0,0.3,0   c0.1,0,0.2-0.1,0.2-0.1c-0.1-0.3-0.2-0.5-0.2-0.8C298.3,25.3,298.2,25.1,298.2,24.9z"/>
	<path fill="#000000" d="M313.7,27c-0.3-0.7-0.8-1.4-1.4-1.9c-0.6-0.5-1.3-1-2.1-1.3c-0.8-0.3-1.7-0.5-2.6-0.5   c-0.9,0-1.8,0.2-2.6,0.5c-0.8,0.3-1.5,0.8-2.1,1.3c-0.6,0.6-1.1,1.2-1.4,1.9c-0.3,0.7-0.5,1.5-0.5,2.4c0,0.9,0.2,1.7,0.5,2.5   s0.8,1.4,1.4,1.9c0.6,0.5,1.3,1,2.1,1.3s1.7,0.5,2.6,0.5c0.9,0,1.8-0.2,2.6-0.5c0.8-0.3,1.5-0.8,2.1-1.3c0.6-0.5,1.1-1.2,1.4-1.9   c0.3-0.7,0.5-1.5,0.5-2.4C314.2,28.6,314,27.8,313.7,27z M311.2,32c-0.2,0.5-0.4,1-0.7,1.4c-0.3,0.4-0.7,0.7-1.1,0.9   c-0.4,0.2-0.9,0.3-1.5,0.3c-0.7,0-1.2-0.2-1.8-0.5c-0.5-0.3-1-0.7-1.3-1.3c-0.4-0.5-0.6-1.2-0.8-2s-0.3-1.6-0.3-2.5   c0-0.6,0.1-1.2,0.3-1.7c0.2-0.5,0.5-0.9,0.8-1.3c0.3-0.4,0.7-0.6,1.1-0.8c0.4-0.2,0.9-0.3,1.3-0.3c0.7,0,1.3,0.2,1.9,0.5   c0.5,0.3,1,0.7,1.3,1.3c0.4,0.5,0.6,1.2,0.8,1.9c0.2,0.7,0.3,1.5,0.3,2.4C311.5,30.9,311.4,31.5,311.2,32z"/>
</g>
<g>
	<path fill="#000000" d="M45.3,42.5c-0.9-0.4-2.1-0.5-3.8-0.5h-4.6v0.7h0.6c0.3,0,0.6,0.1,0.8,0.3c0.1,0.1,0.2,0.3,0.2,1.1v6.6   c0,0.7-0.1,0.9-0.1,1c-0.2,0.2-0.4,0.3-0.8,0.3h-0.6v0.7H42c2.2,0,3.8-0.6,4.9-1.7c1-1,1.4-2.3,1.4-3.7c0-1.1-0.3-2.1-0.8-2.9   C46.9,43.5,46.2,42.9,45.3,42.5z M46,47.3c0,1.3-0.4,2.4-1.2,3.2c-0.8,0.8-1.8,1.2-2.9,1.2c-0.4,0-0.9-0.1-1.5-0.2v-8.4   c0.5-0.1,1-0.2,1.4-0.2c1.2,0,2.2,0.4,3,1.2C45.6,44.9,46,46,46,47.3z"/>
	<path fill="#000000" d="M59.3,51.7c-0.2-0.1-0.4-0.4-0.8-1.3l-3.8-8.5l-0.1-0.1h-0.6l-3.9,8.6c-0.3,0.7-0.6,1.2-0.9,1.4   c0,0-0.2,0.2-0.8,0.2l-0.2,0v0.7h3.8V52l-0.2,0c-0.6,0-0.8-0.1-0.9-0.2C51,51.7,51,51.6,51,51.5c0-0.1,0-0.3,0.3-0.8l0.7-1.5h3.9   l0.6,1.4c0.2,0.6,0.3,0.8,0.3,1c0,0.1,0,0.2-0.1,0.3c-0.1,0.1-0.3,0.1-0.8,0.2l-0.2,0v0.7h4.7V52l-0.2,0   C59.8,51.9,59.5,51.8,59.3,51.7z M55.5,48.2h-3.1l1.6-3.4L55.5,48.2z"/>
	<path fill="#000000" d="M70.4,49.5c-0.3,0.6-0.5,1.1-0.8,1.3c-0.3,0.3-0.5,0.5-0.8,0.6c-0.3,0.1-0.9,0.2-1.7,0.2h-0.8   c-0.9,0-1.1,0-1.2-0.1c-0.1,0-0.2-0.1-0.2-0.1c0-0.1-0.1-0.3-0.1-0.8v-6.5c0-0.8,0.1-1,0.1-1.1c0.1-0.1,0.2-0.2,0.4-0.3   c0.1-0.1,0.4-0.1,1.1-0.1l0.3,0V42h-5.3v0.7h0.6c0.3,0,0.6,0.1,0.8,0.3c0.1,0.1,0.2,0.3,0.2,1.1v6.6c0,0.7-0.1,0.9-0.1,1   c-0.2,0.2-0.4,0.3-0.8,0.3h-0.6v0.7h8.8l1.1-3.2l-0.7-0.1L70.4,49.5z"/>
	<path fill="#000000" d="M81.3,49.4l-0.1,0.2c-0.3,0.6-0.5,1.1-0.8,1.3c-0.3,0.3-0.5,0.5-0.8,0.6c-0.3,0.1-0.9,0.2-1.7,0.2h-0.8   c-0.9,0-1.1,0-1.2-0.1c-0.1,0-0.2-0.1-0.2-0.1c0-0.1-0.1-0.3-0.1-0.8v-6.5c0-0.8,0.1-1,0.1-1.1c0.1-0.1,0.2-0.2,0.4-0.3   c0.1-0.1,0.4-0.1,1.1-0.1l0.3,0V42h-5.3v0.7h0.6c0.3,0,0.6,0.1,0.8,0.3c0.1,0.1,0.2,0.3,0.2,1.1v6.6c0,0.7-0.1,0.9-0.1,1   c-0.2,0.2-0.4,0.3-0.8,0.3h-0.6v0.7h8.8l1.1-3.2L81.3,49.4z"/>
	<path fill="#000000" d="M92.6,51.7c-0.2-0.1-0.4-0.4-0.8-1.3L88,41.9L88,41.7h-0.6l-3.9,8.6c-0.3,0.7-0.6,1.2-0.9,1.4   c0,0-0.2,0.2-0.8,0.2l-0.2,0v0.7h3.8V52l-0.2,0c-0.6,0-0.8-0.1-0.9-0.2c-0.1-0.1-0.2-0.2-0.2-0.2c0-0.1,0-0.3,0.3-0.8l0.7-1.5h3.9   l0.6,1.4c0.2,0.6,0.3,0.8,0.3,1c0,0.1,0,0.2-0.1,0.3c-0.1,0.1-0.3,0.1-0.8,0.2L89,52v0.7h4.7V52l-0.2,0   C93.1,51.9,92.8,51.8,92.6,51.7z M88.8,48.2h-3.1l1.6-3.4L88.8,48.2z"/>
	<path fill="#000000" d="M109,49.4l-0.1,0.2c-0.3,0.6-0.5,1.1-0.8,1.3c-0.3,0.3-0.5,0.5-0.8,0.6c-0.3,0.1-0.9,0.2-1.7,0.2h-0.8   c-0.9,0-1.1,0-1.2-0.1c-0.1,0-0.2-0.1-0.2-0.1c0-0.1-0.1-0.3-0.1-0.8v-6.5c0-0.8,0.1-1,0.1-1.1c0.1-0.1,0.2-0.2,0.4-0.3   c0.1-0.1,0.4-0.1,1.1-0.1l0.3,0V42h-5.3v0.7h0.6c0.3,0,0.6,0.1,0.8,0.3c0.1,0.1,0.2,0.3,0.2,1.1v6.6c0,0.7-0.1,0.9-0.1,1   c-0.2,0.2-0.4,0.3-0.8,0.3h-0.6v0.7h8.8l1.1-3.2L109,49.4z"/>
	<path fill="#000000" d="M120.4,51.7c-0.2-0.1-0.4-0.4-0.8-1.3l-3.8-8.5l-0.1-0.1h-0.6l-3.9,8.6c-0.3,0.7-0.6,1.2-0.9,1.4   c0,0-0.2,0.2-0.8,0.2l-0.2,0v0.7h3.8V52l-0.2,0c-0.6,0-0.8-0.1-0.9-0.2c-0.1-0.1-0.2-0.2-0.2-0.2c0-0.1,0-0.3,0.3-0.8l0.7-1.5h3.9   l0.6,1.4c0.2,0.6,0.3,0.8,0.3,1c0,0.1,0,0.2-0.1,0.3c-0.1,0.1-0.3,0.1-0.8,0.2l-0.2,0v0.7h4.7V52l-0.2,0   C120.9,51.9,120.6,51.8,120.4,51.7z M116.5,48.2h-3.1l1.6-3.4L116.5,48.2z"/>
	<path fill="#000000" d="M134.1,42.7V42h-4.2v0.7h0.6c0.4,0,0.6,0.1,0.8,0.3c0,0.1,0.2,0.3,0.2,1v5.4l-6.3-7.3l-0.1-0.1h-3.3v0.7   h0.2c0.3,0,0.5,0,0.6,0.1c0.3,0.1,0.5,0.2,0.7,0.3c0.1,0.1,0.3,0.2,0.6,0.6v7.1c0,0.7-0.1,0.9-0.1,1c-0.2,0.2-0.4,0.3-0.8,0.3h-0.6   v0.7h4.2V52H126c-0.4,0-0.6-0.1-0.8-0.2c0,0-0.2-0.2-0.2-1v-5.8l6.8,7.8l0.1,0.1h0.6V44c0-0.7,0.1-0.9,0.1-1   c0.2-0.2,0.4-0.3,0.8-0.3H134.1z"/>
	<path fill="#000000" d="M144.2,51.7c-0.2-0.1-0.4-0.4-0.8-1.3l-3.8-8.5l-0.1-0.1H139l-3.9,8.6c-0.3,0.7-0.6,1.2-0.9,1.4   c0,0-0.2,0.2-0.8,0.2l-0.2,0v0.7h3.8V52l-0.2,0c-0.6,0-0.8-0.1-0.9-0.2c-0.1-0.1-0.2-0.2-0.2-0.2c0-0.1,0-0.3,0.3-0.8l0.7-1.5h3.9   l0.6,1.4c0.2,0.6,0.3,0.8,0.3,1c0,0.1,0,0.2-0.1,0.3c-0.1,0.1-0.3,0.1-0.8,0.2l-0.2,0v0.7h4.7V52l-0.2,0   C144.7,51.9,144.4,51.8,144.2,51.7z M140.4,48.2h-3.1l1.6-3.4L140.4,48.2z"/>
	<path fill="#000000" d="M160.6,47.5c-0.4-0.3-1.1-0.7-2.1-1.2c-1.2-0.6-2-1.1-2.3-1.5c-0.2-0.2-0.3-0.5-0.3-0.7   c0-0.3,0.2-0.7,0.5-0.9c0.3-0.3,0.7-0.4,1.2-0.4c0.5,0,0.9,0.1,1.3,0.3c0.4,0.2,0.8,0.5,1,0.9c0.2,0.4,0.4,0.9,0.5,1.5l0,0.2h0.7   v-4h-0.7l0,0.2c-0.1,0.3-0.1,0.3-0.1,0.4c0,0-0.1,0.1-0.2,0.1c0,0-0.2,0-0.6-0.2c-0.7-0.3-1.3-0.4-1.9-0.4c-1,0-1.8,0.3-2.4,0.9   c-0.6,0.6-1,1.3-1,2.1c0,0.5,0.1,0.9,0.3,1.3c0.2,0.4,0.5,0.7,1,1c0.4,0.3,1.1,0.7,2,1.2c0.9,0.5,1.5,0.8,1.7,1   c0.3,0.2,0.5,0.4,0.6,0.7c0.1,0.2,0.2,0.4,0.2,0.7c0,0.4-0.2,0.7-0.5,1c-0.3,0.3-0.8,0.4-1.4,0.4c-0.5,0-1-0.1-1.5-0.3   c-0.4-0.2-0.8-0.5-1-0.8c-0.2-0.3-0.4-0.9-0.5-1.6l0-0.2h-0.7v4h0.7l0-0.2c0-0.3,0.1-0.3,0.1-0.3c0,0,0.1-0.1,0.2-0.1   c0.1,0,0.3,0,0.9,0.2c0.5,0.2,0.9,0.3,1.1,0.3c0.3,0,0.6,0.1,0.9,0.1c1.1,0,1.9-0.3,2.6-0.9c0.7-0.6,1-1.3,1-2.2   c0-0.4-0.1-0.9-0.3-1.3C161.3,48.1,161,47.8,160.6,47.5z"/>
	<path fill="#000000" d="M173.3,49.8c-0.6,0.8-1.2,1.4-1.7,1.6c-0.5,0.3-1.1,0.4-1.8,0.4c-0.8,0-1.5-0.2-2.1-0.5   c-0.6-0.3-1-0.8-1.3-1.5c-0.3-0.7-0.5-1.4-0.5-2.3c0-1.1,0.2-2,0.5-2.7c0.3-0.7,0.7-1.2,1.3-1.6c0.5-0.3,1.2-0.5,1.8-0.5   c0.8,0,1.5,0.2,2.1,0.6c0.6,0.4,1,1.2,1.3,2.2l0,0.1h0.6l-0.3-3.9h-0.6l0,0.2c0,0.2-0.1,0.4-0.2,0.5c-0.1,0.1-0.1,0.1-0.2,0.1   c0,0-0.1,0-0.4-0.1c-0.8-0.4-1.6-0.6-2.4-0.6c-1,0-2,0.2-2.9,0.7c-0.9,0.5-1.6,1.2-2.1,2.1c-0.5,0.9-0.8,1.9-0.8,2.9   c0,1.3,0.4,2.5,1.2,3.5c1,1.3,2.5,2,4.4,2c1,0,1.9-0.2,2.7-0.7s1.4-1.1,2-2.1L174,50l-0.6-0.4L173.3,49.8z"/>
	<path fill="#000000" d="M181.7,42.7h0.6c0.2,0,0.4,0.1,0.6,0.2c0.1,0.1,0.2,0.1,0.2,0.2c0,0.1,0.1,0.3,0.1,1v2.7h-4.6V44   c0-0.6,0.1-0.8,0.1-0.9c0-0.1,0.1-0.2,0.2-0.3c0.2-0.1,0.4-0.2,0.6-0.2h0.6V42h-5.1v0.7h0.6c0.2,0,0.4,0.1,0.6,0.2   c0.1,0.1,0.2,0.1,0.2,0.2c0,0.1,0.1,0.3,0.1,1v6.6c0,0.8-0.1,1-0.1,1c-0.2,0.2-0.4,0.3-0.8,0.3h-0.6v0.7h5.1V52h-0.6   c-0.2,0-0.4-0.1-0.6-0.2c-0.1-0.1-0.2-0.1-0.2-0.2c0-0.1-0.1-0.3-0.1-0.9v-2.9h4.6v2.9c0,0.8-0.1,1-0.2,1c-0.2,0.2-0.4,0.3-0.8,0.3   h-0.6v0.7h5.1V52h-0.6c-0.2,0-0.4-0.1-0.6-0.2c-0.1-0.1-0.2-0.1-0.2-0.2c0-0.1-0.1-0.3-0.1-0.9V44c0-0.6,0-0.8,0.1-0.9   c0-0.1,0.1-0.2,0.2-0.3c0.2-0.1,0.4-0.2,0.6-0.2h0.6V42h-5.1V42.7z"/>
	<path fill="#000000" d="M193.8,41.7c-1.5,0-2.7,0.5-3.8,1.4c-1.2,1.1-1.8,2.5-1.8,4.2c0,1.6,0.5,3,1.6,4.1c1.1,1,2.4,1.6,3.9,1.6   c1.5,0,2.9-0.5,3.9-1.6c1.1-1.1,1.6-2.4,1.6-4c0-1.6-0.5-2.9-1.6-4C196.6,42.3,195.3,41.7,193.8,41.7z M197,47.5   c0,1.6-0.3,2.7-0.9,3.4c-0.6,0.7-1.4,1.1-2.4,1.1c-0.9,0-1.6-0.3-2.1-1c-0.7-0.9-1.1-2.1-1.1-3.7c0-1.6,0.4-2.8,1-3.6   c0.5-0.6,1.3-0.9,2.2-0.9c1,0,1.7,0.3,2.3,1C196.7,44.5,197,45.8,197,47.5z"/>
	<path fill="#000000" d="M206.5,41.7c-1.5,0-2.7,0.5-3.8,1.4c-1.2,1.1-1.8,2.5-1.8,4.2c0,1.6,0.5,3,1.6,4.1c1.1,1,2.4,1.6,3.9,1.6   c1.5,0,2.9-0.5,3.9-1.6c1.1-1.1,1.6-2.4,1.6-4c0-1.6-0.5-2.9-1.6-4C209.2,42.3,208,41.7,206.5,41.7z M206.4,42.7c1,0,1.7,0.3,2.3,1   c0.7,0.8,1,2.1,1,3.8c0,1.6-0.3,2.7-0.9,3.4c-0.6,0.7-1.4,1.1-2.4,1.1c-0.9,0-1.6-0.3-2.1-1c-0.7-0.9-1.1-2.1-1.1-3.7   c0-1.6,0.4-2.8,1-3.6C204.7,43,205.4,42.7,206.4,42.7z"/>
	<path fill="#000000" d="M222.3,49.5c-0.3,0.6-0.5,1.1-0.8,1.3c-0.3,0.3-0.5,0.5-0.8,0.6c-0.3,0.1-0.9,0.2-1.7,0.2h-0.8   c-0.9,0-1.1,0-1.2-0.1c-0.1,0-0.2-0.1-0.2-0.1c0-0.1-0.1-0.3-0.1-0.8v-6.5c0-0.8,0.1-1,0.1-1.1c0.1-0.1,0.2-0.2,0.4-0.3   c0.1-0.1,0.4-0.1,1.1-0.1l0.3,0V42h-5.3v0.7h0.6c0.3,0,0.6,0.1,0.8,0.3c0.1,0.1,0.2,0.3,0.2,1.1v6.6c0,0.7-0.1,0.9-0.1,1   c-0.2,0.2-0.4,0.3-0.8,0.3h-0.6v0.7h8.8l1.1-3.2l-0.7-0.1L222.3,49.5z"/>
	<path fill="#000000" d="M232.5,44.2c-1,0-1.8,0.3-2.5,0.9c-0.8,0.7-1.2,1.6-1.2,2.8c0,1.1,0.4,2,1.1,2.7c0.7,0.7,1.6,1,2.6,1   c1,0,1.9-0.4,2.6-1.1c0.7-0.7,1.1-1.6,1.1-2.7c0-1-0.4-1.9-1.1-2.6C234.3,44.6,233.4,44.2,232.5,44.2z M230.3,47.9   c0-1,0.2-1.8,0.7-2.3c0.3-0.4,0.8-0.6,1.4-0.6c0.6,0,1.1,0.2,1.4,0.6c0.4,0.5,0.7,1.3,0.7,2.4c0,1-0.2,1.7-0.6,2.2   c-0.4,0.4-0.9,0.7-1.5,0.7c-0.6,0-1-0.2-1.3-0.6C230.6,49.7,230.3,48.9,230.3,47.9z"/>
	<path fill="#000000" d="M236.8,44.4V45h0.5c0.1,0,0.3,0,0.4,0.1c0.1,0,0.1,0.1,0.1,0.1c0,0,0.1,0.2,0.1,0.6v4.3   c0,0.5-0.1,0.6-0.1,0.6c-0.1,0.1-0.2,0.2-0.5,0.2h-0.5v0.6h3.5v-0.6h-0.5c-0.1,0-0.3,0-0.4-0.1c-0.1,0-0.1-0.1-0.1-0.1   c0,0,0-0.2,0-0.6v-1.9h1.1c0.3,0,0.4,0,0.4,0.1c0.1,0,0.1,0.1,0.2,0.2c0,0.1,0.1,0.2,0.1,0.5l0,0.2h0.6v-2.7H241l0,0.2   c-0.1,0.4-0.2,0.5-0.2,0.6c-0.1,0.1-0.3,0.1-0.5,0.1h-1.1v-2.2h1.3c0.3,0,0.6,0,0.7,0.1c0.1,0.1,0.3,0.1,0.4,0.3   c0.1,0.1,0.2,0.3,0.3,0.6l0,0.2h0.6l-0.1-1.9H236.8z"/>
	<path fill="#000000" d="M255.3,42.3c-0.6-0.2-1.4-0.3-2.4-0.3h-4.2v0.7h0.6c0.3,0,0.6,0.1,0.8,0.3c0,0,0.2,0.2,0.2,1.1v6.6   c0,0.8-0.1,0.9-0.1,1c-0.2,0.2-0.4,0.3-0.8,0.3h-0.6v0.7h5.1V52h-0.6c-0.4,0-0.6-0.1-0.8-0.3c0,0-0.2-0.2-0.2-1.1v-2.7   c0.2,0,0.5,0.1,0.7,0.1c0.3,0,0.6,0.1,0.9,0.1c1.1,0,2-0.3,2.6-0.8c0.6-0.6,1-1.3,1-2.2c0-0.7-0.2-1.3-0.6-1.7   C256.5,42.8,255.9,42.5,255.3,42.3z M252.3,43.1c0.3-0.1,0.6-0.1,0.8-0.1c0.4,0,0.8,0.1,1.1,0.3c0.3,0.2,0.6,0.4,0.7,0.8   c0.2,0.4,0.3,0.7,0.3,1.1c0,0.6-0.2,1.1-0.5,1.4c-0.4,0.4-0.8,0.5-1.3,0.5c-0.1,0-0.3,0-0.5,0c-0.2,0-0.4,0-0.6-0.1V43.1z"/>
	<path fill="#000000" d="M266.3,42.7h0.6c0.3,0,0.6,0.1,0.8,0.3c0,0.1,0.2,0.3,0.2,1.1v4.2c0,1.1-0.1,1.8-0.3,2.2   c-0.2,0.4-0.5,0.8-1.1,1c-0.5,0.3-1.1,0.4-1.8,0.4c-0.5,0-1-0.1-1.3-0.3c-0.3-0.2-0.6-0.4-0.8-0.6c-0.2-0.3-0.3-0.6-0.4-1.1   c-0.1-0.5-0.1-0.9-0.1-1.3V44c0-0.7,0.1-0.9,0.2-1c0.2-0.2,0.4-0.3,0.8-0.3h0.6V42h-5.1v0.7h0.6c0.3,0,0.6,0.1,0.7,0.2   c0.1,0.1,0.2,0.3,0.2,1.1v4c0,1.3,0.1,2.1,0.3,2.6c0.3,0.7,0.7,1.3,1.4,1.7c0.6,0.4,1.6,0.6,2.8,0.6c1.1,0,2-0.2,2.7-0.6   c0.7-0.4,1.1-1,1.4-1.6c0.2-0.6,0.3-1.4,0.3-2.5v-4.2c0-0.7,0.1-0.9,0.1-1c0.2-0.3,0.5-0.4,0.8-0.4h0.6V42h-4.3V42.7z"/>
	<path fill="#000000" d="M279.6,47.2c0.4-0.2,0.7-0.4,0.9-0.7c0.4-0.4,0.5-1,0.5-1.5c0-0.7-0.2-1.2-0.7-1.7c-0.5-0.5-1.1-0.8-1.9-1   c-0.5-0.1-1.3-0.2-2.2-0.2h-4.9v0.7h0.6c0.3,0,0.6,0.1,0.8,0.3c0.1,0.1,0.2,0.3,0.2,1.1v6.6c0,0.7-0.1,0.9-0.1,1   c-0.2,0.2-0.4,0.3-0.8,0.3h-0.6v0.7h5.3c1.3,0,2.2-0.1,2.8-0.3c0.6-0.2,1.1-0.6,1.5-1.1c0.4-0.5,0.6-1,0.6-1.6   c0-0.7-0.3-1.4-0.9-1.9C280.5,47.5,280.1,47.3,279.6,47.2z M278.7,45.8c-0.2,0.3-0.4,0.5-0.8,0.6c-0.4,0.1-0.9,0.2-1.7,0.2   c-0.3,0-0.6,0-0.8,0c-0.2,0-0.3,0-0.5,0V43c0.4-0.1,0.8-0.1,1.2-0.1c0.9,0,1.7,0.2,2.1,0.6c0.5,0.4,0.7,0.8,0.7,1.4   C279,45.2,278.9,45.5,278.7,45.8z M274.9,47.7c0.1,0,0.2,0,0.4,0c0.2,0,0.5,0,0.8,0c0.7,0,1.4,0.1,1.8,0.3c0.5,0.2,0.8,0.5,1,0.8   c0.2,0.3,0.3,0.7,0.3,1c0,0.5-0.2,1-0.7,1.4c-0.5,0.4-1.2,0.6-2.1,0.6c-0.5,0-1.1-0.1-1.6-0.2V47.7z"/>
	<path fill="#000000" d="M292.3,49.5c-0.3,0.6-0.5,1.1-0.8,1.3c-0.3,0.3-0.5,0.5-0.8,0.6c-0.3,0.1-0.9,0.2-1.7,0.2h-0.8   c-0.9,0-1.1,0-1.2-0.1c-0.1,0-0.2-0.1-0.2-0.1c0-0.1-0.1-0.3-0.1-0.8v-6.5c0-0.8,0.1-1,0.1-1.1c0.1-0.1,0.2-0.2,0.4-0.3   c0.1-0.1,0.4-0.1,1.1-0.1l0.3,0V42h-5.3v0.7h0.6c0.3,0,0.6,0.1,0.8,0.3c0.1,0.1,0.2,0.3,0.2,1.1v6.6c0,0.7-0.1,0.9-0.1,1   c-0.2,0.2-0.4,0.3-0.8,0.3h-0.6v0.7h8.8l1.1-3.2l-0.7-0.1L292.3,49.5z"/>
	<path fill="#000000" d="M294.1,42.7h0.6c0.2,0,0.4,0.1,0.6,0.2c0.1,0.1,0.2,0.1,0.2,0.2c0,0.1,0.1,0.3,0.1,0.9v6.6   c0,0.8-0.1,1-0.1,1c-0.2,0.2-0.4,0.3-0.8,0.3h-0.6v0.7h5.1V52h-0.6c-0.2,0-0.4-0.1-0.6-0.2c-0.1-0.1-0.2-0.1-0.2-0.2   c0-0.1-0.1-0.3-0.1-0.9V44c0-0.8,0.1-1,0.2-1c0.2-0.2,0.4-0.3,0.8-0.3h0.6V42h-5.1V42.7z"/>
	<path fill="#000000" d="M310.2,49.8c-0.6,0.8-1.2,1.4-1.7,1.6c-0.5,0.3-1.1,0.4-1.8,0.4c-0.8,0-1.5-0.2-2.1-0.5   c-0.6-0.3-1-0.8-1.3-1.5c-0.3-0.7-0.5-1.4-0.5-2.3c0-1.1,0.2-2,0.5-2.7c0.3-0.7,0.7-1.2,1.3-1.6c0.5-0.3,1.2-0.5,1.8-0.5   c0.8,0,1.5,0.2,2.1,0.6c0.6,0.4,1,1.2,1.3,2.2l0,0.1h0.6l-0.3-3.9h-0.6l0,0.2c0,0.2-0.1,0.4-0.2,0.5c-0.1,0.1-0.1,0.1-0.2,0.1   c0,0-0.1,0-0.4-0.1c-0.8-0.4-1.6-0.6-2.4-0.6c-1,0-2,0.2-2.9,0.7c-0.9,0.5-1.6,1.2-2.1,2.1c-0.5,0.9-0.8,1.9-0.8,2.9   c0,1.3,0.4,2.5,1.2,3.5c1,1.3,2.5,2,4.4,2c1,0,1.9-0.2,2.7-0.7c0.8-0.4,1.4-1.1,2-2.1l0.1-0.2l-0.6-0.4L310.2,49.8z"/>
	<path fill="#000000" d="M326,42.7h0.6c0.2,0,0.4,0.1,0.6,0.2c0.1,0.1,0.2,0.1,0.2,0.2c0,0.1,0.1,0.3,0.1,1v2.7h-4.6V44   c0-0.6,0.1-0.8,0.1-0.9c0-0.1,0.1-0.2,0.2-0.3c0.2-0.1,0.4-0.2,0.6-0.2h0.6V42h-5.1v0.7h0.6c0.2,0,0.4,0.1,0.6,0.2   c0.1,0.1,0.2,0.1,0.2,0.2c0,0.1,0.1,0.3,0.1,1v6.6c0,0.8-0.1,1-0.1,1c-0.2,0.2-0.4,0.3-0.8,0.3h-0.6v0.7h5.1V52h-0.6   c-0.2,0-0.4-0.1-0.6-0.2c-0.1-0.1-0.2-0.1-0.2-0.2c0-0.1-0.1-0.3-0.1-0.9v-2.9h4.6v2.9c0,0.8-0.1,1-0.2,1c-0.2,0.2-0.4,0.3-0.8,0.3   H326v0.7h5.1V52h-0.6c-0.2,0-0.4-0.1-0.6-0.2c-0.1-0.1-0.2-0.1-0.2-0.2c0-0.1-0.1-0.3-0.1-0.9V44c0-0.6,0-0.9,0.1-0.9   c0-0.1,0.1-0.2,0.2-0.3c0.2-0.1,0.4-0.2,0.6-0.2h0.6V42H326V42.7z"/>
	<path fill="#000000" d="M341.1,49.8c-0.3,0.6-0.7,1.1-1,1.4c-0.2,0.2-0.5,0.4-0.7,0.4c-0.3,0.1-0.7,0.1-1.3,0.1h-1.8   c-0.4,0-0.5,0-0.5-0.1c-0.1,0-0.1-0.1-0.1-0.1c0,0,0-0.1,0-0.7v-3.2h2.2c0.4,0,0.7,0,0.9,0.1c0.2,0.1,0.3,0.2,0.4,0.3   c0,0.1,0.1,0.3,0.2,0.9l0,0.2h0.7v-4h-0.7l0,0.2c0,0.5-0.2,0.9-0.4,1.1c-0.1,0.1-0.4,0.2-1.1,0.2h-2.2V43h2.8c0.5,0,0.9,0,1.1,0.1   c0.2,0.1,0.4,0.2,0.5,0.4c0.1,0.1,0.2,0.4,0.3,1l0,0.2h0.7l-0.1-2.7h-8.8v0.7h0.6c0.4,0,0.7,0.1,0.8,0.2c0,0,0.2,0.2,0.2,1.1v6.7   c0,0.6,0,0.8-0.1,0.9c0,0.1-0.1,0.2-0.2,0.2c-0.2,0.1-0.4,0.2-0.6,0.2h-0.6v0.7h8.7l1.1-3h-0.7L341.1,49.8z"/>
	<path fill="#000000" d="M353.3,51.7c-0.2-0.1-0.4-0.4-0.8-1.3l-3.8-8.5l-0.1-0.1h-0.6l-3.9,8.6c-0.3,0.7-0.6,1.2-0.9,1.4   c0,0-0.2,0.2-0.8,0.2l-0.2,0v0.7h3.8V52l-0.2,0c-0.7,0-0.9-0.1-0.9-0.2c-0.1-0.1-0.2-0.2-0.2-0.2c0-0.1,0-0.3,0.3-0.8l0.7-1.5h3.9   l0.6,1.4c0.2,0.6,0.3,0.8,0.3,1c0,0.1,0,0.2-0.1,0.3c-0.1,0.1-0.3,0.1-0.8,0.2l-0.2,0v0.7h4.7V52l-0.2,0   C353.8,51.9,353.5,51.8,353.3,51.7z M349.5,48.2h-3.1l1.6-3.4L349.5,48.2z"/>
	<path fill="#000000" d="M364.5,49.5c-0.3,0.6-0.5,1.1-0.8,1.3c-0.3,0.3-0.5,0.5-0.8,0.6c-0.3,0.1-0.9,0.2-1.7,0.2h-0.8   c-0.9,0-1.1,0-1.2-0.1c-0.1,0-0.2-0.1-0.2-0.1c0-0.1-0.1-0.3-0.1-0.8v-6.5c0-0.8,0.1-1,0.1-1.1c0.1-0.1,0.2-0.2,0.4-0.3   c0.1-0.1,0.4-0.1,1.1-0.1l0.3,0V42h-5.3v0.7h0.6c0.3,0,0.6,0.1,0.8,0.3c0,0.1,0.2,0.3,0.2,1.1v6.6c0,0.7-0.1,0.9-0.1,1   c-0.2,0.2-0.4,0.3-0.8,0.3h-0.6v0.7h8.8l1.1-3.2l-0.7-0.1L364.5,49.5z"/>
	<path fill="#000000" d="M365.2,42l-0.2,2.8h0.7l0-0.2c0-0.4,0.1-0.8,0.3-1c0.2-0.2,0.4-0.4,0.6-0.5c0.1,0,0.4-0.1,1-0.1h1.1v7.6   c0,0.7-0.1,0.9-0.1,1c-0.2,0.2-0.4,0.3-0.8,0.3h-0.6v0.7h5V52h-0.6c-0.4,0-0.6-0.1-0.8-0.2c0,0-0.2-0.2-0.2-1V43h1.3   c0.4,0,0.7,0.1,1,0.2c0.2,0.1,0.4,0.3,0.6,0.6c0.1,0.1,0.1,0.3,0.2,0.8l0,0.2h0.7l-0.1-2.8H365.2z"/>
	<path fill="#000000" d="M385.9,43.1c0-0.1,0.1-0.2,0.2-0.3c0.2-0.1,0.4-0.2,0.6-0.2h0.6V42h-5.1v0.7h0.6c0.2,0,0.4,0.1,0.6,0.2   c0.1,0.1,0.2,0.1,0.2,0.2c0,0.1,0.1,0.3,0.1,1v2.7h-4.6V44c0-0.6,0-0.8,0.1-0.9c0-0.1,0.1-0.2,0.2-0.3c0.2-0.1,0.4-0.2,0.6-0.2h0.6   V42h-5.1v0.7h0.6c0.2,0,0.4,0.1,0.6,0.2c0.1,0.1,0.2,0.1,0.2,0.2c0,0.1,0.1,0.3,0.1,1v6.6c0,0.8-0.1,1-0.1,1   c-0.2,0.2-0.4,0.3-0.8,0.3h-0.6v0.7h5.1V52h-0.6c-0.2,0-0.4-0.1-0.6-0.2c-0.1-0.1-0.2-0.1-0.2-0.2c0-0.1-0.1-0.3-0.1-0.9v-2.9h4.6   v2.9c0,0.8-0.1,1-0.2,1c-0.2,0.2-0.4,0.3-0.8,0.3h-0.6v0.7h5.1V52h-0.6c-0.2,0-0.4-0.1-0.6-0.2c-0.1-0.1-0.2-0.1-0.2-0.2   c0-0.1-0.1-0.3-0.1-0.9V44C385.8,43.4,385.9,43.2,385.9,43.1z"/>
</g>
</svg>