<svg id="Layer_1" data-name="Layer 1" xmlns="http://www.w3.org/2000/svg" viewBox="0 0 864 72.9469">
  <g>
    <path id="fullLogo" d="M199.4777,30.9024c0-10.5327-6.2863-14.86-14.9432-14.86-9.0617,0-14.2869,4.6535-16.5732,9.7182l5.7982,2.8586a10.9741,10.9741,0,0,1,10.4518-6.5326c4.6527,0,8.3266,2.2022,8.3266,6.2032,0,3.35-2.6936,4.0025-8.7379,5.2251-7.8384,1.6368-16.9033,3.3507-16.9034,13.4754,0,8.4925,6.2894,12.4927,12.8219,12.4927a14.5326,14.5326,0,0,0,13.3757-8.0564v.0011l1.4682,7.3567h4.9149l0-27.8418h-.0109Zm-6.7749,9.8825c0,8.3275-5.7181,12.411-11.3513,12.411-4.0033,0-7.5121-2.0434-7.512-6.6159,0-5.3878,5.1449-6.6135,10.6948-7.8384,3.1849-.6541,5.5552-1.2226,8.1686-2.9373Z" style="fill: #221e1d"/>
    <path id="fullLogo-2" data-name="fullLogo" d="M55.9548,6.8762h6.7781l-.0006,51.9222H55.9542Z" style="fill: #221e1d"/>
    <path id="fullLogo-3" data-name="fullLogo" d="M91.9676,16.3383c12.4114,0,20.331,9.7985,20.3308,21.7216,0,12.0007-7.92,21.7184-20.3313,21.7183-12.4955,0-20.3342-9.7176-20.334-21.7183C71.6332,26.1368,79.4721,16.3383,91.9676,16.3383Zm.08,36.9076c8.1654,0,13.3105-7.0238,13.3106-15.186,0-8.1686-5.1448-15.1084-13.31-15.1084-8.2463,0-13.4722,6.94-13.4723,15.1084C78.576,46.2221,83.8018,53.2459,92.048,53.2459Z" style="fill: #221e1d"/>
    <path id="fullLogo-4" data-name="fullLogo" d="M159.9757,37.895c0,10.6166-6.0442,21.8833-18.7823,21.8833-5.3067,0-10.2059-1.96-13.0646-7.1856l-1.4682,6.2057H121.189L121.19,6.8762h6.7781l0,17.0551c2.5289-5.145,7.4314-7.593,13.3914-7.593C153.932,16.3383,159.9759,27.2784,159.9757,37.895Zm-6.8589.2458c0-7.8388-4.0842-15.1893-12.4921-15.1893-8.4112,0-12.5764,7.3505-12.5765,15.3509,0,7.758,3.9192,14.9435,12.4112,14.9435S153.1167,46.06,153.1168,38.1408Z" style="fill: #221e1d"/>
    <path id="fullLogo-5" data-name="fullLogo" d="M209.8977,6.8762h6.7781l-.0006,51.9222h-6.7781Z" style="fill: #221e1d"/>
    <path id="fullLogo-6" data-name="fullLogo" d="M704.8373,59.6444c-9.9634,0-19.3512-7.3472-19.3512-21.7184s9.5527-21.7216,19.1054-21.7216c8.8995,0,17.23,6.6132,17.23,20.1694v4.4886H692.5067c.4883,8.0037,5.7982,12.25,12.4114,12.25A12.6256,12.6256,0,0,0,716.4305,46.58l5.3068,3.6736A20.1455,20.1455,0,0,1,704.8373,59.6444ZM692.5067,34.5758h22.1291c.4074-7.8388-4.8184-11.7582-10.29-11.7582C698.7124,22.8176,692.995,26.8211,692.5067,34.5758Z" style="fill: #221e1d"/>
    <path id="fullLogo-7" data-name="fullLogo" d="M731.2258,17.2651h5.4716l1.3873,5.7983c2.2055-4.4918,7.2664-6.859,12.5731-6.859,7.1047,0,14.1286,4.4918,14.1286,14.3712v28.089h-6.7781V31.9629c0-6.3674-4-9.4719-8.7378-9.4719-5.7982,0-11.2666,4.1652-11.2666,12.25V58.6646h-6.7781Z" style="fill: #221e1d"/>
    <path id="fullLogo-8" data-name="fullLogo" d="M786.0922,58.6646h-6.7781V23.39H772.29V17.2651h7.0239V8.7375h6.7781v8.5276h11.9849V23.39H786.0922Z" style="fill: #221e1d"/>
    <path id="fullLogo-9" data-name="fullLogo" d="M847.0159,59.6444c-9.9634,0-19.3512-7.3472-19.3512-21.7184s9.5527-21.7216,19.1054-21.7216c8.8995,0,17.23,6.6132,17.23,20.1694v4.4886H834.6853c.4883,8.0037,5.7983,12.25,12.4115,12.25A12.6258,12.6258,0,0,0,858.6092,46.58l5.3067,3.6736A20.1455,20.1455,0,0,1,847.0159,59.6444ZM834.6853,34.5758h22.1291c.4075-7.8388-4.8184-11.7582-10.29-11.7582C840.891,22.8176,835.1736,26.8211,834.6853,34.5758Z" style="fill: #221e1d"/>
    <path id="fullLogo-10" data-name="fullLogo" d="M824.1631,24.2081a13.5462,13.5462,0,0,0-4.8184-1.0639c-5.0609,0-9.2261,3.8386-9.2261,12.25V58.6646h-6.7781V17.2651h5.4716l1.3873,5.8791a11.1435,11.1435,0,0,1,10.206-6.2865,12.7738,12.7738,0,0,1,3.7577.5723Z" style="fill: #221e1d"/>
    <path id="fullLogo-11" data-name="fullLogo" d="M315.0672,59.9358c-9.9634,0-19.3544-7.3472-19.3544-21.7184s9.5559-21.7216,19.1087-21.7216c8.8994,0,17.23,6.6132,17.23,20.1694v4.4886H302.7366c.4916,8.0037,5.7983,12.25,12.4115,12.25a12.6258,12.6258,0,0,0,11.5124-6.5323l5.31,3.6736A20.1547,20.1547,0,0,1,315.0672,59.9358ZM302.7366,34.8672h22.1291c.4075-7.8388-4.8184-11.7582-10.29-11.7582C308.9424,23.109,303.2282,27.1125,302.7366,34.8672Z" style="fill: #221e1d"/>
    <path id="fullLogo-12" data-name="fullLogo" d="M381.9449,37.8876c0,10.29-5.96,21.5567-18.7821,21.5567-4.98,0-10.2059-1.714-13.2263-6.7749V69.3983h-6.7781V17.5565H348.63l1.4681,6.044c2.5321-4.6567,7.2665-7.1047,13.23-7.1047C375.82,16.4958,381.9449,27.355,381.9449,37.8876Zm-6.859.2458c0-7.6739-4.0843-15.0244-12.5763-15.0244-8.3271,0-12.4923,7.1047-12.4923,15.1084,0,7.7548,3.9194,14.6945,12.4114,14.6945S375.0859,45.8913,375.0859,38.1334Z" style="fill: #221e1d"/>
    <path id="fullLogo-13" data-name="fullLogo" d="M409.7669,16.4958c12.4115,0,20.3311,9.7985,20.3311,21.7216,0,12.0008-7.92,21.7184-20.3311,21.7184-12.4955,0-20.3343-9.7176-20.3343-21.7184C389.4326,26.2943,397.2714,16.4958,409.7669,16.4958Zm.0809,36.9077c8.1654,0,13.31-7.0239,13.31-15.1861,0-8.1686-5.145-15.1084-13.31-15.1084-8.2463,0-13.4721,6.94-13.4721,15.1084C396.3757,46.38,401.6015,53.4035,409.8478,53.4035Z" style="fill: #221e1d"/>
    <path id="fullLogo-14" data-name="fullLogo" d="M518.8929,17.4923h5.4716l1.3873,5.8625c2.2055-4.4918,7.2664-6.859,12.5764-6.859,7.1014,0,14.1253,4.4918,14.1253,14.3712V58.8735h-6.7781V32.2543c0-6.3674-4-9.4719-8.7378-9.4719-5.795,0-11.2666,4.1652-11.2666,12.25V58.8735h-6.7781Z" style="fill: #221e1d"/>
    <path id="fullLogo-15" data-name="fullLogo" d="M594.2985,17.491l-1.4682,6.11c-2.532-4.6568-7.2665-7.1046-13.23-7.1046-12.4919,0-18.6168,10.8592-18.6168,21.3917,0,10.29,5.96,21.5566,18.7819,21.5566,4.9066,0,10.0418-1.68,13.0814-6.5691-.7954,9.8981-5.4906,13.7192-12.7516,13.7192A12.1915,12.1915,0,0,1,569.56,60.2436l-5.7316,3.02a18.3593,18.3593,0,0,0,16.2671,9.6833c11.9278,0,19.6747-6.43,19.6747-23.5491V17.491Zm-26.456,20.6423c0-7.6739,4.0847-15.0243,12.5764-15.0243,8.3271,0,12.4924,7.1047,12.4924,15.1084,0,7.7547-3.92,14.6945-12.4114,14.6945S567.8425,45.8913,567.8425,38.1333Z" style="fill: #221e1d"/>
    <path id="fullLogo-16" data-name="fullLogo" d="M504.3525,0a5.4025,5.4025,0,0,0-5.3871,5.4717,5.3162,5.3162,0,0,0,5.3871,5.31,5.3893,5.3893,0,0,0,5.4727-5.31A5.4739,5.4739,0,0,0,504.3525,0Z" style="fill: #221e1d"/>
    <polygon id="fullLogo-17" data-name="fullLogo" points="480.92 8.864 474.142 8.864 474.142 17.392 467.118 17.392 467.118 23.516 474.142 23.516 474.142 58.873 480.92 58.873 480.92 23.516 501.087 23.516 501.087 58.873 507.864 58.873 507.864 17.556 507.864 17.392 480.92 17.392 480.92 8.864" style="fill: #221e1d"/>
    <path id="fullLogo-18" data-name="fullLogo" d="M460.4609,24.4171a13.5467,13.5467,0,0,0-4.8184-1.0639c-5.061,0-9.2262,3.8385-9.2262,12.25V58.8735h-6.7781V17.4741H445.11l1.3873,5.8791a11.1436,11.1436,0,0,1,10.206-6.2866,12.7713,12.7713,0,0,1,3.7577.5724Z" style="fill: #221e1d"/>
    <path id="fullLogo-19" data-name="fullLogo" d="M22.2865,32.4839l0,6.8183h14.462a13.4264,13.4264,0,0,1-13.9015,13.49c-7.3229,0-15.1473-5.13-15.1471-19.53,0-9.3818,4.2146-20.3366,16.0976-20.3366,6.2109,0,11.1541,3.5011,12.9014,9.1326l.1308.4205,6.8495-2.56-.1246-.3769C40.7326,10.9388,33.1886,5.5938,23.8722,5.5938A22.6765,22.6765,0,0,0,7.5163,12.4152C2.6011,17.4425,0,24.728,0,33.4806c0,8.4349,2.4418,15.4027,7.0579,20.1528a20.8973,20.8973,0,0,0,15.1255,6.3449H22.19c6.0957,0,11.3348-2.5168,14.5338-6.94l1.05,5.7717h6.239l0-26.3263Z" style="fill: #221e1d"/>
    <path id="fullLogo-20" data-name="fullLogo" d="M672.4546,42.37l-.1651.4578a14.68,14.68,0,0,1-13.9481,9.8179c-7.974,0-16.5553-6.3012-16.5553-20.1372,0-13.509,8.1671-19.5548,16.2625-19.5548a13.0032,13.0032,0,0,1,12.7707,9.142l.1308.4205,6.85-2.56-.1184-.3738c-2.6725-8.4816-10.4346-13.9637-19.779-13.9668-11.4719,0-23.8221,8.5315-23.8221,27.2608,0,18.6764,12.3876,27.183,23.8968,27.183a22.3208,22.3208,0,0,0,20.86-13.7114l.1464-.3427Z" style="fill: #221e1d"/>
    <path id="fullLogo-21" data-name="fullLogo" d="M276.0165,38.8581l-.0542-.0754a16.9456,16.9456,0,0,0-3.7807-33.1885H254.1754v6.8546H271.236a10.1055,10.1055,0,0,1-.0444,20.211h-9.8864v-.0253h-.0218l-1.1525-5.8582h-5.9555V58.68h6.6688V39.3705h7.0878L280.2542,58.68h8.7168Z" style="fill: #221e1d"/>
  </g>
</svg>
