<svg xmlns="http://www.w3.org/2000/svg" width="496" height="110pt" viewBox="0 0 372 110"><defs><clipPath id="a"><path d="M179 44h6.406v8H179zm0 0"/></clipPath><clipPath id="b"><path d="M0 .816h33v54.125H0zm0 0"/></clipPath></defs><path d="M185.391 22.715h-6.39v20.072h-3.199V22.715h-6.421V20.04h16.01v2.674m16.34 20.073h-13.58V20.04h13.313v2.674H191.35v6.782h9.558v2.673h-9.558v7.912h10.381v2.705m15.117.001h-11.205V20.04h3.2v20.001h8.005v2.745m19.312-9.298c0 2.838-.267 5.08-1.812 6.923-1.553 1.78-3.826 2.768-6.821 2.768-3.035 0-5.309-.988-6.83-2.768-1.576-1.843-1.842-4.085-1.842-6.923V20.04h3.23v13.15c0 1.913.032 3.755 1.059 5.112.917 1.246 2.399 2.007 4.383 2.007 1.975 0 3.426-.76 4.375-2.007 1.027-1.357 1.058-3.23 1.058-5.112V20.04h3.2v13.447m16.37 7.912c-1.419 1.152-3.3 1.78-5.574 1.78-3.983 0-6.257-2.572-7.347-3.827l1.882-2.14c1.152 1.552 3.293 3.262 5.763 3.262 2.47 0 4.453-1.412 4.453-3.819 0-2.375-2.54-3.3-3.693-3.755-1.184-.463-2.768-1.09-3.622-1.521-.494-.228-1.459-.722-2.282-1.616-.823-.854-1.482-2.109-1.482-3.951 0-1.85.863-3.364 2.078-4.383 1.254-1.059 3.034-1.678 5.238-1.678 3.724 0 5.903 2.274 6.53 2.932l-1.685 2.172c-1.121-1.184-2.768-2.438-5.01-2.438-2.243 0-3.952 1.05-3.952 3.16 0 2.116 1.545 2.9 2.933 3.465l4.186 1.748c.424.197 1.812.957 2.572 1.843.722.886 1.38 2.11 1.38 3.818 0 1.984-.886 3.733-2.368 4.948m40.552-21.358l-6.555 22.777H283.4l-5.473-18.394-5.434 18.394h-3.136l-6.555-22.777h3.356l4.916 17.931 5.238-17.931h3.262l5.237 17.931 4.916-17.931h3.356m12.45 2.439c-4.65 0-8.476 3.332-8.476 8.899 0 5.535 3.858 8.899 8.476 8.899 4.641 0 8.468-3.364 8.468-8.9 0-5.566-3.827-8.899-8.468-8.899zm0 20.699c-6.398 0-11.738-4.446-11.738-11.73 0-7.284 5.34-11.737 11.738-11.737 6.39 0 11.73 4.453 11.73 11.737s-5.34 11.73-11.73 11.73m24.8-19.712c-1.02-.752-2.235-.823-3.819-.823h-2.344v7.715h2.344c1.584 0 2.8-.062 3.819-.792 1.027-.76 1.45-1.678 1.45-3.065 0-1.349-.423-2.305-1.45-3.035zm6.068 19.32h-3.857l-5.936-9.793h-2.438v9.793h-3.191V20.04h6.421c2.274 0 4.124.525 5.473 1.584 1.349 1.09 2.211 2.736 2.211 4.814 0 3.983-2.776 5.763-5.175 6.225l6.492 10.123m13.564.001h-11.204V20.04h3.2v20.001h8.004v2.745m15.752-17.899c-1.254-1.184-3.3-2.11-6.068-2.11h-3.654V40.02h3.654c2.767 0 4.814-.925 6.068-2.11 1.247-1.191 2.705-3.198 2.705-6.5 0-3.292-1.458-5.339-2.705-6.522zm2.439 14.928c-1.647 1.521-4.548 2.972-8.507 2.972h-6.853V20.04h6.853c3.96 0 6.86 1.45 8.507 2.972 1.646 1.513 3.528 4.147 3.528 8.397 0 4.257-1.882 6.892-3.528 8.405M222.47 60.107c-4.086 0-6.861 3.755-6.861 7.613 0 2.932 1.78 5.112 4.845 5.112 4.054 0 6.853-3.795 6.853-7.645 0-2.932-1.811-5.08-4.838-5.08zm-2.274 14.34c-3.827 0-6.43-2.705-6.43-6.492 0-5.01 3.787-9.393 8.93-9.393 3.827 0 6.399 2.768 6.399 6.555 0 5.01-3.764 9.33-8.9 9.33m10.405 5.927s.525-.987.76-2.367l2.8-17.532h-2.211l.266-1.615h2.203c.463-3.034.957-7.81 5.214-7.81.455 0 1.647.032 2.039.33l-.392 1.545c-.494-.197-1.058-.33-1.584-.33-3.16 0-3.199 4.022-3.56 6.265h3.725l-.267 1.615h-3.724l-2.736 17.336c-.26 1.646-.824 2.563-.824 2.563H230.6m27.348-7.644c-1.419 1.152-3.3 1.78-5.575 1.78-3.983 0-6.256-2.572-7.346-3.819l1.882-2.148c1.152 1.552 3.293 3.262 5.762 3.262 2.47 0 4.454-1.412 4.454-3.819 0-2.375-2.54-3.3-3.693-3.755-1.184-.463-2.768-1.09-3.63-1.521-.486-.228-1.45-.722-2.274-1.608-.823-.862-1.482-2.109-1.482-3.96 0-1.842.863-3.363 2.078-4.382 1.254-1.05 3.034-1.678 5.237-1.678 3.725 0 5.904 2.274 6.532 2.932l-1.686 2.172c-1.121-1.184-2.768-2.438-5.01-2.438-2.235 0-3.952 1.058-3.952 3.167 0 2.11 1.552 2.901 2.932 3.458l4.187 1.749c.424.196 1.812.956 2.572 1.842.721.894 1.38 2.11 1.38 3.826 0 1.976-.886 3.725-2.368 4.94m24.706-1.584c-1.42 1.584-3.983 3.364-8.303 3.364-6.626 0-11.636-4.642-11.636-11.73s5.112-11.73 11.636-11.73c4.25 0 6.821 1.773 8.076 2.996l-1.357 2.571c-.886-1.12-3.426-2.767-6.586-2.767-4.908 0-8.468 3.528-8.468 8.86 0 5.339 3.591 8.867 8.468 8.867 2.995 0 5.3-1.152 6.79-2.767l1.38 2.336m3.254-19.766h3.199v22.738h-3.2zm21.781 22.738h-13.58V51.38h13.313v2.666h-10.114v6.79h9.558V63.5h-9.558v7.912h10.38v2.705m23.256.001h-3.128L314.698 55.99s.071 3.066.071 6.03v12.098h-3.167V51.38h3.363l12.882 17.86s-.031-2.806-.031-5.801v-12.06h3.128v22.739m23.686-2.972c-1.418 1.584-3.982 3.364-8.303 3.364-6.625 0-11.635-4.642-11.635-11.73s5.112-11.73 11.635-11.73c4.25 0 6.822 1.773 8.076 2.996l-1.356 2.571c-.886-1.12-3.426-2.767-6.586-2.767-4.916 0-8.468 3.528-8.468 8.86 0 5.339 3.59 8.867 8.468 8.867 2.995 0 5.308-1.152 6.79-2.767l1.38 2.336m16.833 2.972h-13.58V51.38h13.314v2.666h-10.115v6.79h9.558V63.5h-9.558v7.912h10.381v2.705m-111.077 29.481h-11.44V82.931h11.228v1.474h-9.613v7.487h9.072v1.467h-9.072v8.773h9.825v1.466m9.22-1.105c3.387 0 5.245-2.635 5.245-5.841 0-3.23-1.858-5.842-5.245-5.842-3.356 0-5.237 2.611-5.237 5.842 0 3.206 1.881 5.84 5.237 5.84zm-.063-13.031c2.008 0 3.866.815 5.214 2.846V82.93h1.592v20.667h-1.592v-2.571c-1.168 1.975-3.05 2.877-5.15 2.877-4.196 0-6.885-3.152-6.885-7.252 0-4.132 2.69-7.19 6.821-7.19m30.375 14.137h-1.56v-8.444c0-1.733-.298-4.344-2.996-4.344-2.697 0-4.131 2.611-4.131 5.544v7.244h-1.56v-8.444c0-2.336-.597-4.344-2.996-4.344-2.697 0-4.132 2.611-4.132 5.544v7.244h-1.56V89.705h1.56v2.572c.572-1.522 2.337-2.815 4.195-2.815 2.187 0 3.536 1.105 4.132 2.909.902-1.804 2.548-2.91 4.406-2.91 3.834 0 4.642 2.91 4.642 5.693v8.444m10.389-12.788c-3.356 0-5.45 2.611-5.45 5.842 0 3.206 2.094 5.84 5.45 5.84 3.387 0 5.48-2.634 5.48-5.84 0-3.23-2.093-5.842-5.48-5.842zm0 13.094c-3.952 0-7.104-2.995-7.104-7.19 0-4.194 3.152-7.252 7.104-7.252 3.983 0 7.127 3.058 7.127 7.252 0 4.195-3.144 7.19-7.127 7.19m21.53-.306h-1.584v-8.232c0-2.25-.392-4.556-3.387-4.556s-4.43 2.611-4.43 5.904v6.884h-1.56V89.705h1.56v2.572c.682-1.647 2.486-2.815 4.493-2.815 3.983 0 4.908 2.548 4.908 5.841v8.295m10.036-.148s-.753.454-2.101.454c-1.349 0-2.125-.572-2.635-1.497-.478-.933-.51-1.953-.51-4.195V91.17h-2.1v-1.403h2.1V85.33h1.592v4.438h3.497v1.403h-3.528v7.966c0 1.529.18 3.356 2.038 3.356.894 0 1.49-.392 1.49-.392l.157 1.348m8.742-12.639c-3.356 0-5.449 2.611-5.449 5.842 0 3.206 2.093 5.84 5.45 5.84 3.386 0 5.48-2.634 5.48-5.84 0-3.23-2.094-5.842-5.48-5.842zm0 13.094c-3.951 0-7.103-2.995-7.103-7.19 0-4.194 3.152-7.252 7.103-7.252 3.983 0 7.127 3.058 7.127 7.252 0 4.195-3.144 7.19-7.127 7.19" fill="#000"/><g clip-path="url(#a)" transform="translate(0 -.337) scale(2.0072)"><path d="M185.406 51.781h-.789V47.68c0-1.121-.195-2.27-1.687-2.27-1.493 0-2.207 1.3-2.207 2.942v3.43h-.778v-6.923h.778v1.282c.34-.82 1.238-1.403 2.238-1.403 1.984 0 2.445 1.27 2.445 2.91v4.133" fill="#000"/></g><g clip-path="url(#b)" transform="translate(0 -.337) scale(2.0072)"><path d="M4.219 54.14l27.804-12.128V1.594L30.098.816v41.438L0 55c1.367-.297 2.777-.578 4.219-.86" fill="#000"/></g><path d="M57.236 101.348l27.129-19.523V11.957L76.57 8.492v74.07l-31.958 20.19c4.124-.494 8.335-.965 12.623-1.404m46.434-3.278l9.98-17.907V24.988l-14.034-6.24v61.995L87.078 98.925a834.28 834.28 0 0116.59-.854m45.774-.651l-10.648-17.508V36.185l-12.474-5.551v49.278l9.558 17.445c4.57-.015 9.095.008 13.564.063m42.676 1.717L161.901 80.83V46.464l-9.346-4.164v38.06l26.227 17.978c4.524.228 8.97.494 13.336.8" fill="#000"/><path d="M235.344 103.716l-55.849-21.499v-27.92l-4.673-2.086v29.567l52.987 20.88c2.564.344 5.073.69 7.535 1.058" fill="#000"/></svg>